<svg version="1.1" id="Layer_1" xmlns="http://www.w3.org/2000/svg" xmlns:xlink="http://www.w3.org/1999/xlink" x="0px" y="0px"
	 width="100%" viewBox="0 0 297 135" enable-background="new 0 0 297 135" xml:space="preserve">
<path fill="#2C2C2C" opacity="1.000000" stroke="none" 
	d="
M185.000000,136.000000 
	C123.333344,136.000000 62.166679,136.000000 1.000016,136.000000 
	C1.000011,91.000015 1.000011,46.000027 1.000005,1.000029 
	C99.999977,1.000019 198.999954,1.000019 297.999939,1.000010 
	C297.999969,45.999969 297.999969,90.999939 298.000000,135.999954 
	C260.500000,136.000000 223.000000,136.000000 185.000000,136.000000 
M120.459221,107.389412 
	C120.947853,104.796432 121.834465,102.207230 121.859131,99.609848 
	C121.996758,85.117706 121.993416,70.623169 121.903854,56.130283 
	C121.836494,45.230869 114.515144,37.992535 103.697350,37.969334 
	C89.203972,37.938255 74.710449,37.943623 60.217045,37.967525 
	C49.166775,37.985744 42.013290,45.012295 41.974941,55.962883 
	C41.923599,70.622734 41.925636,85.283028 41.974445,99.942902 
	C42.010757,110.849823 49.207718,117.987297 60.190655,118.020981 
	C74.683952,118.065430 89.177773,118.074409 103.670647,117.983849 
	C105.777527,117.970688 107.880432,117.320435 110.697922,116.960205 
	C113.795883,113.972122 116.893837,110.984032 120.459221,107.389412 
M245.374817,74.848572 
	C245.374817,78.412216 245.374817,81.975861 245.374817,85.378311 
	C248.142365,85.378311 250.026093,85.378311 251.619308,85.378311 
	C252.103638,81.577003 252.534866,78.192368 252.966110,74.807732 
	C253.629776,74.876244 254.293442,74.944763 254.957108,75.013275 
	C255.151596,78.512810 255.346100,82.012344 255.536697,85.441635 
	C257.898376,85.441635 259.808044,85.441635 262.024170,85.441635 
	C262.024170,81.828514 262.200806,78.516365 261.978333,75.231239 
	C261.714874,71.340622 259.394958,69.067917 255.491577,69.126419 
	C252.287445,69.174446 249.092194,69.814957 245.375656,70.253960 
	C245.375656,71.421310 245.375656,72.694611 245.374817,74.848572 
M266.654114,69.116066 
	C265.349243,70.555824 264.044373,71.995583 263.352234,72.759308 
	C264.444672,74.946281 265.725037,76.403137 265.853149,77.955109 
	C266.446198,85.138435 268.186554,86.519302 277.243958,84.938293 
	C275.812622,82.838646 274.305328,81.338570 273.720886,79.538826 
	C273.276337,78.169731 273.900146,76.397102 274.239471,74.845757 
	C274.589722,73.244453 275.993256,71.295547 275.467590,70.209381 
	C274.567444,68.349449 272.523407,67.043121 270.959717,65.504333 
	C270.745605,64.861435 270.531464,64.218544 270.317322,63.575649 
	C269.258972,65.237679 268.200653,66.899712 266.654114,69.116066 
M166.395370,82.755936 
	C168.724823,79.130775 168.786713,75.457375 166.006287,72.155197 
	C163.174866,68.792442 159.576477,68.598854 155.596329,70.231644 
	C154.397354,70.723503 152.826035,70.307724 151.422958,70.307724 
	C150.327515,83.114647 150.854691,89.514908 153.611465,91.476997 
	C153.830414,89.043404 154.024963,86.880966 154.236710,84.527252 
	C158.538498,86.537224 162.464035,86.958458 166.395370,82.755936 
M133.305420,82.491280 
	C135.900085,83.642586 138.619904,85.900078 141.053162,85.624763 
	C143.348663,85.365044 146.325974,82.839409 147.238724,80.593399 
	C148.608353,77.223167 145.763474,75.209427 142.618835,74.220558 
	C141.034988,73.722511 139.311768,73.540085 137.857040,72.807144 
	C136.989288,72.369926 135.993378,71.126633 136.018860,70.274521 
	C136.044449,69.418213 137.303589,67.864822 137.955185,67.898865 
	C139.906494,68.000809 141.870667,68.601852 143.736862,69.268364 
	C144.651932,69.595184 145.361359,70.497833 147.071854,71.866333 
	C146.338120,65.709534 143.243027,64.554428 139.177353,64.774315 
	C135.821228,64.955826 133.325745,66.392761 133.026352,70.027672 
	C132.684921,74.172646 135.732346,75.285370 138.955902,76.098274 
	C139.600296,76.260780 140.407883,76.250320 140.851822,76.644463 
	C142.184479,77.827629 143.374512,79.171432 144.620193,80.452560 
	C142.839630,81.332016 141.103851,82.743393 139.262299,82.898460 
	C138.091751,82.997017 136.782944,81.202255 135.498581,80.310600 
	C134.890961,79.888763 134.195297,79.593750 133.539520,79.241280 
	C133.371429,80.112236 133.203323,80.983200 133.305420,82.491280 
M235.672836,81.115852 
	C235.754807,82.561241 235.836792,84.006622 235.915970,85.402679 
	C238.345749,85.402679 240.409256,85.402679 242.568848,85.402679 
	C242.568848,78.498703 242.568848,71.935387 242.568848,65.158539 
	C240.226288,65.158539 238.134842,65.158539 235.672104,65.158539 
	C235.672104,70.280273 235.672104,75.237946 235.672836,81.115852 
M218.987335,85.929695 
	C220.899857,84.579521 222.812378,83.229340 224.724899,81.879166 
	C213.874619,83.280350 213.874619,83.280350 212.286560,78.809364 
	C216.495102,78.809364 220.591019,78.809364 224.643295,78.809364 
	C225.388672,72.049232 220.728287,67.848282 214.858215,69.629700 
	C210.872086,70.839394 208.484589,74.638565 209.053116,78.867294 
	C209.654190,83.338196 212.642242,85.672928 218.987335,85.929695 
M187.188339,76.657181 
	C187.188339,74.400421 187.188339,72.143669 187.188339,70.471329 
	C184.941360,70.244537 183.335785,70.339012 181.901443,69.888397 
	C177.994919,68.661118 174.562805,69.228172 172.068130,72.527016 
	C169.615082,75.770828 169.537643,79.420151 171.990616,82.695679 
	C174.599152,86.178932 178.120605,86.764137 182.219894,85.309731 
	C183.562317,84.833450 185.216141,85.234825 187.188156,85.234825 
	C187.188156,82.780678 187.188156,80.155540 187.188339,76.657181 
M197.016678,72.342773 
	C200.198090,73.097107 203.379517,73.851440 206.632935,74.622841 
	C204.063828,69.881668 200.874252,68.330788 196.621140,69.678429 
	C192.572723,70.961205 190.258423,74.645943 190.956345,78.998329 
	C191.613770,83.098206 194.115799,85.544647 198.241394,85.983383 
	C202.463959,86.432426 205.144806,84.400986 206.458130,80.296097 
	C202.342697,81.594093 198.325882,86.532333 194.492889,80.611870 
	C192.714813,77.865433 193.338715,74.825813 197.016678,72.342773 
z"/>
<path fill="#EDEDED" opacity="1.000000" stroke="none" 
	d="
M109.985176,116.964989 
	C107.880432,117.320435 105.777527,117.970688 103.670647,117.983849 
	C89.177773,118.074409 74.683952,118.065430 60.190655,118.020981 
	C49.207718,117.987297 42.010757,110.849823 41.974445,99.942902 
	C41.925636,85.283028 41.923599,70.622734 41.974941,55.962883 
	C42.013290,45.012295 49.166775,37.985744 60.217045,37.967525 
	C74.710449,37.943623 89.203972,37.938255 103.697350,37.969334 
	C114.515144,37.992535 121.836494,45.230869 121.903854,56.130283 
	C121.993416,70.623169 121.996758,85.117706 121.859131,99.609848 
	C121.834465,102.207230 120.947853,104.796432 119.968773,107.491135 
	C119.226089,107.238937 118.973862,106.885010 118.778656,106.132393 
	C119.122620,104.433464 119.653702,103.134293 119.659386,101.832825 
	C119.728477,86.007065 120.007462,70.173843 119.614494,54.357891 
	C119.409073,46.090206 112.696373,40.163204 104.444794,40.091057 
	C89.285210,39.958508 74.122192,39.926533 58.963493,40.101902 
	C50.768959,40.196705 44.244267,46.553562 44.131332,54.682747 
	C43.916122,70.173607 43.927597,85.671272 44.121529,101.162651 
	C44.220600,109.076927 50.476509,115.686432 58.380939,115.786034 
	C75.031525,115.995842 91.688736,115.680458 108.646774,115.775848 
	C109.295273,116.302399 109.640221,116.633698 109.985176,116.964989 
z"/>
<path fill="#EBEBEB" opacity="1.000000" stroke="none" 
	d="
M245.375244,74.408241 
	C245.375656,72.694611 245.375656,71.421310 245.375656,70.253960 
	C249.092194,69.814957 252.287445,69.174446 255.491577,69.126419 
	C259.394958,69.067917 261.714874,71.340622 261.978333,75.231239 
	C262.200806,78.516365 262.024170,81.828514 262.024170,85.441635 
	C259.808044,85.441635 257.898376,85.441635 255.536697,85.441635 
	C255.346100,82.012344 255.151596,78.512810 254.957108,75.013275 
	C254.293442,74.944763 253.629776,74.876244 252.966110,74.807732 
	C252.534866,78.192368 252.103638,81.577003 251.619308,85.378311 
	C250.026093,85.378311 248.142365,85.378311 245.374817,85.378311 
	C245.374817,81.975861 245.374817,78.412216 245.375244,74.408241 
z"/>
<path fill="#EFEFEF" opacity="1.000000" stroke="none" 
	d="
M266.898193,68.838898 
	C268.200653,66.899712 269.258972,65.237679 270.317322,63.575649 
	C270.531464,64.218544 270.745605,64.861435 270.959717,65.504333 
	C272.523407,67.043121 274.567444,68.349449 275.467590,70.209381 
	C275.993256,71.295547 274.589722,73.244453 274.239471,74.845757 
	C273.900146,76.397102 273.276337,78.169731 273.720886,79.538826 
	C274.305328,81.338570 275.812622,82.838646 277.243958,84.938293 
	C268.186554,86.519302 266.446198,85.138435 265.853149,77.955109 
	C265.725037,76.403137 264.444672,74.946281 263.352234,72.759308 
	C264.044373,71.995583 265.349243,70.555824 266.898193,68.838898 
z"/>
<path fill="#DEDEDE" opacity="1.000000" stroke="none" 
	d="
M166.155182,83.068008 
	C162.464035,86.958458 158.538498,86.537224 154.236710,84.527252 
	C154.024963,86.880966 153.830414,89.043404 153.611465,91.476997 
	C150.854691,89.514908 150.327515,83.114647 151.422958,70.307724 
	C152.826035,70.307724 154.397354,70.723503 155.596329,70.231644 
	C159.576477,68.598854 163.174866,68.792442 166.006287,72.155197 
	C168.786713,75.457375 168.724823,79.130775 166.155182,83.068008 
M163.945343,81.383652 
	C166.025330,76.373955 164.800964,72.393494 160.670975,72.240341 
	C158.634796,72.164833 155.720322,73.552559 154.694443,75.204308 
	C153.810196,76.628029 154.359406,79.855103 155.483292,81.413246 
	C157.505280,84.216537 160.572632,83.917336 163.945343,81.383652 
z"/>
<path fill="#E5E5E5" opacity="1.000000" stroke="none" 
	d="
M133.170319,82.172714 
	C133.203323,80.983200 133.371429,80.112236 133.539520,79.241280 
	C134.195297,79.593750 134.890961,79.888763 135.498581,80.310600 
	C136.782944,81.202255 138.091751,82.997017 139.262299,82.898460 
	C141.103851,82.743393 142.839630,81.332016 144.620193,80.452560 
	C143.374512,79.171432 142.184479,77.827629 140.851822,76.644463 
	C140.407883,76.250320 139.600296,76.260780 138.955902,76.098274 
	C135.732346,75.285370 132.684921,74.172646 133.026352,70.027672 
	C133.325745,66.392761 135.821228,64.955826 139.177353,64.774315 
	C143.243027,64.554428 146.338120,65.709534 147.071854,71.866333 
	C145.361359,70.497833 144.651932,69.595184 143.736862,69.268364 
	C141.870667,68.601852 139.906494,68.000809 137.955185,67.898865 
	C137.303589,67.864822 136.044449,69.418213 136.018860,70.274521 
	C135.993378,71.126633 136.989288,72.369926 137.857040,72.807144 
	C139.311768,73.540085 141.034988,73.722511 142.618835,74.220558 
	C145.763474,75.209427 148.608353,77.223167 147.238724,80.593399 
	C146.325974,82.839409 143.348663,85.365044 141.053162,85.624763 
	C138.619904,85.900078 135.900085,83.642586 133.170319,82.172714 
z"/>
<path fill="#F1F1F1" opacity="1.000000" stroke="none" 
	d="
M235.672470,80.655731 
	C235.672104,75.237946 235.672104,70.280273 235.672104,65.158539 
	C238.134842,65.158539 240.226288,65.158539 242.568848,65.158539 
	C242.568848,71.935387 242.568848,78.498703 242.568848,85.402679 
	C240.409256,85.402679 238.345749,85.402679 235.915970,85.402679 
	C235.836792,84.006622 235.754807,82.561241 235.672470,80.655731 
z"/>
<path fill="#DBDBDB" opacity="1.000000" stroke="none" 
	d="
M218.594437,85.972580 
	C212.642242,85.672928 209.654190,83.338196 209.053116,78.867294 
	C208.484589,74.638565 210.872086,70.839394 214.858215,69.629700 
	C220.728287,67.848282 225.388672,72.049232 224.643295,78.809364 
	C220.591019,78.809364 216.495102,78.809364 212.286560,78.809364 
	C213.874619,83.280350 213.874619,83.280350 224.724899,81.879166 
	C222.812378,83.229340 220.899857,84.579521 218.594437,85.972580 
M213.705719,73.089256 
	C213.184372,73.953026 212.663040,74.816795 212.112564,75.728821 
	C215.684479,75.728821 218.808441,75.728821 222.475067,75.728821 
	C220.328278,71.766815 217.686172,71.262985 213.705719,73.089256 
z"/>
<path fill="#E8E8E8" opacity="1.000000" stroke="none" 
	d="
M187.188248,77.093796 
	C187.188156,80.155540 187.188156,82.780678 187.188156,85.234825 
	C185.216141,85.234825 183.562317,84.833450 182.219894,85.309731 
	C178.120605,86.764137 174.599152,86.178932 171.990616,82.695679 
	C169.537643,79.420151 169.615082,75.770828 172.068130,72.527016 
	C174.562805,69.228172 177.994919,68.661118 181.901443,69.888397 
	C183.335785,70.339012 184.941360,70.244537 187.188339,70.471329 
	C187.188339,72.143669 187.188339,74.400421 187.188248,77.093796 
M173.065216,78.357109 
	C174.073730,82.582962 176.818405,84.288200 180.854294,82.957985 
	C184.262711,81.834587 185.467468,78.781784 183.960587,75.736298 
	C183.118713,74.034828 180.691650,72.353561 178.790817,72.105743 
	C175.273697,71.647171 173.409317,74.087547 173.065216,78.357109 
z"/>
<path fill="#DEDEDE" opacity="1.000000" stroke="none" 
	d="
M196.674042,72.552994 
	C193.338715,74.825813 192.714813,77.865433 194.492889,80.611870 
	C198.325882,86.532333 202.342697,81.594093 206.458130,80.296097 
	C205.144806,84.400986 202.463959,86.432426 198.241394,85.983383 
	C194.115799,85.544647 191.613770,83.098206 190.956345,78.998329 
	C190.258423,74.645943 192.572723,70.961205 196.621140,69.678429 
	C200.874252,68.330788 204.063828,69.881668 206.632935,74.622841 
	C203.379517,73.851440 200.198090,73.097107 196.674042,72.552994 
z"/>
<path fill="#DEDEDE" opacity="1.000000" stroke="none" 
	d="
M110.341553,116.962601 
	C109.640221,116.633698 109.295273,116.302399 108.931076,115.561142 
	C112.181778,112.277817 115.451706,109.404449 118.721634,106.531082 
	C118.973862,106.885010 119.226089,107.238937 119.735062,107.794403 
	C116.893837,110.984032 113.795883,113.972122 110.341553,116.962601 
z"/>
<path fill="#2F2F2F" opacity="1.000000" stroke="none" 
	d="
M118.778656,106.132401 
	C115.451706,109.404449 112.181778,112.277817 108.627533,115.365875 
	C91.688736,115.680458 75.031525,115.995842 58.380939,115.786034 
	C50.476509,115.686432 44.220600,109.076927 44.121529,101.162651 
	C43.927597,85.671272 43.916122,70.173607 44.131332,54.682747 
	C44.244267,46.553562 50.768959,40.196705 58.963493,40.101902 
	C74.122192,39.926533 89.285210,39.958508 104.444794,40.091057 
	C112.696373,40.163204 119.409073,46.090206 119.614494,54.357891 
	C120.007462,70.173843 119.728477,86.007065 119.659386,101.832825 
	C119.653702,103.134293 119.122620,104.433464 118.778656,106.132401 
M101.315552,84.988876 
	C99.832664,80.551430 100.073120,76.293808 101.037659,71.607857 
	C103.231972,60.947449 95.938087,50.918243 85.543770,49.036259 
	C74.577789,47.050774 63.593086,54.068226 62.729038,65.306396 
	C62.089020,73.630798 62.154739,82.245972 62.717953,90.585190 
	C63.440098,101.277618 73.403534,108.108475 84.011482,107.088943 
	C94.450378,106.085663 101.458664,97.523834 101.315552,84.988876 
z"/>
<path fill="#313131" opacity="1.000000" stroke="none" 
	d="
M163.658371,81.682495 
	C160.572632,83.917336 157.505280,84.216537 155.483292,81.413246 
	C154.359406,79.855103 153.810196,76.628029 154.694443,75.204308 
	C155.720322,73.552559 158.634796,72.164833 160.670975,72.240341 
	C164.800964,72.393494 166.025330,76.373955 163.658371,81.682495 
z"/>
<path fill="#353535" opacity="1.000000" stroke="none" 
	d="
M214.043182,72.856155 
	C217.686172,71.262985 220.328278,71.766815 222.475067,75.728821 
	C218.808441,75.728821 215.684479,75.728821 212.112564,75.728821 
	C212.663040,74.816795 213.184372,73.953026 214.043182,72.856155 
z"/>
<path fill="#343434" opacity="1.000000" stroke="none" 
	d="
M173.049835,77.957016 
	C173.409317,74.087547 175.273697,71.647171 178.790817,72.105743 
	C180.691650,72.353561 183.118713,74.034828 183.960587,75.736298 
	C185.467468,78.781784 184.262711,81.834587 180.854294,82.957985 
	C176.818405,84.288200 174.073730,82.582962 173.049835,77.957016 
z"/>
<path fill="#E2E2E2" opacity="1.000000" stroke="none" 
	d="
M101.369392,85.403183 
	C101.458664,97.523834 94.450378,106.085663 84.011482,107.088943 
	C73.403534,108.108475 63.440098,101.277618 62.717953,90.585190 
	C62.154739,82.245972 62.089020,73.630798 62.729038,65.306396 
	C63.593086,54.068226 74.577789,47.050774 85.543770,49.036259 
	C95.938087,50.918243 103.231972,60.947449 101.037659,71.607857 
	C100.073120,76.293808 99.832664,80.551430 101.369392,85.403183 
M98.906891,90.889343 
	C100.590149,77.870590 92.953163,71.852509 81.454910,68.671722 
	C88.584930,67.178886 93.081879,71.254700 97.705688,75.033798 
	C101.212746,65.785583 97.502892,56.439499 89.021561,52.575100 
	C80.782524,48.821098 70.640465,51.848183 66.844170,60.164452 
	C65.112106,63.958763 64.540672,68.994217 65.350220,73.089706 
	C67.048477,81.681221 74.211159,85.005089 82.072357,87.410080 
	C79.040009,87.621414 76.168617,87.390465 73.716888,86.254105 
	C70.962013,84.977226 68.586029,82.882881 65.332848,80.656693 
	C65.070633,83.935883 64.438110,86.718170 64.709496,89.409309 
	C65.538834,97.633209 71.943398,103.926208 79.957741,104.833801 
	C88.413887,105.791428 95.254379,101.018959 98.906891,90.889343 
z"/>
<path fill="#2F2F2F" opacity="1.000000" stroke="none" 
	d="
M98.834900,91.301590 
	C95.254379,101.018959 88.413887,105.791428 79.957741,104.833801 
	C71.943398,103.926208 65.538834,97.633209 64.709496,89.409309 
	C64.438110,86.718170 65.070633,83.935883 65.332848,80.656693 
	C68.586029,82.882881 70.962013,84.977226 73.716888,86.254105 
	C76.168617,87.390465 79.040009,87.621414 82.072357,87.410080 
	C74.211159,85.005089 67.048477,81.681221 65.350220,73.089706 
	C64.540672,68.994217 65.112106,63.958763 66.844170,60.164452 
	C70.640465,51.848183 80.782524,48.821098 89.021561,52.575100 
	C97.502892,56.439499 101.212746,65.785583 97.705688,75.033798 
	C93.081879,71.254700 88.584930,67.178886 81.454910,68.671722 
	C92.953163,71.852509 100.590149,77.870590 98.834900,91.301590 
z"/>
</svg>