<svg version="1.1" id="Layer_1" xmlns="http://www.w3.org/2000/svg" xmlns:xlink="http://www.w3.org/1999/xlink" x="0px" y="0px"
	 width="100%" viewBox="0 0 273 123" enable-background="new 0 0 273 123" xml:space="preserve">
<path fill="none" opacity="1.000000" stroke="none" 
	d="
M184.000000,124.000000 
	C122.666687,124.000000 61.833370,124.000000 1.000041,124.000000 
	C1.000027,83.000031 1.000027,42.000061 1.000014,1.000068 
	C91.999939,1.000046 182.999878,1.000046 273.999878,1.000023 
	C273.999908,41.999931 273.999908,82.999863 273.999939,123.999893 
	C244.166672,124.000000 214.333328,124.000000 184.000000,124.000000 
M102.946518,72.232155 
	C102.826256,67.435867 103.384323,62.502411 102.447777,57.871193 
	C100.348167,47.488567 93.483673,44.901085 84.844833,50.652794 
	C82.779404,45.641987 78.996384,48.681499 76.208527,48.340679 
	C76.208527,65.110229 76.208527,81.485626 76.208527,97.679886 
	C79.538589,97.679886 82.446457,97.679886 85.628418,97.679886 
	C85.628418,92.405281 85.628418,87.457748 85.628418,82.357574 
	C92.547714,85.975090 97.099060,84.965691 100.483597,79.051529 
	C101.538506,77.208191 102.059082,75.059059 102.946518,72.232155 
M63.330952,34.033897 
	C54.584255,34.177746 49.228363,37.488880 47.269478,43.963467 
	C45.229774,50.705200 47.868137,56.835873 54.962399,61.824020 
	C56.320801,62.779152 58.202183,63.425282 58.945194,64.726303 
	C60.305313,67.107880 62.350967,70.418594 61.582806,72.321259 
	C60.824085,74.200546 57.033840,75.344711 54.394825,75.820595 
	C52.304016,76.197632 49.942989,75.076241 47.443592,74.567635 
	C46.977539,77.275673 46.539257,79.822334 46.050442,82.662613 
	C47.890327,83.198631 49.429363,83.796257 51.024338,84.087166 
	C60.572147,85.828621 68.150742,82.410370 71.067680,75.125679 
	C74.069641,67.628662 71.045578,60.413342 62.650425,54.996300 
	C61.396221,54.187012 59.737766,53.571911 59.055576,52.405407 
	C57.908806,50.444511 56.287643,47.678001 56.923687,46.058544 
	C57.575150,44.399834 60.591175,43.247425 62.772793,42.745934 
	C64.512978,42.345921 66.554588,43.257214 68.686691,43.625130 
	C69.084259,41.686111 69.509911,39.766754 69.855881,37.833145 
	C69.968651,37.202858 69.873604,36.535389 69.873604,35.438217 
	C67.995461,34.983505 66.099281,34.524426 63.330952,34.033897 
M131.175934,77.395966 
	C129.460922,77.249092 127.729668,76.874863 126.033821,76.996086 
	C119.859306,77.437454 117.454948,75.670837 117.021294,69.637154 
	C122.458824,69.637154 127.869316,69.637154 134.134415,69.637154 
	C133.729660,65.178009 133.695572,61.216522 132.941406,57.397221 
	C131.987976,52.568821 129.384613,48.813133 124.149246,47.677616 
	C119.071335,46.576248 114.974411,48.469769 111.701050,52.180698 
	C107.715950,56.698528 106.821465,62.243156 107.114655,68.034645 
	C107.832840,82.221474 118.863075,88.675331 132.150558,82.438530 
	C131.898499,81.075684 131.632172,79.635727 131.175934,77.395966 
M220.731262,69.751022 
	C224.680267,69.751022 228.629272,69.751022 233.216339,69.751022 
	C232.937683,65.298714 233.013123,61.328049 232.368591,57.477913 
	C231.505539,52.322456 228.543442,48.661190 223.126556,47.644608 
	C217.825378,46.649746 212.979126,48.508987 210.694687,52.986050 
	C208.386261,57.510120 206.776733,62.956085 206.791168,67.992661 
	C206.832169,82.296043 218.072250,88.716118 231.562393,82.486992 
	C231.395462,81.468513 231.270126,80.341316 231.013931,79.244698 
	C230.767548,78.190208 230.385712,77.167374 230.075256,76.168831 
	C220.172028,78.145020 216.947021,76.660606 216.361374,69.934967 
	C217.513641,69.873375 218.660660,69.812073 220.731262,69.751022 
M162.079941,48.156395 
	C161.733276,50.180000 161.386612,52.203609 161.020294,54.341896 
	C162.796997,54.893047 164.097061,55.296337 165.377136,55.693428 
	C165.377136,58.834465 165.346497,61.656319 165.385742,64.477196 
	C165.425018,67.300079 165.444550,70.127831 165.628571,72.943268 
	C166.307190,83.326454 171.012939,86.510750 181.329559,83.539742 
	C181.329559,81.298225 181.329559,79.028366 181.329559,76.323959 
	C177.747314,76.689133 175.245148,75.682510 175.265900,71.699944 
	C175.294220,66.265892 175.272964,60.831566 175.272964,55.231236 
	C178.476212,55.088692 181.232681,54.966026 183.970932,54.844173 
	C184.023453,49.806412 182.314697,47.306862 176.921494,47.890320 
	C172.322586,48.387844 167.627487,47.996231 162.079941,48.156395 
M146.828964,49.069519 
	C137.738052,54.766048 134.599823,67.153084 139.732361,77.080841 
	C143.198486,83.785309 150.760269,86.248940 158.588638,83.063065 
	C158.341446,80.884933 158.087112,78.643829 157.836105,76.432098 
	C150.005219,76.501930 147.205124,73.884384 147.100739,66.656616 
	C146.986252,58.730099 149.705078,55.950497 158.182037,55.583904 
	C158.508041,53.226772 158.839844,50.827679 159.327896,47.298889 
	C154.892120,47.871315 151.220657,48.345104 146.828964,49.069519 
M196.079132,65.905296 
	C195.873260,60.369507 198.431351,57.151527 203.920166,56.783245 
	C203.920166,53.526661 203.920166,50.604610 203.920166,46.256905 
	C200.345886,48.276619 197.635178,49.808346 195.051605,51.268238 
	C194.203491,45.065910 189.477402,49.025764 186.381531,48.053997 
	C186.381531,60.261364 186.381531,71.995560 186.381531,83.662338 
	C189.811096,83.662338 192.864304,83.662338 196.078690,83.662338 
	C196.078690,77.804451 196.078690,72.315498 196.079132,65.905296 
M172.234589,45.148193 
	C178.656860,44.331642 173.765244,39.963615 175.495743,36.959637 
	C171.627594,37.885590 168.651260,38.598053 165.676849,39.310062 
	C165.676849,41.365143 165.676849,43.088360 165.676849,45.148186 
	C167.771957,45.148186 169.562271,45.148186 172.234589,45.148193 
z"/>
<path fill="#F8F8F8" opacity="1.000000" stroke="none" 
	d="
M102.885391,72.641037 
	C102.059082,75.059059 101.538506,77.208191 100.483597,79.051529 
	C97.099060,84.965691 92.547714,85.975090 85.628418,82.357574 
	C85.628418,87.457748 85.628418,92.405281 85.628418,97.679886 
	C82.446457,97.679886 79.538589,97.679886 76.208527,97.679886 
	C76.208527,81.485626 76.208527,65.110229 76.208527,48.340679 
	C78.996384,48.681499 82.779404,45.641987 84.844833,50.652794 
	C93.483673,44.901085 100.348167,47.488567 102.447777,57.871193 
	C103.384323,62.502411 102.826256,67.435867 102.885391,72.641037 
M93.790527,65.524681 
	C93.419739,63.244041 93.393211,60.824135 92.548225,58.735321 
	C92.046478,57.495014 90.326790,56.191311 89.018311,56.031265 
	C88.162994,55.926643 86.274117,57.770523 86.207726,58.827061 
	C85.897339,63.766487 85.889252,68.745872 86.187904,73.685905 
	C86.251892,74.744209 87.979156,76.408936 89.048683,76.498474 
	C90.095284,76.586090 91.895180,75.234398 92.279587,74.135124 
	C93.139397,71.676369 93.324371,68.981636 93.790527,65.524681 
z"/>
<path fill="#F7F7F7" opacity="1.000000" stroke="none" 
	d="
M63.767029,34.049622 
	C66.099281,34.524426 67.995461,34.983505 69.873604,35.438217 
	C69.873604,36.535389 69.968651,37.202858 69.855881,37.833145 
	C69.509911,39.766754 69.084259,41.686111 68.686691,43.625130 
	C66.554588,43.257214 64.512978,42.345921 62.772793,42.745934 
	C60.591175,43.247425 57.575150,44.399834 56.923687,46.058544 
	C56.287643,47.678001 57.908806,50.444511 59.055576,52.405407 
	C59.737766,53.571911 61.396221,54.187012 62.650425,54.996300 
	C71.045578,60.413342 74.069641,67.628662 71.067680,75.125679 
	C68.150742,82.410370 60.572147,85.828621 51.024338,84.087166 
	C49.429363,83.796257 47.890327,83.198631 46.050442,82.662613 
	C46.539257,79.822334 46.977539,77.275673 47.443592,74.567635 
	C49.942989,75.076241 52.304016,76.197632 54.394825,75.820595 
	C57.033840,75.344711 60.824085,74.200546 61.582806,72.321259 
	C62.350967,70.418594 60.305313,67.107880 58.945194,64.726303 
	C58.202183,63.425282 56.320801,62.779152 54.962399,61.824020 
	C47.868137,56.835873 45.229774,50.705200 47.269478,43.963467 
	C49.228363,37.488880 54.584255,34.177746 63.767029,34.049622 
z"/>
<path fill="#F6F6F6" opacity="1.000000" stroke="none" 
	d="
M131.270889,77.795868 
	C131.632172,79.635727 131.898499,81.075684 132.150558,82.438530 
	C118.863075,88.675331 107.832840,82.221474 107.114655,68.034645 
	C106.821465,62.243156 107.715950,56.698528 111.701050,52.180698 
	C114.974411,48.469769 119.071335,46.576248 124.149246,47.677616 
	C129.384613,48.813133 131.987976,52.568821 132.941406,57.397221 
	C133.695572,61.216522 133.729660,65.178009 134.134415,69.637154 
	C127.869316,69.637154 122.458824,69.637154 117.021294,69.637154 
	C117.454948,75.670837 119.859306,77.437454 126.033821,76.996086 
	C127.729668,76.874863 129.460922,77.249092 131.270889,77.795868 
M124.945030,61.484238 
	C124.641113,58.558876 124.780380,54.636032 120.822189,54.858486 
	C116.864731,55.080906 117.028572,58.993496 116.489426,62.792946 
	C119.528549,62.588409 122.068474,62.417469 124.945030,61.484238 
z"/>
<path fill="#F6F6F6" opacity="1.000000" stroke="none" 
	d="
M220.269470,69.750893 
	C218.660660,69.812073 217.513641,69.873375 216.361374,69.934967 
	C216.947021,76.660606 220.172028,78.145020 230.075256,76.168831 
	C230.385712,77.167374 230.767548,78.190208 231.013931,79.244698 
	C231.270126,80.341316 231.395462,81.468513 231.562393,82.486992 
	C218.072250,88.716118 206.832169,82.296043 206.791168,67.992661 
	C206.776733,62.956085 208.386261,57.510120 210.694687,52.986050 
	C212.979126,48.508987 217.825378,46.649746 223.126556,47.644608 
	C228.543442,48.661190 231.505539,52.322456 232.368591,57.477913 
	C233.013123,61.328049 232.937683,65.298714 233.216339,69.751022 
	C228.629272,69.751022 224.680267,69.751022 220.269470,69.750893 
M223.135376,62.644653 
	C222.954590,60.318466 222.973221,57.944401 222.435333,55.703941 
	C222.319000,55.219357 219.431076,54.666870 219.135025,55.082504 
	C217.657028,57.157482 216.617462,59.544746 214.965271,62.696602 
	C218.372665,62.696602 220.318787,62.696602 223.135376,62.644653 
z"/>
<path fill="#F4F4F4" opacity="1.000000" stroke="none" 
	d="
M162.527435,48.077171 
	C167.627487,47.996231 172.322586,48.387844 176.921494,47.890320 
	C182.314697,47.306862 184.023453,49.806412 183.970932,54.844173 
	C181.232681,54.966026 178.476212,55.088692 175.272964,55.231236 
	C175.272964,60.831566 175.294220,66.265892 175.265900,71.699944 
	C175.245148,75.682510 177.747314,76.689133 181.329559,76.323959 
	C181.329559,79.028366 181.329559,81.298225 181.329559,83.539742 
	C171.012939,86.510750 166.307190,83.326454 165.628571,72.943268 
	C165.444550,70.127831 165.425018,67.300079 165.385742,64.477196 
	C165.346497,61.656319 165.377136,58.834465 165.377136,55.693428 
	C164.097061,55.296337 162.796997,54.893047 161.020294,54.341896 
	C161.386612,52.203609 161.733276,50.180000 162.527435,48.077171 
z"/>
<path fill="#F6F6F6" opacity="1.000000" stroke="none" 
	d="
M147.189087,48.944206 
	C151.220657,48.345104 154.892120,47.871315 159.327896,47.298889 
	C158.839844,50.827679 158.508041,53.226772 158.182037,55.583904 
	C149.705078,55.950497 146.986252,58.730099 147.100739,66.656616 
	C147.205124,73.884384 150.005219,76.501930 157.836105,76.432098 
	C158.087112,78.643829 158.341446,80.884933 158.588638,83.063065 
	C150.760269,86.248940 143.198486,83.785309 139.732361,77.080841 
	C134.599823,67.153084 137.738052,54.766048 147.189087,48.944206 
z"/>
<path fill="#F8F8F8" opacity="1.000000" stroke="none" 
	d="
M196.078918,66.365921 
	C196.078690,72.315498 196.078690,77.804451 196.078690,83.662338 
	C192.864304,83.662338 189.811096,83.662338 186.381531,83.662338 
	C186.381531,71.995560 186.381531,60.261364 186.381531,48.053997 
	C189.477402,49.025764 194.203491,45.065910 195.051605,51.268238 
	C197.635178,49.808346 200.345886,48.276619 203.920166,46.256905 
	C203.920166,50.604610 203.920166,53.526661 203.920166,56.783245 
	C198.431351,57.151527 195.873260,60.369507 196.078918,66.365921 
z"/>
<path fill="#F2F2F2" opacity="1.000000" stroke="none" 
	d="
M171.793579,45.148190 
	C169.562271,45.148186 167.771957,45.148186 165.676849,45.148186 
	C165.676849,43.088360 165.676849,41.365143 165.676849,39.310062 
	C168.651260,38.598053 171.627594,37.885590 175.495743,36.959637 
	C173.765244,39.963615 178.656860,44.331642 171.793579,45.148190 
z"/>
<path fill="#353535" opacity="1.000000" stroke="none" 
	d="
M93.787369,65.953850 
	C93.324371,68.981636 93.139397,71.676369 92.279587,74.135124 
	C91.895180,75.234398 90.095284,76.586090 89.048683,76.498474 
	C87.979156,76.408936 86.251892,74.744209 86.187904,73.685905 
	C85.889252,68.745872 85.897339,63.766487 86.207726,58.827061 
	C86.274117,57.770523 88.162994,55.926643 89.018311,56.031265 
	C90.326790,56.191311 92.046478,57.495014 92.548225,58.735321 
	C93.393211,60.824135 93.419739,63.244041 93.787369,65.953850 
z"/>
<path fill="#404040" opacity="1.000000" stroke="none" 
	d="
M124.776711,61.865383 
	C122.068474,62.417469 119.528549,62.588409 116.489426,62.792946 
	C117.028572,58.993496 116.864731,55.080906 120.822189,54.858486 
	C124.780380,54.636032 124.641113,58.558876 124.776711,61.865383 
z"/>
<path fill="#3F3F3F" opacity="1.000000" stroke="none" 
	d="
M222.700150,62.670628 
	C220.318787,62.696602 218.372665,62.696602 214.965271,62.696602 
	C216.617462,59.544746 217.657028,57.157482 219.135025,55.082504 
	C219.431076,54.666870 222.319000,55.219357 222.435333,55.703941 
	C222.973221,57.944401 222.954590,60.318466 222.700150,62.670628 
z"/>
</svg>