<svg id="f5ba0c80-54aa-4668-847f-f400238bd9b0" data-name="Layer 1" xmlns="http://www.w3.org/2000/svg" viewBox="0 0 202.12 51.08">
  <text transform="translate(41.39 26.96) scale(1.26 1)" font-size="16.84" stroke="#000" stroke-miterlimit="10" stroke-width="0.5" font-family="BPGNinoMtavruli-Bold, BPG Nino Mtavruli" font-weight="700">თიბისი</text>
  <text transform="translate(119.86 26.59) scale(1.21 1)" font-size="15.99" font-family="BPGNinoMtavruli-Bold, BPG Nino Mtavruli" font-weight="700">ლიზინგი</text>
  <path d="M166.23,147.26s-3.36-4.32-11.24-8-7.64-3.9-7.72-8.18.31-12.68.31-12.68.38-3.21,2.71.3,15.59,25.87,15.59,25.87l.62,2.41Z" transform="translate(-129.64 -117.03)"/>
  <path d="M146.45,117.26s-2,5.11-1.06,13.77.61,8.56-3,10.84-11,6.3-11,6.3-2.94,1.33-1.14-2.49S144.3,119,144.3,119l1.75-1.77Z" transform="translate(-129.64 -117.03)"/>
  <path d="M130.44,149.05s5.42-.73,12.59-5.67,7.21-4.65,10.95-2.56,10.81,6.64,10.81,6.64,2.58,1.94-1.63,2.19-30.2.47-30.2.47l-2.39-.68Z" transform="translate(-129.64 -117.03)"/>
</svg>
