<svg xmlns="http://www.w3.org/2000/svg" xmlns:xlink="http://www.w3.org/1999/xlink" version="1.1" id="Layer_1" x="0px" y="0px" viewBox="0 0 109.7 30" style="enable-background:new 0 0 109.7 30;" xml:space="preserve">
<style type="text/css">
	.st0{fill:#fff;}
	.st1{fill:#FCB817;}
</style>
<path id="svg_2" class="st0" d="M25.1,5.2c0.6-3.8,3.7-5.1,7.5-5.1C37.7-0.1,40,2.7,40,7.8c0,1,0,5.1,0,6.2c0,5.3-3.7,6.4-7.4,6.3  c-3.7-0.1-6.1-0.9-7.1-4c-0.3-1.1-0.4-2.3-0.5-3.5l4.8-0.7v1.3c0,1.7,0.7,3.2,2.8,3.2s2.6-1.5,2.6-3.2c0-1.2,0-4.6,0-5.8  c0-1.7-0.1-3.4-2.7-3.4c-2,0-2.5,0.9-2.6,2.1L25.1,5.2L25.1,5.2z"/>
<path id="svg_3" class="st0" d="M11.8,0.9c1.4-0.5,2.8-0.7,4.2-0.7c4.1,0,6.8,1.3,6.8,5.6v14.3h-4.5V7.4c0-1.7,0.2-3.4-2.2-3.4  c-0.5,0-1.1,0.1-1.5,0.4C14.9,5.5,15,6.7,15,7.8c0,1,0,5.1,0,6.2c0,5.3-3.7,6.4-7.4,6.3c-3.7-0.1-6.1-0.9-7.1-4  C0.2,14.9,0,13.4,0,12c0-1,0-4.5,0-5.6C0,1.6,3.4,0.1,7.6,0C9.1-0.1,10.5,0.2,11.8,0.9 M10.1,7.5c0-1.7-0.1-3.4-2.7-3.4  c-2.6,0-2.7,1.6-2.7,3.4c0,1.2,0,4.6,0,5.8c0,1.7,0.7,3.2,2.8,3.2s2.6-1.5,2.6-3.2C10.2,12.1,10.1,8.7,10.1,7.5"/>
<path id="svg_4" class="st0" d="M84.4,20.3c5.4,0,8.1-1.9,8.2-6.3c0-2.6,0-1.8,0-4.3c0-3.8-2-5.7-6-6.2V0.6h-4.4v11.6h4.4l0-4.9  c0.8,0.4,1.3,1.3,1.1,2.3v4.3c0,1.7-0.8,2.7-3.3,2.7c-2.5,0-3.3-1-3.3-2.7V9.5c0-0.1,0-0.3,0-0.4V3.7c-3.2,0.7-4.8,2.6-4.9,6  c0,2.6,0,1.8,0,4.3C76.2,18.4,79,20.3,84.4,20.3"/>
<path id="svg_5" class="st0" d="M54.2,7.2c1.1-1.2,1.4-3,0.7-4.4C53.8,0.6,51.3,0,49.4,0c-3.5,0-6,1.1-5.8,4.6l3.8,0.7  c0-0.4,0.1-0.7,0.2-1.1c0.3-0.9,0.9-1.2,2-1.1c1,0.1,2,0.7,1.8,1.8c-0.1,0.6-0.5,1.2-1,1.5c-0.3,0-0.5,0-0.8,0c-3.7,0-6.5,0.8-7,3.7  c-0.3,1.9-0.3,3.8-0.1,5.7c0.2,3.8,3.7,4.5,7.1,4.5s6.9-0.6,7.1-4.5c0.2-1.9,0.2-3.8-0.1-5.7C56.3,8.8,55.4,7.6,54.2,7.2 M49.5,16.6  c-1.1,0-2-0.3-2.2-1.1c-0.2-1.1-0.4-3.5,0.2-4.6c1-1.1,2.6-1.1,3.7-0.1c0,0,0.1,0.1,0.1,0.1c0.6,1.1,0.4,3.5,0.2,4.6  C51.5,16.2,50.6,16.6,49.5,16.6"/>
<path id="svg_6" class="st0" d="M109.7,14c0,4.4-2.1,6.3-7.4,6.3l0,0c-5.4,0-7.4-1.9-7.5-6.3v-1.9h4.8v0.7c0,1.7,0.1,3.4,2.6,3.4  c2.5,0,2.6-1.7,2.6-3.4c0-1.3,0-2.5,0-3.8c0-1-0.7-1.6-1.8-2l-4.2-1.5c-2.1-0.8-2.8-3-2.5-4.9h4.4c0,0.6,0.3,1.1,0.9,1.2l5.7,2.2  c1.6,0.6,2.4,1.7,2.4,4.5L109.7,14z"/>
<path id="svg_7" class="st0" d="M59,5.2c0.6-3.8,3.7-5.1,7.5-5.1c5.1-0.1,7.4,2.7,7.4,7.8c0,1,0,5.1,0,6.2c0,5.3-3.7,6.4-7.4,6.3  c-3.7-0.1-6.1-0.9-7.1-4c-0.3-1.1-0.4-2.3-0.5-3.5l4.8-0.7v1.3c0,1.7,0.7,3.2,2.8,3.2s2.6-1.5,2.6-3.2c0-1.2,0-4.6,0-5.8  c0-1.7-0.1-3.4-2.7-3.4c-2,0-2.5,0.9-2.6,2.1L59,5.2L59,5.2z"/>
<path id="svg_8" class="st0" d="M62,27.4c0.2,0,0.4-0.1,0.5-0.2c0.2-0.2,0.3-0.4,0.2-0.6c0-0.2-0.1-0.4-0.3-0.6  c-0.1-0.1-0.3-0.2-0.5-0.2c0.2,0,0.3-0.1,0.4-0.2c0.1-0.1,0.2-0.3,0.2-0.4c0-0.2-0.1-0.4-0.3-0.5c-0.2-0.1-0.4-0.2-0.7-0.3  c-0.2-0.1-0.3-0.1-0.5-0.2c-0.1,0-0.2-0.1-0.2-0.2v0h-0.9v0.1c0,0.2,0.1,0.4,0.2,0.5c0.1,0.1,0.2,0.2,0.4,0.3  c0.2,0.1,0.3,0.1,0.5,0.2c0.1,0,0.3,0.1,0.4,0.1c0.1,0,0.1,0.1,0.1,0.2c0,0.1,0,0.3-0.4,0.3h-0.6l-0.1,0.8h0.6c0.2,0,0.3,0,0.5,0.1  c0.1,0.1,0.2,0.2,0.2,0.3c0,0.3-0.2,0.4-0.6,0.4h-0.7l-0.1,0.8h0.7c0.2,0,0.5,0,0.7,0.2c0.1,0.1,0.2,0.3,0.2,0.5  c0,0.2-0.1,0.4-0.2,0.5c-0.2,0.1-0.5,0.2-0.8,0.2c-0.3,0-0.5-0.1-0.8-0.2c-0.2-0.1-0.3-0.3-0.3-0.5c0-0.1,0-0.2,0.1-0.3l0,0L59.1,28  l0,0c-0.1,0.2-0.2,0.4-0.2,0.6c0,0.3,0.1,0.5,0.3,0.7c0.2,0.2,0.4,0.4,0.7,0.5c0.3,0.1,0.7,0.2,1,0.2c0.5,0,1-0.1,1.4-0.4  c0.4-0.2,0.6-0.6,0.6-1.1c0-0.3-0.1-0.5-0.3-0.7C62.5,27.6,62.3,27.5,62,27.4"/>
<path id="svg_9" class="st0" d="M68.6,23.7c-0.6,0-1.2,0.3-1.3,0.9c-0.1-0.3-0.2-0.5-0.4-0.7c-0.3-0.2-0.6-0.3-0.9-0.3  c-0.5,0-1.1,0.2-1.4,0.7c-0.4,0.6-0.5,1.4-0.5,2.1c0,0.7,0.1,1.3,0.2,2c0.1,0.5,0.3,1,0.5,1.5l0,0h0.9l0-0.1c-0.2-0.5-0.4-1-0.5-1.6  c-0.1-0.6-0.2-1.2-0.2-1.9c0-0.4,0-0.8,0.1-1.2c0-0.2,0.1-0.4,0.3-0.6c0.2-0.1,0.4-0.2,0.6-0.2c0.5,0,0.8,0.4,0.8,1.1v2.5h0.9v-2.5  c0-0.3,0.1-0.6,0.2-0.9c0.1-0.2,0.4-0.3,0.6-0.3c0.3,0,0.5,0.2,0.7,0.4c0.2,0.5,0.3,1.1,0.2,1.6c0,0.6,0,1.2-0.2,1.8  c-0.1,0.5-0.3,1.1-0.5,1.6l0,0.1h0.9l0,0c0.2-0.5,0.4-1,0.5-1.5c0.1-0.6,0.2-1.3,0.2-2c0.1-0.7-0.1-1.5-0.5-2.1  C69.6,23.9,69.1,23.7,68.6,23.7"/>
<path id="svg_10" class="st0" d="M78.4,23.7c-0.3,0-0.6,0.1-0.9,0.3c0.1,0.2,0,0.5-0.2,0.6c-0.2,0.1-0.5,0-0.6-0.2  c-0.1-0.1-0.1-0.2,0-0.4c-0.2-0.2-0.5-0.3-0.9-0.3c-0.3,0-0.6,0.1-0.8,0.3c-0.2,0.2-0.3,0.4-0.4,0.6c-0.1-0.2-0.2-0.5-0.4-0.6  c-0.3-0.2-0.6-0.3-0.9-0.3c-0.5,0-0.9,0.2-1.2,0.5c-0.3,0.4-0.5,1-0.5,1.5c0,0.9,0.4,1.7,1.2,2.2c0.3,0.2,0.6,0.3,0.9,0.5  c-0.2,0-0.3,0-0.5,0.1c-0.2,0-0.4,0.1-0.7,0.2l0,0l0.3,0.7l0,0c0.6-0.3,1.3-0.4,1.9-0.4c0.4,0,0.8,0.1,1.1,0.2  c0.3,0.1,0.5,0.4,0.6,0.7l0,0h1l0-0.1c-0.1-0.3-0.2-0.6-0.5-0.9c-0.2-0.2-0.5-0.4-0.8-0.5c-0.3-0.1-0.7-0.3-1.3-0.4  c-0.6-0.2-1.2-0.5-1.7-0.9c-0.4-0.4-0.7-0.9-0.7-1.5c0-0.3,0-0.6,0.2-0.9c0.1-0.2,0.4-0.3,0.6-0.3c0.2,0,0.4,0.1,0.6,0.2  c0.2,0.2,0.2,0.5,0.2,0.8v1.4h0.9v-1.4c0-0.3,0-0.5,0.2-0.8c0.1-0.2,0.3-0.3,0.6-0.3c0.2,0,0.4,0.1,0.5,0.3c0.2,0.2,0.2,0.5,0.2,0.8  v1.4h0.9v-1.4c0-0.3,0-0.5,0.2-0.8c0.1-0.2,0.3-0.3,0.5-0.2c0.2,0,0.5,0.1,0.6,0.3c0.2,0.3,0.2,0.7,0.2,1.1c0,0.3,0,0.6-0.1,0.9  c-0.1,0.3-0.2,0.5-0.4,0.8l0,0l0.8,0.4l0,0c0.2-0.3,0.4-0.6,0.5-1c0.1-0.4,0.2-0.8,0.2-1.1c0-0.6-0.1-1.2-0.5-1.6  C79.3,23.9,78.9,23.7,78.4,23.7"/>
<path id="svg_11" class="st0" d="M85.9,23.7c-0.5,0-1,0.2-1.4,0.5c-0.2-0.2-0.4-0.3-0.6-0.4c-0.2-0.1-0.5-0.1-0.7-0.1  c-0.3,0-0.7,0.1-1,0.2c-0.3,0.2-0.5,0.4-0.7,0.7c-0.2,0.4-0.3,0.8-0.2,1.2c0,0.6,0.2,1.3,0.6,1.8c0.3,0.4,0.8,0.8,1.3,1  c-0.3,0-0.7,0.1-1,0.2l0,0l0.3,0.8l0,0c0.2-0.1,0.5-0.2,0.7-0.3c0.3-0.1,0.5-0.1,0.8-0.1c0.3,0,0.6,0.1,0.9,0.2  c0.2,0.1,0.4,0.3,0.6,0.5l0,0h0.9l0-0.1c-0.1-0.2-0.2-0.5-0.4-0.7c-0.2-0.2-0.4-0.3-0.6-0.4c-0.2-0.1-0.6-0.2-1-0.4  c-0.5-0.2-1-0.5-1.4-0.9c-0.4-0.4-0.6-1-0.5-1.6c0-0.4,0.1-0.8,0.3-1.1c0.2-0.2,0.4-0.3,0.7-0.3c0.2,0,0.3,0,0.4,0.1  c0.1,0.1,0.3,0.1,0.4,0.2c-0.2,0.4-0.2,0.8-0.2,1.2c0,0.6,0.2,1.1,0.5,1.6c0.4,0.4,0.9,0.6,1.5,0.6c0.6,0,1.1-0.2,1.5-0.6  c0.4-0.4,0.6-1,0.5-1.6c0-0.6-0.2-1.2-0.5-1.6C87,23.9,86.5,23.7,85.9,23.7 M86.9,26c0,0.4-0.1,0.8-0.3,1.1c-0.4,0.4-1,0.5-1.4,0.1  c-0.1,0-0.1-0.1-0.1-0.1c-0.2-0.3-0.3-0.7-0.3-1.1c0-1,0.3-1.5,1-1.5C86.6,24.4,86.9,25,86.9,26"/>
<path id="svg_12" class="st0" d="M91.1,23.7c-0.6,0-1.2,0.2-1.6,0.7C89.2,25,89,25.7,89,26.5c0,0.7,0.1,1.3,0.2,2  c0.1,0.5,0.3,1,0.5,1.5l0,0h0.9l0-0.1c-0.2-0.5-0.4-1-0.5-1.6c-0.1-0.6-0.2-1.2-0.2-1.9c0-0.4,0-0.8,0.1-1.2  c0.1-0.2,0.2-0.5,0.4-0.6c0.2-0.1,0.4-0.2,0.7-0.2c0.4,0,0.7,0.2,0.9,0.5c0.2,0.5,0.3,1,0.3,1.5c0,0.6,0,1.2-0.2,1.8  c-0.1,0.5-0.3,1.1-0.5,1.6l0,0.1h0.9l0,0c0.2-0.5,0.4-1,0.5-1.5c0.1-0.6,0.2-1.3,0.2-2c0.1-0.8-0.1-1.5-0.6-2.1  C92.3,23.9,91.7,23.7,91.1,23.7"/>
<path id="svg_13" class="st0" d="M97.9,25.7c-0.3-0.2-0.7-0.3-1-0.3c-0.3,0-0.5,0.1-0.8,0.2c-0.2,0.1-0.4,0.2-0.5,0.3v-0.8  c0-0.2,0-0.4,0.2-0.5c0.1-0.1,0.3-0.2,0.5-0.2c0.2,0,0.4,0,0.6,0.1c0,0,0.1,0,0.2,0h0c0.1,0,0.3,0,0.4,0c0.3,0,0.6,0,0.8-0.1l0,0  l-0.1-0.7l-0.1,0c-0.2,0.1-0.5,0.1-0.7,0.1c-0.2,0-0.3,0-0.5-0.1c-0.2,0-0.5-0.1-0.8-0.1c-0.4,0-0.8,0.1-1.2,0.3  c-0.3,0.3-0.5,0.7-0.4,1.1v2.6c0,0.6,0.2,1.2,0.5,1.6c0.4,0.4,1,0.6,1.5,0.6c0.4,0,0.8-0.1,1.1-0.3c0.3-0.2,0.5-0.5,0.7-0.8  c0.2-0.4,0.2-0.8,0.2-1.2c0-0.4-0.1-0.8-0.2-1.1C98.4,26.2,98.2,25.9,97.9,25.7 M97.8,27.6c0,0.4-0.1,0.8-0.3,1.2  c-0.2,0.3-0.5,0.4-0.8,0.4c-0.3,0-0.7-0.1-0.9-0.4c-0.2-0.3-0.3-0.7-0.3-1.1v-1c0.3-0.3,0.7-0.5,1.1-0.5c0.3,0,0.6,0.1,0.8,0.4  C97.7,26.9,97.8,27.2,97.8,27.6"/>
<path id="svg_14" class="st0" d="M103,25.9c0.2-0.1,0.4-0.3,0.5-0.4c0.1-0.2,0.2-0.4,0.2-0.6c0-0.3-0.2-0.7-0.4-0.8  c-0.4-0.2-0.8-0.3-1.2-0.3c-0.4,0-0.9,0.1-1.2,0.3c-0.3,0.2-0.5,0.5-0.5,0.9c0,0.2,0,0.3,0.1,0.4l0,0l0.8-0.2v0c0-0.1,0-0.2,0-0.2  c0-0.2,0.1-0.3,0.2-0.4c0.2-0.1,0.4-0.2,0.6-0.1c0.2,0,0.4,0,0.5,0.1c0.1,0.1,0.2,0.2,0.2,0.3c0,0.1,0,0.2-0.1,0.3  c-0.1,0.1-0.2,0.2-0.3,0.2c-0.2,0.1-0.4,0.2-0.7,0.3c-0.5,0.2-0.9,0.5-1.3,0.9c-0.3,0.4-0.4,0.8-0.4,1.3c0,0.3,0.1,0.7,0.2,1  c0.2,0.3,0.4,0.6,0.7,0.8c0.4,0.2,0.8,0.3,1.2,0.3c0.4,0,0.8-0.1,1.2-0.3c0.3-0.2,0.6-0.5,0.7-0.8c0.2-0.3,0.2-0.7,0.2-1  c0-0.4-0.1-0.8-0.4-1.2C103.6,26.4,103.3,26.1,103,25.9 M103.3,27.9c0,0.4-0.1,0.7-0.3,1c-0.5,0.5-1.3,0.5-1.8,0  c-0.2-0.3-0.3-0.6-0.3-0.9c0-0.2,0-0.5,0.1-0.7c0.1-0.2,0.2-0.4,0.4-0.5c0.2-0.2,0.5-0.3,0.8-0.4l0.1,0  C102.9,26.6,103.3,27.2,103.3,27.9"/>
<path id="svg_15" class="st0" d="M109.1,24.4c-0.4-0.4-1-0.7-1.5-0.7c-0.6,0-1.2,0.2-1.6,0.7c-0.4,0.6-0.6,1.4-0.5,2.1  c0,0.7,0.1,1.3,0.2,2c0.1,0.5,0.3,1,0.5,1.5l0,0h0.9l0-0.1c-0.2-0.5-0.4-1-0.5-1.6c-0.1-0.6-0.2-1.2-0.2-1.9c0-0.4,0-0.8,0.1-1.2  c0.1-0.2,0.2-0.5,0.4-0.6c0.2-0.1,0.4-0.2,0.7-0.2c0.4,0,0.7,0.2,0.9,0.5c0.2,0.5,0.3,1,0.3,1.5c0,0.6-0.1,1.2-0.2,1.8  c-0.1,0.5-0.3,1.1-0.5,1.6l0,0.1h0.9l0,0c0.2-0.5,0.4-1,0.5-1.5c0.1-0.6,0.2-1.3,0.2-2C109.7,25.7,109.5,25,109.1,24.4"/>
<rect id="svg_16" x="0" y="26.5" class="st1" width="53.9" height="0.8"/>
</svg>