<svg version="1.1" id="Layer_1" xmlns="http://www.w3.org/2000/svg" xmlns:xlink="http://www.w3.org/1999/xlink" x="0px" y="0px"
	 width="100%" viewBox="0 0 1028 356" enable-background="new 0 0 1028 356" xml:space="preserve">
<path fill="#B74398" opacity="1.000000" stroke="none" 
	d="
M687.000000,357.000000 
	C458.000000,357.000000 229.500000,357.000000 1.000000,357.000000 
	C1.000000,238.333328 1.000000,119.666664 1.000000,1.000000 
	C343.666656,1.000000 686.333313,1.000000 1029.000000,1.000000 
	C1029.000000,119.666664 1029.000000,238.333328 1029.000000,357.000000 
	C915.166687,357.000000 801.333313,357.000000 687.000000,357.000000 
M265.257385,233.210709 
	C258.212250,241.589706 264.174377,259.303925 273.739960,267.648773 
	C280.566040,273.603821 287.218719,274.632568 292.856110,270.340790 
	C274.206970,268.168488 262.881531,252.342346 266.819672,233.055344 
	C266.785767,232.802963 266.751862,232.550583 266.717957,232.298203 
	C266.437103,232.488220 266.156219,232.678223 265.257385,233.210709 
M218.924271,239.963074 
	C200.017471,243.004257 186.755081,227.646240 187.327881,201.877502 
	C185.816147,204.348679 184.690048,205.696320 184.089554,207.247437 
	C178.149582,222.590469 192.398224,244.009735 208.905869,244.334869 
	C212.984589,244.415222 217.508377,244.392090 219.848343,239.875137 
	C219.848343,239.875137 220.078354,239.881592 220.078354,239.881592 
	C220.078354,239.881592 219.810303,239.791672 218.924271,239.963074 
M117.335075,135.122177 
	C112.210487,139.971832 111.940819,145.990631 113.740471,152.163483 
	C117.426430,164.806366 130.683167,174.585388 143.764359,174.313919 
	C146.757095,174.251801 149.726837,173.080505 152.707153,172.419693 
	C152.611420,171.998764 152.515686,171.577835 152.419952,171.156906 
	C151.435974,171.051208 150.454422,170.905121 149.467667,170.845734 
	C128.258911,169.569321 115.943466,155.550034 118.345818,135.013611 
	C118.361046,134.802078 118.376282,134.590530 118.391525,134.378998 
	C118.270561,134.600235 118.149597,134.821472 117.335075,135.122177 
M158.925354,277.647308 
	C160.345856,287.854950 165.796265,295.265442 174.125900,301.204163 
	C187.021408,310.398102 209.905457,299.827820 211.623718,286.548553 
	C212.770264,277.687714 211.716125,269.418121 205.598618,262.698273 
	C201.370270,258.053650 196.391510,254.066284 191.579834,249.983490 
	C178.288300,238.705444 169.744217,224.950516 169.102982,207.110397 
	C168.469849,189.495789 178.814606,179.804886 196.280029,181.911362 
	C212.878662,183.913300 224.720093,193.401154 233.379257,207.123718 
	C245.781021,226.777374 243.907837,242.696442 227.982513,259.698944 
	C225.620132,262.221130 223.706879,265.778046 223.023315,269.147827 
	C220.608871,281.050232 226.912552,294.426239 237.174469,300.975586 
	C245.277802,306.147308 253.502686,304.297119 260.893616,300.324066 
	C267.535583,296.753540 269.518799,289.398071 268.000580,282.444122 
	C266.508881,275.611786 263.992279,268.634613 260.303192,262.735535 
	C254.530960,253.505402 252.271194,243.737717 252.862503,233.250824 
	C253.899292,214.864014 266.724182,208.590424 282.116913,218.557892 
	C285.022461,220.439362 288.102753,222.548401 291.379883,223.242554 
	C296.342896,224.293793 301.975708,224.981567 305.934845,220.839828 
	C309.643036,216.960617 309.492493,211.583527 307.205750,207.212372 
	C304.104004,201.283401 300.732849,195.062012 295.988403,190.521912 
	C287.769257,182.656754 277.545624,185.465347 273.143219,195.784439 
	C272.947174,196.243942 272.782684,196.717438 272.575043,197.171417 
	C268.701416,205.641830 263.438141,208.265350 254.468903,205.409988 
	C233.776489,198.822464 221.547287,183.769119 217.458771,163.324493 
	C213.844269,145.250244 221.515030,136.539536 238.859634,141.095520 
	C240.291550,141.471634 241.626984,142.221527 242.999939,142.814713 
	C253.047974,147.155853 259.426849,155.523376 266.234497,163.547958 
	C269.291016,167.150864 272.987762,170.578552 277.082947,172.835922 
	C281.808502,175.440765 287.457581,174.938889 291.697784,171.492294 
	C295.838806,168.126282 294.669800,162.969818 292.746765,158.963135 
	C290.482361,154.245270 287.611389,149.507858 283.935913,145.852203 
	C278.689789,140.634399 272.323212,137.389359 264.482361,141.267975 
	C263.196411,141.904099 261.193207,141.512283 259.640778,141.121613 
	C245.890564,137.661255 235.453522,129.497437 227.745926,117.833626 
	C222.210846,109.457451 218.272995,100.624725 221.998062,90.156662 
	C222.610489,88.435631 222.382721,86.064857 221.724655,84.299522 
	C217.520309,73.020889 209.623749,65.756218 197.675491,63.367172 
	C193.969437,62.626144 190.886536,63.800152 188.736221,67.279533 
	C185.060303,73.227554 186.063644,79.778145 192.296066,86.145920 
	C196.018875,89.949577 200.177139,93.323204 204.058075,96.976799 
	C211.136841,103.640938 216.322998,111.622566 218.492065,121.077339 
	C221.190414,132.839157 217.856750,143.803482 201.928986,143.000397 
	C182.811935,142.036530 157.712891,120.461632 153.995346,101.546265 
	C151.659103,89.659164 153.329483,86.711128 164.821274,82.447945 
	C165.602127,82.158264 166.397491,81.906723 167.173172,81.604256 
	C173.375702,79.185699 176.696304,71.957840 174.502304,65.666809 
	C171.086914,55.873589 157.271591,45.509502 146.949997,45.072060 
	C143.102585,44.909008 139.416824,45.614773 137.647354,49.511292 
	C135.322067,54.631767 134.067459,59.964058 137.114532,65.308601 
	C138.677872,68.050713 140.485794,70.653351 142.050217,73.394897 
	C147.894058,83.635857 149.218552,98.280785 130.462906,101.504494 
	C117.493546,103.733673 105.966576,99.437698 94.851395,92.950081 
	C88.463203,89.221474 81.667183,85.255157 74.570366,83.860367 
	C56.456959,80.300385 49.264614,91.033318 50.825745,106.974846 
	C51.979900,118.760490 60.934345,125.271385 71.363747,129.339279 
	C81.314873,133.220627 90.648216,132.680634 98.279808,124.102318 
	C104.770805,116.806099 113.043991,113.382317 122.645065,113.341537 
	C134.221283,113.292358 144.516541,117.418358 153.665634,124.249954 
	C166.279709,133.668854 175.552185,145.553223 176.668259,161.788971 
	C177.657578,176.180801 171.197678,187.409073 154.623779,187.740707 
	C147.499329,187.883255 140.071487,186.268295 133.225555,184.069321 
	C119.926392,179.797546 111.168098,169.584213 103.231110,158.683090 
	C97.867287,151.316101 91.038414,146.015411 82.228249,143.397507 
	C72.066078,140.377853 59.822937,143.168716 55.418621,150.474197 
	C47.996891,162.784653 46.005970,170.901978 54.642345,182.787827 
	C63.593872,195.107407 79.975281,199.987915 94.305542,194.636002 
	C99.945450,192.529648 105.394836,190.397858 111.696365,191.242249 
	C125.332474,193.069443 137.204987,198.266235 147.265701,207.810623 
	C160.695938,220.551575 168.999359,244.350784 160.899750,261.699554 
	C158.845093,266.100494 159.456253,271.746033 158.925354,277.647308 
M363.059418,170.498886 
	C363.059418,157.410675 363.059418,144.322464 363.059418,131.207581 
	C357.982239,131.207581 353.595276,131.207581 349.139557,131.207581 
	C349.139557,151.701721 348.762238,171.828247 349.407867,191.921890 
	C349.567017,196.874390 352.151459,202.388260 355.182190,206.490707 
	C364.727295,219.411102 378.501343,220.756104 392.932159,217.964050 
	C407.873169,215.073242 416.574982,205.010239 417.034698,189.786774 
	C417.597260,171.157700 417.394775,152.505310 417.483002,133.862808 
	C417.487335,132.946503 417.108215,132.028412 416.938171,131.250824 
	C412.214874,131.250824 407.827362,131.250824 403.087830,131.250824 
	C403.087830,149.129395 403.124298,166.586395 403.075470,184.043137 
	C403.041016,196.352371 397.524170,202.353409 385.257812,203.622009 
	C372.372040,204.954651 363.176544,196.827240 363.067535,183.984100 
	C363.032227,179.822327 363.060333,175.660034 363.059418,170.498886 
M480.473267,146.181290 
	C484.063873,146.181290 487.654449,146.181290 491.293884,146.181290 
	C491.293884,140.654694 491.293884,135.932434 491.293884,130.820389 
	C482.750153,130.820389 474.605347,130.782944 466.461243,130.841766 
	C463.801270,130.860962 461.114197,130.933609 458.488892,131.318634 
	C443.095734,133.576263 432.503693,141.797119 430.953857,157.196320 
	C428.929108,177.314438 429.726227,197.716751 429.337585,217.997330 
	C429.332550,218.259552 429.700195,218.528915 429.920166,218.830978 
	C434.314178,218.830978 438.724152,218.830978 443.674500,218.830978 
	C443.674500,208.529953 443.920349,198.562149 443.567322,188.615601 
	C443.399261,183.879700 444.636566,182.278397 449.590607,182.419327 
	C462.072998,182.774445 474.573517,182.617493 487.063171,182.427444 
	C488.575989,182.404434 491.253082,181.052094 491.362335,180.086395 
	C491.839233,175.870987 491.567474,171.570892 491.567474,166.841248 
	C475.261505,166.841248 459.669983,166.841248 444.104401,166.841248 
	C443.771912,155.225723 451.095947,147.085922 462.500732,146.338898 
	C468.141113,145.969421 473.821716,146.214493 480.473267,146.181290 
M553.494568,146.169739 
	C558.113708,146.169739 562.732849,146.169739 567.632874,146.169739 
	C567.632874,140.871109 567.632874,136.143158 567.632874,131.788773 
	C554.431396,131.788773 541.453186,131.015915 528.611511,132.008926 
	C516.091736,132.977036 508.185791,141.165359 504.311615,152.803604 
	C499.553223,167.098236 499.640076,181.630020 503.936127,196.046555 
	C507.341614,207.474640 514.702942,215.833633 526.591064,217.455841 
	C539.973389,219.281937 553.628357,219.110321 567.499573,219.824921 
	C567.499573,213.846985 567.499573,209.121536 567.499573,203.830414 
	C565.399597,203.830414 563.611450,203.830978 561.823303,203.830322 
	C552.826965,203.827011 543.829285,203.919128 534.834656,203.793518 
	C525.469177,203.662704 519.817017,199.483215 517.227905,190.507111 
	C514.401917,180.709579 514.357666,170.741684 516.901794,160.886017 
	C519.545593,150.644241 524.866821,146.537781 535.504211,146.212357 
	C541.163391,146.039230 546.831970,146.173981 553.494568,146.169739 
M109.068695,264.477509 
	C121.593391,269.094299 132.829727,266.838379 138.711456,258.526123 
	C112.129227,267.789795 87.604042,241.690445 97.052147,217.055969 
	C94.431305,220.266266 91.672363,223.578491 90.370903,227.388580 
	C85.556938,241.481583 93.036125,256.376495 109.068695,264.477509 
M656.847229,136.492950 
	C653.572083,145.521149 656.273682,152.596756 664.269836,157.758682 
	C662.678711,159.059647 661.462036,160.054428 660.245422,161.049194 
	C664.527588,161.530258 668.590332,159.978195 672.395935,160.459396 
	C676.312805,160.954681 679.979004,163.432495 683.754883,165.042831 
	C684.075195,164.393402 684.395508,163.743973 684.715820,163.094528 
	C681.738037,161.339798 678.876038,159.331558 675.749146,157.903244 
	C672.755737,156.535904 669.312744,156.122559 666.376587,154.666367 
	C660.706543,151.854446 657.719360,145.605118 659.523682,140.142303 
	C660.064392,138.505142 662.336121,136.339294 663.736267,136.394836 
	C665.145874,136.450760 667.074219,138.757446 667.658569,140.460953 
	C668.412964,142.660049 668.058350,145.239532 668.181274,147.655212 
	C668.614563,147.798294 669.047852,147.941360 669.481140,148.084442 
	C670.051758,147.084503 670.935425,146.139465 671.122437,145.072296 
	C671.434937,143.289658 670.878052,141.270569 671.484070,139.648834 
	C672.014832,138.228470 673.641052,137.217484 674.783386,136.025650 
	C675.895630,137.215591 677.522217,138.233566 677.991943,139.638367 
	C678.599976,141.456650 678.092102,143.619965 678.458496,145.560394 
	C678.614685,146.387680 679.767273,147.026825 680.467102,147.751465 
	C680.954895,147.014832 681.656921,146.335724 681.874207,145.526443 
	C682.124939,144.593033 681.980591,143.543762 681.950745,142.546524 
	C681.854797,139.338745 682.143799,136.283127 686.309753,136.119385 
	C689.501709,135.993927 691.486328,139.222260 690.768250,143.585159 
	C690.242615,146.778595 689.238159,149.893234 688.142212,154.257523 
	C690.085999,153.151581 692.016296,152.666855 692.151489,151.875488 
	C692.946594,147.220596 693.889893,142.452606 693.549133,137.813400 
	C693.421143,136.071243 690.053528,133.324570 688.041260,133.212021 
	C683.286804,132.946121 678.480835,134.843185 673.631958,133.068130 
	C673.055115,132.856995 672.149841,133.758530 671.358093,133.870041 
	C670.093506,134.048157 668.585327,134.446655 667.550537,133.961639 
	C663.575256,132.098495 660.174255,132.401733 656.847229,136.492950 
M848.814758,158.588135 
	C847.564331,158.150604 846.319153,157.697189 845.062561,157.278168 
	C837.399963,154.722839 832.877380,147.555649 835.012146,140.316727 
	C835.517700,138.602356 838.266235,136.605560 840.118103,136.460129 
	C842.697571,136.257553 843.674194,138.425217 843.388184,141.368027 
	C843.124512,144.081772 843.496765,147.059387 844.391968,149.642487 
	C846.368103,155.344788 854.229614,156.607803 858.226379,152.102600 
	C861.493408,148.419968 861.629456,139.566559 858.478516,135.694702 
	C855.510376,132.047516 851.267273,131.869537 845.470093,134.492981 
	C841.884399,133.917877 837.941345,132.959595 834.815430,134.148941 
	C830.442322,135.812836 830.247742,140.685501 831.128601,144.550354 
	C832.179504,149.161591 834.402100,153.505814 836.184814,158.141525 
	C835.659912,158.520752 834.367493,159.454422 833.075134,160.388107 
	C833.178406,160.889053 833.281677,161.389984 833.384949,161.890915 
	C836.880493,161.376358 840.526489,160.000305 843.831482,160.577225 
	C847.509949,161.219345 850.877991,163.639496 854.381165,165.285629 
	C854.689636,164.786667 854.998047,164.287704 855.306519,163.788742 
	C853.362000,162.173325 851.417542,160.557892 848.814758,158.588135 
M909.251404,154.185104 
	C910.198792,155.263947 911.146118,156.342789 912.065002,157.389236 
	C910.553589,158.479385 909.265991,159.408066 907.978455,160.336731 
	C908.077759,160.769455 908.177002,161.202164 908.276306,161.634872 
	C911.808350,161.134659 915.503967,159.754059 918.828430,160.371597 
	C922.450989,161.044510 925.729309,163.570709 930.254883,165.838898 
	C927.971313,159.953262 923.994385,158.688080 920.054932,157.345901 
	C912.433716,154.749390 907.509888,147.142029 909.682922,140.416306 
	C910.254333,138.647598 912.910828,136.649017 914.805481,136.427124 
	C917.519775,136.109253 918.552246,138.413834 918.126282,141.260544 
	C917.860046,143.039459 917.934631,144.939224 918.236633,146.720261 
	C919.138428,152.038025 922.689148,155.078857 927.362000,154.775162 
	C931.918152,154.479065 934.763245,151.479218 935.251709,146.098618 
	C935.444641,143.973007 935.380554,141.752594 934.987854,139.658966 
	C933.911804,133.923203 928.443115,130.913559 923.242920,133.614532 
	C920.781433,134.893036 919.337341,134.596527 917.029358,133.547928 
	C911.620605,131.090546 906.031128,134.322388 906.070862,140.279053 
	C906.100464,144.718536 907.845215,149.146591 909.251404,154.185104 
M939.836243,137.555817 
	C936.341064,146.109283 938.500977,154.604691 940.283691,163.051315 
	C940.468018,163.924683 942.266479,164.457382 944.153503,165.699387 
	C943.829285,163.395020 943.670959,162.587646 943.608093,161.772903 
	C943.098938,155.175369 942.180054,148.564102 942.369873,141.985428 
	C942.427307,139.996490 945.572693,138.096695 947.303589,136.156067 
	C948.621094,138.046814 950.701904,139.792084 951.095764,141.858826 
	C951.894104,146.048172 951.778992,150.411575 952.040466,154.703232 
	C952.504883,154.928116 952.969299,155.153015 953.433716,155.377914 
	C954.039795,154.260147 955.042542,153.188965 955.180298,152.016190 
	C955.663086,147.906479 955.563782,143.709686 956.306396,139.659805 
	C956.552307,138.318985 958.639099,136.462982 959.949219,136.408615 
	C961.272888,136.353699 963.489380,137.998886 963.883240,139.324585 
	C964.809937,142.443680 965.353638,145.839355 965.194763,149.081085 
	C964.938660,154.306061 963.991821,159.497192 963.150330,166.183899 
	C965.044128,164.539062 966.681824,163.812683 966.772583,162.927673 
	C967.496399,155.869141 968.923340,148.677597 968.205139,141.726196 
	C967.222168,132.212326 960.587769,130.222946 953.372009,136.431580 
	C948.548828,131.377228 944.729919,131.496262 939.836243,137.555817 
M697.743225,142.559921 
	C697.867065,147.487427 697.393372,152.525345 698.277893,157.312302 
	C699.217285,162.396530 703.082886,165.022644 708.436340,165.170761 
	C713.879700,165.321365 718.912781,163.049881 719.713257,158.144089 
	C720.671082,152.274139 720.399963,146.027130 719.550781,140.102585 
	C719.008118,136.316864 711.069458,131.198807 708.578857,132.333862 
	C704.164368,134.345642 699.181396,136.048172 697.743225,142.559921 
M675.215149,203.518768 
	C675.711365,206.455231 675.919006,209.478500 676.770203,212.308167 
	C678.106873,216.751633 681.398071,219.041336 686.038879,219.360275 
	C690.903870,219.694611 695.216370,218.343567 697.394531,213.799820 
	C700.645447,207.018265 700.730774,199.893448 697.275757,193.134277 
	C694.597839,187.895248 688.557739,186.195694 683.214050,188.374771 
	C676.676270,191.040787 675.716309,196.677765 675.215149,203.518768 
M621.448608,165.146393 
	C627.109741,164.267960 629.539124,162.062973 629.850098,156.549789 
	C630.167542,150.921509 630.447693,145.195831 629.715210,139.648666 
	C629.404968,137.298950 626.869995,134.209488 624.633911,133.382782 
	C621.014771,132.044693 616.613647,131.828857 613.631409,135.438095 
	C612.894958,136.329407 613.221497,138.099030 613.059387,139.464905 
	C614.178406,138.937378 615.248413,138.186569 616.426453,137.928253 
	C618.969177,137.370697 621.747131,136.356415 624.070129,136.944977 
	C625.306763,137.258270 625.795227,140.524445 626.999451,143.342377 
	C617.703979,140.959290 613.146545,143.153244 611.865051,149.416656 
	C610.003967,158.512711 613.002991,163.903061 621.448608,165.146393 
M732.662048,190.031693 
	C738.068359,190.689682 738.736328,191.592300 737.808777,196.986267 
	C729.430969,195.775269 725.256714,197.377136 724.207520,202.872345 
	C723.598694,206.060776 723.643005,209.556885 724.250366,212.751602 
	C725.159424,217.533600 728.786133,219.435089 733.471130,219.402023 
	C738.195740,219.368683 741.304199,216.805496 741.674988,212.324860 
	C742.208008,205.883682 742.207397,199.352859 741.822205,192.896866 
	C741.557068,188.455215 736.773743,186.112244 730.839233,187.078308 
	C727.198975,187.670883 724.153748,189.079681 725.122498,194.565460 
	C727.668335,192.856033 729.758850,191.452332 732.662048,190.031693 
M635.513550,136.037216 
	C642.321838,136.483414 638.695312,142.534637 641.088318,146.509918 
	C642.049744,145.174301 643.007019,144.321182 643.329102,143.272919 
	C643.706482,142.044510 643.210022,140.514801 643.683960,139.358047 
	C644.176025,138.157059 645.374939,137.245682 646.264709,136.207626 
	C647.170471,137.203812 648.822021,138.173126 648.859131,139.200607 
	C649.074158,145.169067 649.128418,151.163742 648.786621,157.123718 
	C648.598206,160.409271 645.965027,162.560181 642.940735,161.705093 
	C640.977478,161.149994 639.108398,158.626190 638.180542,156.545837 
	C637.394043,154.782440 638.018433,152.389801 638.018433,149.386459 
	C636.457458,150.257950 634.821228,150.800583 634.853699,151.211227 
	C635.143738,154.878693 634.739807,159.164658 636.555115,161.959946 
	C637.878967,163.998459 642.231750,164.782089 645.253662,164.827530 
	C649.132568,164.885864 651.872925,161.970001 652.127686,158.166672 
	C652.580383,151.408600 652.669006,144.580551 652.173523,137.835892 
	C652.046143,136.101791 649.371887,133.515289 647.517029,133.162216 
	C643.555237,132.408096 639.362732,132.790314 635.268372,132.878006 
	C634.517273,132.894104 633.783508,133.718811 633.041748,134.170288 
	C633.596191,134.785080 634.150574,135.399887 635.513550,136.037216 
M807.275757,153.595764 
	C806.038391,149.864197 804.801025,146.132629 803.563660,142.401077 
	C802.688721,139.598831 802.724426,135.387787 800.873718,134.253067 
	C798.641174,132.884155 794.748718,133.828156 791.708679,134.438400 
	C790.914673,134.597794 790.530212,137.213120 790.162598,138.749557 
	C790.084045,139.077774 790.895386,139.618927 791.296753,140.061966 
	C792.125244,139.268234 792.852905,138.310806 793.808105,137.722855 
	C794.959717,137.013931 796.273804,136.353638 797.578796,136.203445 
	C798.196960,136.132309 799.616150,137.420944 799.529663,137.876404 
	C799.270935,139.237885 798.752808,140.853577 797.761902,141.689529 
	C796.713074,142.574341 794.966736,142.583221 793.591309,143.138702 
	C788.174866,145.326187 785.932800,151.379272 787.893066,158.361664 
	C789.335083,163.498184 793.192810,165.811508 799.054688,165.054886 
	C804.322083,164.374969 806.606995,161.403442 807.275757,153.595764 
M804.359741,214.795181 
	C804.627258,208.378372 805.467834,201.918900 804.994263,195.557266 
	C804.557739,189.694183 801.000916,186.881531 796.416138,187.025162 
	C792.137451,187.159225 788.417542,190.138840 788.228699,195.510437 
	C787.975525,202.713425 788.936401,209.971161 789.633545,217.180481 
	C789.723206,218.107483 791.353577,218.885483 792.270203,219.732513 
	C792.650024,219.440826 793.029846,219.149139 793.409668,218.857437 
	C792.789307,215.476196 791.784546,212.111115 791.641418,208.709793 
	C791.441284,203.956589 791.530273,199.122101 792.247742,194.437592 
	C792.492432,192.840515 795.176636,190.323242 796.447815,190.490738 
	C798.206482,190.722473 800.539612,192.829712 801.090576,194.609344 
	C802.043274,197.686844 802.198730,201.154037 801.992920,204.413803 
	C801.684326,209.300247 800.774353,214.148727 800.120178,219.013367 
	C800.598450,219.288712 801.076721,219.564056 801.554993,219.839401 
	C802.429138,218.418747 803.303284,216.998108 804.359741,214.795181 
M633.223206,208.141129 
	C634.857361,219.103119 634.857361,219.103119 638.939026,218.821579 
	C638.531067,216.701126 637.882935,214.618576 637.771912,212.507767 
	C637.468994,206.746887 636.999878,200.942566 637.459045,195.224731 
	C637.602173,193.442352 640.497559,191.880951 642.132996,190.218384 
	C643.753845,191.859650 646.290894,193.262146 646.794495,195.194595 
	C647.691467,198.636261 647.696167,202.421280 647.453369,206.020828 
	C647.158142,210.396881 646.220947,214.729645 645.561462,219.081146 
	C647.467468,219.012222 648.902710,218.387283 649.172607,217.432785 
	C651.415955,209.499603 652.346680,201.458954 650.057556,193.349319 
	C648.935913,189.375702 646.263916,187.083984 642.092712,187.074707 
	C637.887695,187.065369 634.933594,189.447556 634.208984,193.397873 
	C633.379822,197.918869 633.458740,202.606461 633.223206,208.141129 
M731.886047,136.411026 
	C735.567505,135.634598 737.278381,137.941940 737.821472,140.884521 
	C738.445923,144.267593 738.729065,147.809738 738.482056,151.233856 
	C738.154724,155.771271 737.170105,160.261276 736.238525,166.245270 
	C738.242065,164.768127 739.980286,164.120590 740.039673,163.344620 
	C740.628479,155.649445 741.382019,147.919952 741.155151,140.227707 
	C741.029114,135.950790 737.980896,132.957260 733.174316,132.906723 
	C728.102234,132.853378 725.030334,136.010605 724.891907,140.480698 
	C724.658630,148.012527 725.444580,155.586990 726.082947,163.119705 
	C726.156677,163.990082 728.017273,164.709030 729.938232,166.177765 
	C728.936157,159.802322 727.817566,154.946732 727.503540,150.039673 
	C727.202087,145.328400 726.786316,140.292206 731.886047,136.411026 
M712.242737,190.197601 
	C713.817139,191.804642 716.545227,193.278488 716.749023,195.043777 
	C717.354492,200.288010 717.071106,205.649734 716.928650,210.960007 
	C716.837830,214.342941 714.805847,216.053131 711.441833,216.077194 
	C708.073303,216.101288 706.147034,214.463760 705.931213,211.024658 
	C705.820618,209.262878 705.757812,207.498093 705.629578,204.819382 
	C704.106445,205.837021 702.886658,206.205994 702.497131,206.988327 
	C700.676819,210.644455 703.487244,217.160248 707.391296,218.724731 
	C712.804199,220.893875 719.317261,218.699921 719.882935,213.624725 
	C720.664673,206.610626 720.538025,199.404266 719.913940,192.358780 
	C719.541382,188.152374 714.508301,186.103073 709.558594,187.126175 
	C705.220215,188.022934 702.786316,191.163345 703.550903,195.386963 
	C703.754089,196.509842 705.087769,197.428085 705.902405,198.440292 
	C707.155701,194.304245 706.574463,190.551224 712.242737,190.197601 
M755.289490,187.026703 
	C748.902466,187.320404 745.999207,189.498871 746.180481,194.344238 
	C746.232422,195.732010 747.572266,197.071579 748.321594,198.433243 
	C748.772217,198.189407 749.222900,197.945572 749.673523,197.701736 
	C749.741333,197.235123 749.881714,196.765915 749.865234,196.302292 
	C749.747986,193.002396 750.294800,190.105484 754.468567,190.168167 
	C758.485840,190.228500 759.890503,192.798416 759.885071,196.455521 
	C759.878235,201.106018 759.971191,205.759705 759.826294,210.405945 
	C759.718872,213.851120 758.013367,216.019470 754.291626,216.102814 
	C750.558655,216.186386 748.855469,214.148300 748.593689,210.640793 
	C748.519836,209.651306 748.785583,208.595184 748.526062,207.673676 
	C748.310608,206.908951 747.552246,206.297150 747.034363,205.617630 
	C746.379395,206.212006 745.081116,206.939301 745.172058,207.379578 
	C745.853088,210.676056 745.829285,215.075089 747.942566,216.860306 
	C750.238098,218.799423 754.686646,219.035492 758.039856,218.650528 
	C761.748169,218.224762 763.234802,214.732803 763.304932,211.151169 
	C763.408813,205.841507 763.264648,200.525848 763.168335,195.213791 
	C763.084045,190.567352 760.835144,187.738281 755.289490,187.026703 
M885.034607,157.246506 
	C887.096741,164.194946 890.548645,166.507278 896.527527,164.945068 
	C901.592957,163.621536 904.408691,157.346298 902.763000,149.926804 
	C902.262146,147.668808 900.899231,144.617203 899.106873,143.846710 
	C895.912903,142.473740 892.090881,142.561569 887.943665,141.952103 
	C887.943665,139.507660 887.943665,136.261734 887.943665,132.859192 
	C884.258728,134.288010 883.968994,136.978516 885.034607,157.246506 
M667.280396,214.773209 
	C662.572021,218.340790 657.694092,214.244949 657.903748,209.235977 
	C658.208252,201.962845 657.981873,194.667511 657.981873,187.381638 
	C657.520569,187.141312 657.059326,186.900986 656.598022,186.660675 
	C655.795471,187.586517 654.304871,188.508072 654.299072,189.438873 
	C654.252686,196.910431 654.028015,204.430115 654.777588,211.842056 
	C655.393677,217.933777 661.377441,220.916840 667.142273,218.863052 
	C672.929321,216.801346 674.770996,207.758347 670.678345,202.265015 
	C668.821106,199.772141 667.356628,196.986618 665.597473,194.145630 
	C662.478088,195.039978 662.013611,198.249344 665.608459,201.952011 
	C669.216736,205.668503 670.062256,209.550369 667.280396,214.773209 
M778.177429,195.997192 
	C777.423218,190.603485 774.814636,187.454590 770.029602,187.574509 
	C771.404114,189.554825 772.795105,190.903000 773.323730,192.531158 
	C773.735107,193.798248 773.612061,196.184952 772.801331,196.752472 
	C766.527222,201.144791 764.294189,207.347961 767.798157,214.217926 
	C768.942139,216.460876 772.038879,218.800766 774.433289,219.020798 
	C777.089172,219.264847 780.847534,217.896912 782.574219,215.893555 
	C787.490417,210.189453 785.159912,200.506561 778.177429,195.997192 
M750.310242,159.893005 
	C749.852478,157.654556 749.073120,155.426605 748.999634,153.175613 
	C748.809448,147.349106 749.014038,141.510010 748.843567,135.682251 
	C748.815735,134.733185 747.679993,133.816528 747.056335,132.884918 
	C746.418030,133.813675 745.247620,134.730911 745.227234,135.673065 
	C745.086670,142.168182 745.064026,148.671997 745.250610,155.165924 
	C745.379028,159.636398 747.073486,163.448563 751.776978,164.763168 
	C755.505310,165.805206 759.146240,165.280136 761.737976,161.995895 
	C764.436401,158.576401 764.493774,152.377914 762.115051,148.746582 
	C760.225891,145.862640 758.404236,142.934555 756.299072,139.627945 
	C753.056458,140.535049 754.134827,143.273178 755.225220,145.553513 
	C756.064575,147.308624 758.424927,148.592789 758.694519,150.308640 
	C759.199280,153.520676 759.614990,157.336060 758.321350,160.075851 
	C757.022766,162.826065 753.522034,162.439209 750.310242,159.893005 
M614.153320,216.167206 
	C618.817444,220.024109 624.212097,220.423218 627.620605,217.163559 
	C631.099060,213.837021 631.068848,206.075012 627.825500,201.961319 
	C626.372681,200.118683 625.506531,197.821808 624.282288,195.786377 
	C623.859436,195.083328 623.158569,194.547531 622.584717,193.935349 
	C622.054565,194.613129 620.944946,195.476044 621.092285,195.937332 
	C621.815125,198.199966 623.043884,200.300720 623.769897,202.562668 
	C624.778198,205.703979 626.071350,208.939117 626.064819,212.131653 
	C626.062195,213.446762 622.896729,215.910522 621.354187,215.773712 
	C619.445129,215.604370 617.289856,213.572342 616.072876,211.780151 
	C615.180603,210.466064 615.519714,208.243622 615.498596,206.423828 
	C615.436829,201.104904 615.587769,195.780212 615.377319,190.468765 
	C615.328125,189.227356 614.178772,188.029510 613.535583,186.811630 
	C613.013794,187.038864 612.492065,187.266113 611.970276,187.493347 
	C611.970276,192.959503 611.754150,198.437134 612.043152,203.887970 
	C612.249817,207.785538 613.133911,211.647186 614.153320,216.167206 
M91.856888,74.553375 
	C88.030075,69.557823 85.718193,64.092232 87.229836,56.994812 
	C82.983055,61.350353 82.207840,65.358452 84.956589,71.058250 
	C90.832939,83.243507 100.763252,90.028687 114.197113,91.189194 
	C117.639923,91.486603 121.214790,90.255272 124.728989,89.726273 
	C124.638573,89.281723 124.548164,88.837173 124.457748,88.392624 
	C112.001373,89.581299 101.061180,85.076057 91.856888,74.553375 
M828.301514,150.834976 
	C828.586426,143.059937 821.084961,139.401459 818.764587,132.985519 
	C818.706299,132.824371 817.322754,133.142548 815.194031,133.405701 
	C817.322327,136.973892 818.606689,140.234772 820.831421,142.617828 
	C824.968262,147.049026 825.947815,152.030533 823.911194,157.318420 
	C823.152405,159.288498 820.410767,161.473663 818.408203,161.646362 
	C817.043030,161.764130 814.502991,158.757950 814.067200,156.797623 
	C813.337341,153.514221 813.867798,149.950668 813.867798,146.505035 
	C813.451477,146.283401 813.035156,146.061768 812.618835,145.840134 
	C811.764893,146.815079 810.210938,147.771027 810.183838,148.768417 
	C810.090027,152.222351 810.204590,155.752380 810.851135,159.136642 
	C811.530457,162.692184 813.905090,164.949203 817.776978,165.194260 
	C822.009155,165.462082 825.505920,164.111588 826.957947,159.933823 
	C827.864441,157.325745 827.912170,154.419266 828.301514,150.834976 
M867.664307,158.377563 
	C867.345764,154.448517 867.027161,150.519470 866.636902,145.707062 
	C865.434814,146.507462 863.853760,147.024109 863.782227,147.700470 
	C863.471191,150.639679 863.258972,153.670135 863.641052,156.584839 
	C864.406067,162.421799 867.006470,165.042923 871.481201,165.201096 
	C877.034302,165.397385 880.306580,162.893234 881.184448,156.749939 
	C881.686157,153.239243 881.966125,149.139145 880.624451,146.052750 
	C878.581909,141.354019 875.071167,137.286850 872.088928,133.017776 
	C871.883240,132.723236 870.889221,132.979294 868.417664,132.979294 
	C870.713928,136.894684 871.968506,140.279404 874.259705,142.671219 
	C878.521729,147.120605 878.819702,152.165253 877.370728,157.454712 
	C876.895569,159.189316 874.852783,161.334137 873.203918,161.660721 
	C871.691406,161.960327 869.743713,160.063324 867.664307,158.377563 
M780.905029,149.158218 
	C780.906860,151.320175 781.155884,153.517456 780.853271,155.635925 
	C780.381836,158.936157 779.107605,162.076538 775.088745,161.932510 
	C770.980530,161.785309 770.181335,158.481689 769.995972,155.161926 
	C769.833252,152.247650 769.961975,149.317093 769.961975,146.393723 
	C769.549133,146.218536 769.136353,146.043350 768.723511,145.868164 
	C767.960266,146.809616 766.526001,147.768692 766.550171,148.689484 
	C766.653687,152.631989 766.517700,156.805450 767.820679,160.405548 
	C768.572937,162.484039 771.911072,164.901337 774.066956,164.883926 
	C776.951660,164.860626 781.062012,163.403793 782.449402,161.187439 
	C785.982605,155.543167 785.938843,149.161636 782.297058,143.226562 
	C780.324707,140.011978 778.282288,136.830215 776.064148,133.784653 
	C775.591980,133.136383 774.220032,133.143433 773.262634,132.848557 
	C772.893555,133.185364 772.524475,133.522171 772.155396,133.858978 
	C773.523438,136.527802 774.775208,139.265106 776.294617,141.844818 
	C777.625977,144.105225 779.257751,146.188675 780.905029,149.158218 
M197.013092,130.861237 
	C198.139114,130.477264 199.265137,130.093292 200.675629,129.612335 
	C182.824814,126.729149 172.308701,117.239288 170.478027,98.728600 
	C163.942429,111.871544 178.611923,129.651459 197.013092,130.861237 
M227.224869,165.325012 
	C230.297501,181.150726 241.482544,191.841217 254.694016,190.596756 
	C239.147537,183.954910 227.867691,174.933456 230.436813,156.384003 
	C230.021622,156.335129 229.606430,156.286240 229.191238,156.237366 
	C228.516159,158.990936 227.841080,161.744522 227.224869,165.325012 
M237.349152,118.023102 
	C235.072144,112.629654 232.795120,107.236206 230.814789,102.545486 
	C228.236755,108.964737 234.120468,121.293137 242.586090,123.688606 
	C240.654663,121.611084 239.239166,120.088531 237.349152,118.023102 
M202.510651,128.420364 
	C202.510651,128.420364 202.570923,128.522476 202.510651,128.420364 
z"/>
<path fill="#FEFCFD" opacity="1.000000" stroke="none" 
	d="
M158.883926,277.233490 
	C159.456253,271.746033 158.845093,266.100494 160.899750,261.699554 
	C168.999359,244.350784 160.695938,220.551575 147.265701,207.810623 
	C137.204987,198.266235 125.332474,193.069443 111.696365,191.242249 
	C105.394836,190.397858 99.945450,192.529648 94.305542,194.636002 
	C79.975281,199.987915 63.593872,195.107407 54.642345,182.787827 
	C46.005970,170.901978 47.996891,162.784653 55.418621,150.474197 
	C59.822937,143.168716 72.066078,140.377853 82.228249,143.397507 
	C91.038414,146.015411 97.867287,151.316101 103.231110,158.683090 
	C111.168098,169.584213 119.926392,179.797546 133.225555,184.069321 
	C140.071487,186.268295 147.499329,187.883255 154.623779,187.740707 
	C171.197678,187.409073 177.657578,176.180801 176.668259,161.788971 
	C175.552185,145.553223 166.279709,133.668854 153.665634,124.249954 
	C144.516541,117.418358 134.221283,113.292358 122.645065,113.341537 
	C113.043991,113.382317 104.770805,116.806099 98.279808,124.102318 
	C90.648216,132.680634 81.314873,133.220627 71.363747,129.339279 
	C60.934345,125.271385 51.979900,118.760490 50.825745,106.974846 
	C49.264614,91.033318 56.456959,80.300385 74.570366,83.860367 
	C81.667183,85.255157 88.463203,89.221474 94.851395,92.950081 
	C105.966576,99.437698 117.493546,103.733673 130.462906,101.504494 
	C149.218552,98.280785 147.894058,83.635857 142.050217,73.394897 
	C140.485794,70.653351 138.677872,68.050713 137.114532,65.308601 
	C134.067459,59.964058 135.322067,54.631767 137.647354,49.511292 
	C139.416824,45.614773 143.102585,44.909008 146.949997,45.072060 
	C157.271591,45.509502 171.086914,55.873589 174.502304,65.666809 
	C176.696304,71.957840 173.375702,79.185699 167.173172,81.604256 
	C166.397491,81.906723 165.602127,82.158264 164.821274,82.447945 
	C153.329483,86.711128 151.659103,89.659164 153.995346,101.546265 
	C157.712891,120.461632 182.811935,142.036530 201.928986,143.000397 
	C217.856750,143.803482 221.190414,132.839157 218.492065,121.077339 
	C216.322998,111.622566 211.136841,103.640938 204.058075,96.976799 
	C200.177139,93.323204 196.018875,89.949577 192.296066,86.145920 
	C186.063644,79.778145 185.060303,73.227554 188.736221,67.279533 
	C190.886536,63.800152 193.969437,62.626144 197.675491,63.367172 
	C209.623749,65.756218 217.520309,73.020889 221.724655,84.299522 
	C222.382721,86.064857 222.610489,88.435631 221.998062,90.156662 
	C218.272995,100.624725 222.210846,109.457451 227.745926,117.833626 
	C235.453522,129.497437 245.890564,137.661255 259.640778,141.121613 
	C261.193207,141.512283 263.196411,141.904099 264.482361,141.267975 
	C272.323212,137.389359 278.689789,140.634399 283.935913,145.852203 
	C287.611389,149.507858 290.482361,154.245270 292.746765,158.963135 
	C294.669800,162.969818 295.838806,168.126282 291.697784,171.492294 
	C287.457581,174.938889 281.808502,175.440765 277.082947,172.835922 
	C272.987762,170.578552 269.291016,167.150864 266.234497,163.547958 
	C259.426849,155.523376 253.047974,147.155853 242.999939,142.814713 
	C241.626984,142.221527 240.291550,141.471634 238.859634,141.095520 
	C221.515030,136.539536 213.844269,145.250244 217.458771,163.324493 
	C221.547287,183.769119 233.776489,198.822464 254.468903,205.409988 
	C263.438141,208.265350 268.701416,205.641830 272.575043,197.171417 
	C272.782684,196.717438 272.947174,196.243942 273.143219,195.784439 
	C277.545624,185.465347 287.769257,182.656754 295.988403,190.521912 
	C300.732849,195.062012 304.104004,201.283401 307.205750,207.212372 
	C309.492493,211.583527 309.643036,216.960617 305.934845,220.839828 
	C301.975708,224.981567 296.342896,224.293793 291.379883,223.242554 
	C288.102753,222.548401 285.022461,220.439362 282.116913,218.557892 
	C266.724182,208.590424 253.899292,214.864014 252.862503,233.250824 
	C252.271194,243.737717 254.530960,253.505402 260.303192,262.735535 
	C263.992279,268.634613 266.508881,275.611786 268.000580,282.444122 
	C269.518799,289.398071 267.535583,296.753540 260.893616,300.324066 
	C253.502686,304.297119 245.277802,306.147308 237.174469,300.975586 
	C226.912552,294.426239 220.608871,281.050232 223.023315,269.147827 
	C223.706879,265.778046 225.620132,262.221130 227.982513,259.698944 
	C243.907837,242.696442 245.781021,226.777374 233.379257,207.123718 
	C224.720093,193.401154 212.878662,183.913300 196.280029,181.911362 
	C178.814606,179.804886 168.469849,189.495789 169.102982,207.110397 
	C169.744217,224.950516 178.288300,238.705444 191.579834,249.983490 
	C196.391510,254.066284 201.370270,258.053650 205.598618,262.698273 
	C211.716125,269.418121 212.770264,277.687714 211.623718,286.548553 
	C209.905457,299.827820 187.021408,310.398102 174.125900,301.204163 
	C165.796265,295.265442 160.345856,287.854950 158.883926,277.233490 
z"/>
<path fill="#FEFDFE" opacity="1.000000" stroke="none" 
	d="
M363.059418,170.998428 
	C363.060333,175.660034 363.032227,179.822327 363.067535,183.984100 
	C363.176544,196.827240 372.372040,204.954651 385.257812,203.622009 
	C397.524170,202.353409 403.041016,196.352371 403.075470,184.043137 
	C403.124298,166.586395 403.087830,149.129395 403.087830,131.250824 
	C407.827362,131.250824 412.214874,131.250824 416.938171,131.250824 
	C417.108215,132.028412 417.487335,132.946503 417.483002,133.862808 
	C417.394775,152.505310 417.597260,171.157700 417.034698,189.786774 
	C416.574982,205.010239 407.873169,215.073242 392.932159,217.964050 
	C378.501343,220.756104 364.727295,219.411102 355.182190,206.490707 
	C352.151459,202.388260 349.567017,196.874390 349.407867,191.921890 
	C348.762238,171.828247 349.139557,151.701721 349.139557,131.207581 
	C353.595276,131.207581 357.982239,131.207581 363.059418,131.207581 
	C363.059418,144.322464 363.059418,157.410675 363.059418,170.998428 
z"/>
<path fill="#FDFAFC" opacity="1.000000" stroke="none" 
	d="
M479.978699,146.181396 
	C473.821716,146.214493 468.141113,145.969421 462.500732,146.338898 
	C451.095947,147.085922 443.771912,155.225723 444.104401,166.841248 
	C459.669983,166.841248 475.261505,166.841248 491.567474,166.841248 
	C491.567474,171.570892 491.839233,175.870987 491.362335,180.086395 
	C491.253082,181.052094 488.575989,182.404434 487.063171,182.427444 
	C474.573517,182.617493 462.072998,182.774445 449.590607,182.419327 
	C444.636566,182.278397 443.399261,183.879700 443.567322,188.615601 
	C443.920349,198.562149 443.674500,208.529953 443.674500,218.830978 
	C438.724152,218.830978 434.314178,218.830978 429.920166,218.830978 
	C429.700195,218.528915 429.332550,218.259552 429.337585,217.997330 
	C429.726227,197.716751 428.929108,177.314438 430.953857,157.196320 
	C432.503693,141.797119 443.095734,133.576263 458.488892,131.318634 
	C461.114197,130.933609 463.801270,130.860962 466.461243,130.841766 
	C474.605347,130.782944 482.750153,130.820389 491.293884,130.820389 
	C491.293884,135.932434 491.293884,140.654694 491.293884,146.181290 
	C487.654449,146.181290 484.063873,146.181290 479.978699,146.181396 
z"/>
<path fill="#FEFDFE" opacity="1.000000" stroke="none" 
	d="
M552.995483,146.169739 
	C546.831970,146.173981 541.163391,146.039230 535.504211,146.212357 
	C524.866821,146.537781 519.545593,150.644241 516.901794,160.886017 
	C514.357666,170.741684 514.401917,180.709579 517.227905,190.507111 
	C519.817017,199.483215 525.469177,203.662704 534.834656,203.793518 
	C543.829285,203.919128 552.826965,203.827011 561.823303,203.830322 
	C563.611450,203.830978 565.399597,203.830414 567.499573,203.830414 
	C567.499573,209.121536 567.499573,213.846985 567.499573,219.824921 
	C553.628357,219.110321 539.973389,219.281937 526.591064,217.455841 
	C514.702942,215.833633 507.341614,207.474640 503.936127,196.046555 
	C499.640076,181.630020 499.553223,167.098236 504.311615,152.803604 
	C508.185791,141.165359 516.091736,132.977036 528.611511,132.008926 
	C541.453186,131.015915 554.431396,131.788773 567.632874,131.788773 
	C567.632874,136.143158 567.632874,140.871109 567.632874,146.169739 
	C562.732849,146.169739 558.113708,146.169739 552.995483,146.169739 
z"/>
<path fill="#FCF7FB" opacity="1.000000" stroke="none" 
	d="
M108.719498,264.325073 
	C93.036125,256.376495 85.556938,241.481583 90.370903,227.388580 
	C91.672363,223.578491 94.431305,220.266266 97.052147,217.055969 
	C87.604042,241.690445 112.129227,267.789795 138.711456,258.526123 
	C132.829727,266.838379 121.593391,269.094299 108.719498,264.325073 
z"/>
<path fill="#FAF2F8" opacity="1.000000" stroke="none" 
	d="
M657.039917,136.151825 
	C660.174255,132.401733 663.575256,132.098495 667.550537,133.961639 
	C668.585327,134.446655 670.093506,134.048157 671.358093,133.870041 
	C672.149841,133.758530 673.055115,132.856995 673.631958,133.068130 
	C678.480835,134.843185 683.286804,132.946121 688.041260,133.212021 
	C690.053528,133.324570 693.421143,136.071243 693.549133,137.813400 
	C693.889893,142.452606 692.946594,147.220596 692.151489,151.875488 
	C692.016296,152.666855 690.085999,153.151581 688.142212,154.257523 
	C689.238159,149.893234 690.242615,146.778595 690.768250,143.585159 
	C691.486328,139.222260 689.501709,135.993927 686.309753,136.119385 
	C682.143799,136.283127 681.854797,139.338745 681.950745,142.546524 
	C681.980591,143.543762 682.124939,144.593033 681.874207,145.526443 
	C681.656921,146.335724 680.954895,147.014832 680.467102,147.751465 
	C679.767273,147.026825 678.614685,146.387680 678.458496,145.560394 
	C678.092102,143.619965 678.599976,141.456650 677.991943,139.638367 
	C677.522217,138.233566 675.895630,137.215591 674.783386,136.025650 
	C673.641052,137.217484 672.014832,138.228470 671.484070,139.648834 
	C670.878052,141.270569 671.434937,143.289658 671.122437,145.072296 
	C670.935425,146.139465 670.051758,147.084503 669.481140,148.084442 
	C669.047852,147.941360 668.614563,147.798294 668.181274,147.655212 
	C668.058350,145.239532 668.412964,142.660049 667.658569,140.460953 
	C667.074219,138.757446 665.145874,136.450760 663.736267,136.394836 
	C662.336121,136.339294 660.064392,138.505142 659.523682,140.142303 
	C657.719360,145.605118 660.706543,151.854446 666.376587,154.666367 
	C669.312744,156.122559 672.755737,156.535904 675.749146,157.903244 
	C678.876038,159.331558 681.738037,161.339798 684.715820,163.094528 
	C684.395508,163.743973 684.075195,164.393402 683.754883,165.042831 
	C679.979004,163.432495 676.312805,160.954681 672.395935,160.459396 
	C668.590332,159.978195 664.527588,161.530258 660.245422,161.049194 
	C661.462036,160.054428 662.678711,159.059647 664.269836,157.758682 
	C656.273682,152.596756 653.572083,145.521149 657.039917,136.151825 
z"/>
<path fill="#F9F1F7" opacity="1.000000" stroke="none" 
	d="
M849.143921,158.765289 
	C851.417542,160.557892 853.362000,162.173325 855.306519,163.788742 
	C854.998047,164.287704 854.689636,164.786667 854.381165,165.285629 
	C850.877991,163.639496 847.509949,161.219345 843.831482,160.577225 
	C840.526489,160.000305 836.880493,161.376358 833.384949,161.890915 
	C833.281677,161.389984 833.178406,160.889053 833.075134,160.388107 
	C834.367493,159.454422 835.659912,158.520752 836.184814,158.141525 
	C834.402100,153.505814 832.179504,149.161591 831.128601,144.550354 
	C830.247742,140.685501 830.442322,135.812836 834.815430,134.148941 
	C837.941345,132.959595 841.884399,133.917877 845.470093,134.492981 
	C851.267273,131.869537 855.510376,132.047516 858.478516,135.694702 
	C861.629456,139.566559 861.493408,148.419968 858.226379,152.102600 
	C854.229614,156.607803 846.368103,155.344788 844.391968,149.642487 
	C843.496765,147.059387 843.124512,144.081772 843.388184,141.368027 
	C843.674194,138.425217 842.697571,136.257553 840.118103,136.460129 
	C838.266235,136.605560 835.517700,138.602356 835.012146,140.316727 
	C832.877380,147.555649 837.399963,154.722839 845.062561,157.278168 
	C846.319153,157.697189 847.564331,158.150604 849.143921,158.765289 
M848.687927,137.325134 
	C848.267761,140.934326 847.135559,144.644455 847.628967,148.124100 
	C848.115784,151.557083 851.420959,151.918701 854.351135,150.673462 
	C857.058899,149.522720 858.421875,143.096497 856.696167,139.409027 
	C855.205688,136.224228 852.659912,135.232437 848.687927,137.325134 
z"/>
<path fill="#FAF2F8" opacity="1.000000" stroke="none" 
	d="
M909.038818,153.882416 
	C907.845215,149.146591 906.100464,144.718536 906.070862,140.279053 
	C906.031128,134.322388 911.620605,131.090546 917.029358,133.547928 
	C919.337341,134.596527 920.781433,134.893036 923.242920,133.614532 
	C928.443115,130.913559 933.911804,133.923203 934.987854,139.658966 
	C935.380554,141.752594 935.444641,143.973007 935.251709,146.098618 
	C934.763245,151.479218 931.918152,154.479065 927.362000,154.775162 
	C922.689148,155.078857 919.138428,152.038025 918.236633,146.720261 
	C917.934631,144.939224 917.860046,143.039459 918.126282,141.260544 
	C918.552246,138.413834 917.519775,136.109253 914.805481,136.427124 
	C912.910828,136.649017 910.254333,138.647598 909.682922,140.416306 
	C907.509888,147.142029 912.433716,154.749390 920.054932,157.345901 
	C923.994385,158.688080 927.971313,159.953262 930.254883,165.838898 
	C925.729309,163.570709 922.450989,161.044510 918.828430,160.371597 
	C915.503967,159.754059 911.808350,161.134659 908.276306,161.634872 
	C908.177002,161.202164 908.077759,160.769455 907.978455,160.336731 
	C909.265991,159.408066 910.553589,158.479385 912.065002,157.389236 
	C911.146118,156.342789 910.198792,155.263947 909.038818,153.882416 
M928.947388,150.824982 
	C933.268860,147.670471 932.523865,143.310623 931.271057,139.200836 
	C930.317383,136.072098 925.542908,134.660965 924.149536,137.140350 
	C922.489807,140.093750 922.096497,144.098053 922.215393,147.611115 
	C922.322693,150.778748 925.133728,151.647263 928.947388,150.824982 
z"/>
<path fill="#FAF3F8" opacity="1.000000" stroke="none" 
	d="
M940.002808,137.199463 
	C944.729919,131.496262 948.548828,131.377228 953.372009,136.431580 
	C960.587769,130.222946 967.222168,132.212326 968.205139,141.726196 
	C968.923340,148.677597 967.496399,155.869141 966.772583,162.927673 
	C966.681824,163.812683 965.044128,164.539062 963.150330,166.183899 
	C963.991821,159.497192 964.938660,154.306061 965.194763,149.081085 
	C965.353638,145.839355 964.809937,142.443680 963.883240,139.324585 
	C963.489380,137.998886 961.272888,136.353699 959.949219,136.408615 
	C958.639099,136.462982 956.552307,138.318985 956.306396,139.659805 
	C955.563782,143.709686 955.663086,147.906479 955.180298,152.016190 
	C955.042542,153.188965 954.039795,154.260147 953.433716,155.377914 
	C952.969299,155.153015 952.504883,154.928116 952.040466,154.703232 
	C951.778992,150.411575 951.894104,146.048172 951.095764,141.858826 
	C950.701904,139.792084 948.621094,138.046814 947.303589,136.156067 
	C945.572693,138.096695 942.427307,139.996490 942.369873,141.985428 
	C942.180054,148.564102 943.098938,155.175369 943.608093,161.772903 
	C943.670959,162.587646 943.829285,163.395020 944.153503,165.699387 
	C942.266479,164.457382 940.468018,163.924683 940.283691,163.051315 
	C938.500977,154.604691 936.341064,146.109283 940.002808,137.199463 
z"/>
<path fill="#FAF2F8" opacity="1.000000" stroke="none" 
	d="
M697.837891,142.162460 
	C699.181396,136.048172 704.164368,134.345642 708.578857,132.333862 
	C711.069458,131.198807 719.008118,136.316864 719.550781,140.102585 
	C720.399963,146.027130 720.671082,152.274139 719.713257,158.144089 
	C718.912781,163.049881 713.879700,165.321365 708.436340,165.170761 
	C703.082886,165.022644 699.217285,162.396530 698.277893,157.312302 
	C697.393372,152.525345 697.867065,147.487427 697.837891,142.162460 
M707.335938,138.241516 
	C703.864746,135.958878 702.468811,139.481461 702.220154,141.079483 
	C701.447083,146.047501 701.047546,151.202927 701.510132,156.192276 
	C701.867737,160.050034 705.054016,161.974701 709.087952,161.950943 
	C713.135254,161.927109 716.089478,159.895157 716.649048,156.076279 
	C717.286560,151.725693 717.368652,147.143784 716.703369,142.814377 
	C716.361145,140.587357 713.870056,138.690567 712.020020,136.200348 
	C711.259277,137.612259 711.125122,137.745911 711.123596,137.881073 
	C711.085938,141.199585 711.222290,144.531036 710.958435,147.830658 
	C710.851257,149.170990 709.878601,150.442108 709.299744,151.744736 
	C708.609314,150.356201 707.461182,149.010574 707.326172,147.569992 
	C707.064331,144.776642 707.372192,141.929886 707.335938,138.241516 
z"/>
<path fill="#FBF4F9" opacity="1.000000" stroke="none" 
	d="
M675.216553,203.082245 
	C675.716309,196.677765 676.676270,191.040787 683.214050,188.374771 
	C688.557739,186.195694 694.597839,187.895248 697.275757,193.134277 
	C700.730774,199.893448 700.645447,207.018265 697.394531,213.799820 
	C695.216370,218.343567 690.903870,219.694611 686.038879,219.360275 
	C681.398071,219.041336 678.106873,216.751633 676.770203,212.308167 
	C675.919006,209.478500 675.711365,206.455231 675.216553,203.082245 
M680.361511,211.796753 
	C683.769897,216.310028 688.381348,217.227600 692.346863,214.546692 
	C697.387573,211.138809 697.725037,193.701401 690.776978,191.560547 
	C690.364075,191.433319 689.857666,191.609665 689.384094,191.645538 
	C689.384094,195.404175 689.510620,199.056580 689.303406,202.689941 
	C689.244629,203.721191 688.212646,204.696930 687.626953,205.698120 
	C687.017517,204.734406 685.937500,203.796814 685.882324,202.802322 
	C685.674011,199.048218 685.798645,195.275650 685.798645,191.509995 
	C685.369324,191.237228 684.940002,190.964447 684.510681,190.691666 
	C682.950867,192.741440 680.352539,194.648483 680.047119,196.870682 
	C679.410156,201.505280 679.985046,206.306442 680.361511,211.796753 
z"/>
<path fill="#FCF6FA" opacity="1.000000" stroke="none" 
	d="
M117.935661,134.939819 
	C115.943466,155.550034 128.258911,169.569321 149.467667,170.845734 
	C150.454422,170.905121 151.435974,171.051208 152.419952,171.156906 
	C152.515686,171.577835 152.611420,171.998764 152.707153,172.419693 
	C149.726837,173.080505 146.757095,174.251801 143.764359,174.313919 
	C130.683167,174.585388 117.426430,164.806366 113.740471,152.163483 
	C111.940819,145.990631 112.210487,139.971832 117.658936,135.056427 
	C117.982796,134.990677 117.935661,134.939819 117.935661,134.939819 
z"/>
<path fill="#FAF2F8" opacity="1.000000" stroke="none" 
	d="
M621.032959,165.146942 
	C613.002991,163.903061 610.003967,158.512711 611.865051,149.416656 
	C613.146545,143.153244 617.703979,140.959290 626.999451,143.342377 
	C625.795227,140.524445 625.306763,137.258270 624.070129,136.944977 
	C621.747131,136.356415 618.969177,137.370697 616.426453,137.928253 
	C615.248413,138.186569 614.178406,138.937378 613.059387,139.464905 
	C613.221497,138.099030 612.894958,136.329407 613.631409,135.438095 
	C616.613647,131.828857 621.014771,132.044693 624.633911,133.382782 
	C626.869995,134.209488 629.404968,137.298950 629.715210,139.648666 
	C630.447693,145.195831 630.167542,150.921509 629.850098,156.549789 
	C629.539124,162.062973 627.109741,164.267960 621.032959,165.146942 
M624.599915,147.258286 
	C621.799561,144.564728 617.861816,144.268112 616.674377,147.531815 
	C615.349365,151.173691 616.158997,155.756653 616.776306,159.817993 
	C616.919556,160.760544 620.175537,162.001144 621.766907,161.731812 
	C623.305481,161.471405 625.577209,159.540833 625.710327,158.167786 
	C626.035400,154.814423 625.309998,151.359268 624.599915,147.258286 
z"/>
<path fill="#FBF4F9" opacity="1.000000" stroke="none" 
	d="
M219.750854,239.672791 
	C217.508377,244.392090 212.984589,244.415222 208.905869,244.334869 
	C192.398224,244.009735 178.149582,222.590469 184.089554,207.247437 
	C184.690048,205.696320 185.816147,204.348679 187.327881,201.877502 
	C186.755081,227.646240 200.017471,243.004257 219.349792,239.848969 
	C219.775330,239.734863 219.750854,239.672791 219.750854,239.672791 
z"/>
<path fill="#FBF4F9" opacity="1.000000" stroke="none" 
	d="
M732.255737,190.040161 
	C729.758850,191.452332 727.668335,192.856033 725.122498,194.565460 
	C724.153748,189.079681 727.198975,187.670883 730.839233,187.078308 
	C736.773743,186.112244 741.557068,188.455215 741.822205,192.896866 
	C742.207397,199.352859 742.208008,205.883682 741.674988,212.324860 
	C741.304199,216.805496 738.195740,219.368683 733.471130,219.402023 
	C728.786133,219.435089 725.159424,217.533600 724.250366,212.751602 
	C723.643005,209.556885 723.598694,206.060776 724.207520,202.872345 
	C725.256714,197.377136 729.430969,195.775269 737.808777,196.986267 
	C738.736328,191.592300 738.068359,190.689682 732.255737,190.040161 
M736.926941,201.765182 
	C734.693542,199.138824 731.763367,198.748535 729.489014,200.965622 
	C726.127563,204.242538 726.372559,208.762619 728.198730,212.592361 
	C729.011353,214.296616 731.921265,215.610489 734.023010,215.852325 
	C735.205750,215.988403 737.649780,213.703018 737.828674,212.293182 
	C738.233765,209.101059 737.587036,205.775452 736.926941,201.765182 
z"/>
<path fill="#F9F1F7" opacity="1.000000" stroke="none" 
	d="
M635.109253,136.025940 
	C634.150574,135.399887 633.596191,134.785080 633.041748,134.170288 
	C633.783508,133.718811 634.517273,132.894104 635.268372,132.878006 
	C639.362732,132.790314 643.555237,132.408096 647.517029,133.162216 
	C649.371887,133.515289 652.046143,136.101791 652.173523,137.835892 
	C652.669006,144.580551 652.580383,151.408600 652.127686,158.166672 
	C651.872925,161.970001 649.132568,164.885864 645.253662,164.827530 
	C642.231750,164.782089 637.878967,163.998459 636.555115,161.959946 
	C634.739807,159.164658 635.143738,154.878693 634.853699,151.211227 
	C634.821228,150.800583 636.457458,150.257950 638.018433,149.386459 
	C638.018433,152.389801 637.394043,154.782440 638.180542,156.545837 
	C639.108398,158.626190 640.977478,161.149994 642.940735,161.705093 
	C645.965027,162.560181 648.598206,160.409271 648.786621,157.123718 
	C649.128418,151.163742 649.074158,145.169067 648.859131,139.200607 
	C648.822021,138.173126 647.170471,137.203812 646.264709,136.207642 
	C645.374939,137.245682 644.176025,138.157059 643.683960,139.358047 
	C643.210022,140.514801 643.706482,142.044510 643.329102,143.272919 
	C643.007019,144.321182 642.049744,145.174301 641.088318,146.509918 
	C638.695312,142.534637 642.321838,136.483414 635.109253,136.025940 
z"/>
<path fill="#FBF4F9" opacity="1.000000" stroke="none" 
	d="
M807.270752,153.985947 
	C806.606995,161.403442 804.322083,164.374969 799.054688,165.054886 
	C793.192810,165.811508 789.335083,163.498184 787.893066,158.361664 
	C785.932800,151.379272 788.174866,145.326187 793.591309,143.138702 
	C794.966736,142.583221 796.713074,142.574341 797.761902,141.689529 
	C798.752808,140.853577 799.270935,139.237885 799.529663,137.876404 
	C799.616150,137.420944 798.196960,136.132309 797.578796,136.203445 
	C796.273804,136.353638 794.959717,137.013931 793.808105,137.722855 
	C792.852905,138.310806 792.125244,139.268234 791.296753,140.061966 
	C790.895386,139.618927 790.084045,139.077774 790.162598,138.749557 
	C790.530212,137.213120 790.914673,134.597794 791.708679,134.438400 
	C794.748718,133.828156 798.641174,132.884155 800.873718,134.253067 
	C802.724426,135.387787 802.688721,139.598831 803.563660,142.401077 
	C804.801025,146.132629 806.038391,149.864197 807.270752,153.985947 
M802.734924,159.013809 
	C802.865906,155.789078 803.610291,152.437256 802.975098,149.371277 
	C802.151489,145.396362 797.133850,144.079498 793.766296,146.424973 
	C790.715332,148.549957 789.858154,156.318802 792.301086,159.704880 
	C794.487244,162.735138 797.984192,162.718658 802.734924,159.013809 
z"/>
<path fill="#F9EFF6" opacity="1.000000" stroke="none" 
	d="
M804.268616,215.186325 
	C803.303284,216.998108 802.429138,218.418747 801.554993,219.839401 
	C801.076721,219.564056 800.598450,219.288712 800.120178,219.013367 
	C800.774353,214.148727 801.684326,209.300247 801.992920,204.413803 
	C802.198730,201.154037 802.043274,197.686844 801.090576,194.609344 
	C800.539612,192.829712 798.206482,190.722473 796.447815,190.490738 
	C795.176636,190.323242 792.492432,192.840515 792.247742,194.437592 
	C791.530273,199.122101 791.441284,203.956589 791.641418,208.709793 
	C791.784546,212.111115 792.789307,215.476196 793.409668,218.857437 
	C793.029846,219.149139 792.650024,219.440826 792.270203,219.732513 
	C791.353577,218.885483 789.723206,218.107483 789.633545,217.180481 
	C788.936401,209.971161 787.975525,202.713425 788.228699,195.510437 
	C788.417542,190.138840 792.137451,187.159225 796.416138,187.025162 
	C801.000916,186.881531 804.557739,189.694183 804.994263,195.557266 
	C805.467834,201.918900 804.627258,208.378372 804.268616,215.186325 
z"/>
<path fill="#F9EFF6" opacity="1.000000" stroke="none" 
	d="
M633.183228,207.681396 
	C633.458740,202.606461 633.379822,197.918869 634.208984,193.397873 
	C634.933594,189.447556 637.887695,187.065369 642.092712,187.074707 
	C646.263916,187.083984 648.935913,189.375702 650.057556,193.349319 
	C652.346680,201.458954 651.415955,209.499603 649.172607,217.432785 
	C648.902710,218.387283 647.467468,219.012222 645.561462,219.081146 
	C646.220947,214.729645 647.158142,210.396881 647.453369,206.020828 
	C647.696167,202.421280 647.691467,198.636261 646.794495,195.194595 
	C646.290894,193.262146 643.753845,191.859650 642.133057,190.218384 
	C640.497559,191.880951 637.602173,193.442352 637.459045,195.224731 
	C636.999878,200.942566 637.468994,206.746887 637.771912,212.507767 
	C637.882935,214.618576 638.531067,216.701126 638.939026,218.821579 
	C634.857361,219.103119 634.857361,219.103119 633.183228,207.681396 
z"/>
<path fill="#FBF4F9" opacity="1.000000" stroke="none" 
	d="
M731.545715,136.590118 
	C726.786316,140.292206 727.202087,145.328400 727.503540,150.039673 
	C727.817566,154.946732 728.936157,159.802322 729.938232,166.177765 
	C728.017273,164.709030 726.156677,163.990082 726.082947,163.119705 
	C725.444580,155.586990 724.658630,148.012527 724.891907,140.480698 
	C725.030334,136.010605 728.102234,132.853378 733.174316,132.906723 
	C737.980896,132.957260 741.029114,135.950790 741.155151,140.227707 
	C741.382019,147.919952 740.628479,155.649445 740.039673,163.344620 
	C739.980286,164.120590 738.242065,164.768127 736.238525,166.245270 
	C737.170105,160.261276 738.154724,155.771271 738.482056,151.233856 
	C738.729065,147.809738 738.445923,144.267593 737.821472,140.884521 
	C737.278381,137.941940 735.567505,135.634598 731.545715,136.590118 
z"/>
<path fill="#F8EEF5" opacity="1.000000" stroke="none" 
	d="
M711.848511,190.163269 
	C706.574463,190.551224 707.155701,194.304245 705.902405,198.440292 
	C705.087769,197.428085 703.754089,196.509842 703.550903,195.386963 
	C702.786316,191.163345 705.220215,188.022934 709.558594,187.126175 
	C714.508301,186.103073 719.541382,188.152374 719.913940,192.358780 
	C720.538025,199.404266 720.664673,206.610626 719.882935,213.624725 
	C719.317261,218.699921 712.804199,220.893875 707.391296,218.724731 
	C703.487244,217.160248 700.676819,210.644455 702.497131,206.988327 
	C702.886658,206.205994 704.106445,205.837021 705.629578,204.819382 
	C705.757812,207.498093 705.820618,209.262878 705.931213,211.024658 
	C706.147034,214.463760 708.073303,216.101288 711.441833,216.077194 
	C714.805847,216.053131 716.837830,214.342941 716.928650,210.960007 
	C717.071106,205.649734 717.354492,200.288010 716.749023,195.043777 
	C716.545227,193.278488 713.817139,191.804642 711.848511,190.163269 
z"/>
<path fill="#FAF3F8" opacity="1.000000" stroke="none" 
	d="
M755.698975,187.062042 
	C760.835144,187.738281 763.084045,190.567352 763.168335,195.213791 
	C763.264648,200.525848 763.408813,205.841507 763.304932,211.151169 
	C763.234802,214.732803 761.748169,218.224762 758.039856,218.650528 
	C754.686646,219.035492 750.238098,218.799423 747.942566,216.860306 
	C745.829285,215.075089 745.853088,210.676056 745.172058,207.379578 
	C745.081116,206.939301 746.379395,206.212006 747.034363,205.617615 
	C747.552246,206.297150 748.310608,206.908951 748.526062,207.673676 
	C748.785583,208.595184 748.519836,209.651306 748.593689,210.640793 
	C748.855469,214.148300 750.558655,216.186386 754.291626,216.102814 
	C758.013367,216.019470 759.718872,213.851120 759.826294,210.405945 
	C759.971191,205.759705 759.878235,201.106018 759.885071,196.455521 
	C759.890503,192.798416 758.485840,190.228500 754.468567,190.168167 
	C750.294800,190.105484 749.747986,193.002396 749.865234,196.302292 
	C749.881714,196.765915 749.741333,197.235123 749.673523,197.701736 
	C749.222900,197.945572 748.772217,198.189407 748.321594,198.433243 
	C747.572266,197.071579 746.232422,195.732010 746.180481,194.344238 
	C745.999207,189.498871 748.902466,187.320404 755.698975,187.062042 
z"/>
<path fill="#FCF6FA" opacity="1.000000" stroke="none" 
	d="
M885.001709,156.831299 
	C883.968994,136.978516 884.258728,134.288010 887.943665,132.859192 
	C887.943665,136.261734 887.943665,139.507660 887.943665,141.952103 
	C892.090881,142.561569 895.912903,142.473740 899.106873,143.846710 
	C900.899231,144.617203 902.262146,147.668808 902.763000,149.926804 
	C904.408691,157.346298 901.592957,163.621536 896.527527,164.945068 
	C890.548645,166.507278 887.096741,164.194946 885.001709,156.831299 
M888.388489,151.174835 
	C888.383667,152.828232 888.209717,154.502411 888.409607,156.130676 
	C888.812073,159.409393 890.307373,161.841064 894.032715,161.921265 
	C897.685791,161.999893 898.826172,159.474777 899.322449,156.478500 
	C899.564514,155.016571 899.769653,153.491440 899.618774,152.033463 
	C899.303772,148.988480 898.740234,145.849579 894.886292,145.405838 
	C891.279175,144.990570 889.360046,147.051041 888.388489,151.174835 
z"/>
<path fill="#F8EEF5" opacity="1.000000" stroke="none" 
	d="
M667.547485,214.466766 
	C670.062256,209.550369 669.216736,205.668503 665.608459,201.952011 
	C662.013611,198.249344 662.478088,195.039978 665.597473,194.145630 
	C667.356628,196.986618 668.821106,199.772141 670.678345,202.265015 
	C674.770996,207.758347 672.929321,216.801346 667.142273,218.863052 
	C661.377441,220.916840 655.393677,217.933777 654.777588,211.842056 
	C654.028015,204.430115 654.252686,196.910431 654.299072,189.438873 
	C654.304871,188.508072 655.795471,187.586517 656.598022,186.660675 
	C657.059326,186.900986 657.520569,187.141312 657.981873,187.381638 
	C657.981873,194.667511 658.208252,201.962845 657.903748,209.235977 
	C657.694092,214.244949 662.572021,218.340790 667.547485,214.466766 
z"/>
<path fill="#FAF2F8" opacity="1.000000" stroke="none" 
	d="
M778.380798,196.326889 
	C785.159912,200.506561 787.490417,210.189453 782.574219,215.893555 
	C780.847534,217.896912 777.089172,219.264847 774.433289,219.020798 
	C772.038879,218.800766 768.942139,216.460876 767.798157,214.217926 
	C764.294189,207.347961 766.527222,201.144791 772.801331,196.752472 
	C773.612061,196.184952 773.735107,193.798248 773.323730,192.531158 
	C772.795105,190.903000 771.404114,189.554825 770.029602,187.574509 
	C774.814636,187.454590 777.423218,190.603485 778.380798,196.326889 
M780.180725,213.348068 
	C780.452209,210.424469 781.014587,207.490921 780.915100,204.579987 
	C780.811340,201.542404 778.767090,199.193375 775.770630,199.940063 
	C773.664368,200.464905 771.508362,202.572891 770.353516,204.546738 
	C769.490601,206.021500 769.933960,208.452072 770.243530,210.385345 
	C771.163574,216.131851 774.863647,217.505142 780.180725,213.348068 
z"/>
<path fill="#F8EEF5" opacity="1.000000" stroke="none" 
	d="
M750.597290,160.179047 
	C753.522034,162.439209 757.022766,162.826065 758.321350,160.075851 
	C759.614990,157.336060 759.199280,153.520676 758.694519,150.308640 
	C758.424927,148.592789 756.064575,147.308624 755.225220,145.553513 
	C754.134827,143.273178 753.056458,140.535049 756.299072,139.627945 
	C758.404236,142.934555 760.225891,145.862640 762.115051,148.746582 
	C764.493774,152.377914 764.436401,158.576401 761.737976,161.995895 
	C759.146240,165.280136 755.505310,165.805206 751.776978,164.763168 
	C747.073486,163.448563 745.379028,159.636398 745.250610,155.165924 
	C745.064026,148.671997 745.086670,142.168182 745.227234,135.673065 
	C745.247620,134.730911 746.418030,133.813675 747.056396,132.884903 
	C747.679993,133.816528 748.815735,134.733185 748.843567,135.682251 
	C749.014038,141.510010 748.809448,147.349106 748.999634,153.175613 
	C749.073120,155.426605 749.852478,157.654556 750.597290,160.179047 
z"/>
<path fill="#FDFAFC" opacity="1.000000" stroke="none" 
	d="
M613.934509,215.846039 
	C613.133911,211.647186 612.249817,207.785538 612.043152,203.887970 
	C611.754150,198.437134 611.970276,192.959503 611.970276,187.493347 
	C612.492065,187.266113 613.013794,187.038864 613.535583,186.811630 
	C614.178772,188.029510 615.328125,189.227356 615.377319,190.468765 
	C615.587769,195.780212 615.436829,201.104904 615.498596,206.423828 
	C615.519714,208.243622 615.180603,210.466064 616.072876,211.780151 
	C617.289856,213.572342 619.445129,215.604370 621.354187,215.773712 
	C622.896729,215.910522 626.062195,213.446762 626.064819,212.131653 
	C626.071350,208.939117 624.778198,205.703979 623.769897,202.562668 
	C623.043884,200.300720 621.815125,198.199966 621.092285,195.937332 
	C620.944946,195.476044 622.054565,194.613129 622.584717,193.935349 
	C623.158569,194.547531 623.859436,195.083328 624.282288,195.786377 
	C625.506531,197.821808 626.372681,200.118683 627.825500,201.961319 
	C631.068848,206.075012 631.099060,213.837021 627.620605,217.163559 
	C624.212097,220.423218 618.817444,220.024109 613.934509,215.846039 
z"/>
<path fill="#F9F1F7" opacity="1.000000" stroke="none" 
	d="
M92.068398,74.847473 
	C101.061180,85.076057 112.001373,89.581299 124.457748,88.392624 
	C124.548164,88.837173 124.638573,89.281723 124.728989,89.726273 
	C121.214790,90.255272 117.639923,91.486603 114.197113,91.189194 
	C100.763252,90.028687 90.832939,83.243507 84.956589,71.058250 
	C82.207840,65.358452 82.983055,61.350353 87.229836,56.994812 
	C85.718193,64.092232 88.030075,69.557823 92.068398,74.847473 
z"/>
<path fill="#FAF2F8" opacity="1.000000" stroke="none" 
	d="
M828.323425,151.240845 
	C827.912170,154.419266 827.864441,157.325745 826.957947,159.933823 
	C825.505920,164.111588 822.009155,165.462082 817.776978,165.194260 
	C813.905090,164.949203 811.530457,162.692184 810.851135,159.136642 
	C810.204590,155.752380 810.090027,152.222351 810.183838,148.768417 
	C810.210938,147.771027 811.764893,146.815079 812.618835,145.840134 
	C813.035156,146.061768 813.451477,146.283401 813.867798,146.505035 
	C813.867798,149.950668 813.337341,153.514221 814.067200,156.797623 
	C814.502991,158.757950 817.043030,161.764130 818.408203,161.646362 
	C820.410767,161.473663 823.152405,159.288498 823.911194,157.318420 
	C825.947815,152.030533 824.968262,147.049026 820.831421,142.617828 
	C818.606689,140.234772 817.322327,136.973892 815.194031,133.405701 
	C817.322754,133.142548 818.706299,132.824371 818.764587,132.985519 
	C821.084961,139.401459 828.586426,143.059937 828.323425,151.240845 
z"/>
<path fill="#F9F1F7" opacity="1.000000" stroke="none" 
	d="
M867.826050,158.755859 
	C869.743713,160.063324 871.691406,161.960327 873.203918,161.660721 
	C874.852783,161.334137 876.895569,159.189316 877.370728,157.454712 
	C878.819702,152.165253 878.521729,147.120605 874.259705,142.671219 
	C871.968506,140.279404 870.713928,136.894684 868.417664,132.979294 
	C870.889221,132.979294 871.883240,132.723236 872.088928,133.017776 
	C875.071167,137.286850 878.581909,141.354019 880.624451,146.052750 
	C881.966125,149.139145 881.686157,153.239243 881.184448,156.749939 
	C880.306580,162.893234 877.034302,165.397385 871.481201,165.201096 
	C867.006470,165.042923 864.406067,162.421799 863.641052,156.584839 
	C863.258972,153.670135 863.471191,150.639679 863.782227,147.700470 
	C863.853760,147.024109 865.434814,146.507462 866.636902,145.707062 
	C867.027161,150.519470 867.345764,154.448517 867.826050,158.755859 
z"/>
<path fill="#F9F1F7" opacity="1.000000" stroke="none" 
	d="
M266.465485,233.462631 
	C262.881531,252.342346 274.206970,268.168488 292.856110,270.340790 
	C287.218719,274.632568 280.566040,273.603821 273.739960,267.648773 
	C264.174377,259.303925 258.212250,241.589706 265.712860,233.189102 
	C266.168335,233.167496 266.465485,233.462631 266.465485,233.462631 
z"/>
<path fill="#F9F1F7" opacity="1.000000" stroke="none" 
	d="
M780.830933,148.754257 
	C779.257751,146.188675 777.625977,144.105225 776.294617,141.844818 
	C774.775208,139.265106 773.523438,136.527802 772.155396,133.858978 
	C772.524475,133.522171 772.893555,133.185364 773.262634,132.848557 
	C774.220032,133.143433 775.591980,133.136383 776.064148,133.784653 
	C778.282288,136.830215 780.324707,140.011978 782.297058,143.226562 
	C785.938843,149.161636 785.982605,155.543167 782.449402,161.187439 
	C781.062012,163.403793 776.951660,164.860626 774.066956,164.883926 
	C771.911072,164.901337 768.572937,162.484039 767.820679,160.405548 
	C766.517700,156.805450 766.653687,152.631989 766.550171,148.689484 
	C766.526001,147.768692 767.960266,146.809616 768.723511,145.868164 
	C769.136353,146.043350 769.549133,146.218536 769.961975,146.393723 
	C769.961975,149.317093 769.833252,152.247650 769.995972,155.161926 
	C770.181335,158.481689 770.980530,161.785309 775.088745,161.932510 
	C779.107605,162.076538 780.381836,158.936157 780.853271,155.635925 
	C781.155884,153.517456 780.906860,151.320175 780.830933,148.754257 
z"/>
<path fill="#F8EEF5" opacity="1.000000" stroke="none" 
	d="
M196.608368,130.872864 
	C178.611923,129.651459 163.942429,111.871544 170.478027,98.728600 
	C172.308701,117.239288 182.824814,126.729149 200.675629,129.612335 
	C199.265137,130.093292 198.139114,130.477264 196.608368,130.872864 
z"/>
<path fill="#F8EEF5" opacity="1.000000" stroke="none" 
	d="
M227.195435,164.911560 
	C227.841080,161.744522 228.516159,158.990936 229.191238,156.237366 
	C229.606430,156.286240 230.021622,156.335129 230.436813,156.384003 
	C227.867691,174.933456 239.147537,183.954910 254.694016,190.596756 
	C241.482544,191.841217 230.297501,181.150726 227.195435,164.911560 
z"/>
<path fill="#F4E3EF" opacity="1.000000" stroke="none" 
	d="
M237.586411,118.294540 
	C239.239166,120.088531 240.654663,121.611084 242.586090,123.688606 
	C234.120468,121.293137 228.236755,108.964737 230.814789,102.545486 
	C232.795120,107.236206 235.072144,112.629654 237.586411,118.294540 
z"/>
<path fill="#FCF6FA" opacity="1.000000" stroke="none" 
	d="
M118.005714,135.016693 
	C118.149597,134.821472 118.270561,134.600235 118.391525,134.378998 
	C118.376282,134.590530 118.361046,134.802078 118.140739,134.976715 
	C117.935661,134.939819 117.982796,134.990677 118.005714,135.016693 
z"/>
<path fill="#F8EEF5" opacity="1.000000" stroke="none" 
	d="
M202.540787,128.471420 
	C202.570923,128.522476 202.510651,128.420364 202.540787,128.471420 
z"/>
<path fill="#F9F1F7" opacity="1.000000" stroke="none" 
	d="
M266.021851,233.017853 
	C266.156219,232.678223 266.437103,232.488220 266.717957,232.298203 
	C266.751862,232.550583 266.785767,232.802963 266.642578,233.258987 
	C266.465485,233.462631 266.168335,233.167496 266.021851,233.017853 
z"/>
<path fill="#FBF4F9" opacity="1.000000" stroke="none" 
	d="
M219.792816,239.763275 
	C219.810303,239.791672 220.078354,239.881592 220.078354,239.881592 
	C220.078354,239.881592 219.848343,239.875137 219.799591,239.773956 
	C219.750854,239.672791 219.775330,239.734863 219.792816,239.763275 
z"/>
<path fill="#B7479A" opacity="1.000000" stroke="none" 
	d="
M849.021240,137.102783 
	C852.659912,135.232437 855.205688,136.224228 856.696167,139.409027 
	C858.421875,143.096497 857.058899,149.522720 854.351135,150.673462 
	C851.420959,151.918701 848.115784,151.557083 847.628967,148.124100 
	C847.135559,144.644455 848.267761,140.934326 849.021240,137.102783 
z"/>
<path fill="#B7479A" opacity="1.000000" stroke="none" 
	d="
M928.546631,150.944458 
	C925.133728,151.647263 922.322693,150.778748 922.215393,147.611115 
	C922.096497,144.098053 922.489807,140.093750 924.149536,137.140350 
	C925.542908,134.660965 930.317383,136.072098 931.271057,139.200836 
	C932.523865,143.310623 933.268860,147.670471 928.546631,150.944458 
z"/>
<path fill="#B8499B" opacity="1.000000" stroke="none" 
	d="
M707.390015,138.673401 
	C707.372192,141.929886 707.064331,144.776642 707.326172,147.569992 
	C707.461182,149.010574 708.609314,150.356201 709.299744,151.744720 
	C709.878601,150.442108 710.851257,149.170990 710.958435,147.830658 
	C711.222290,144.531036 711.085938,141.199585 711.123596,137.881073 
	C711.125122,137.745911 711.259277,137.612259 712.020020,136.200348 
	C713.870056,138.690567 716.361145,140.587357 716.703369,142.814377 
	C717.368652,147.143784 717.286560,151.725693 716.649048,156.076279 
	C716.089478,159.895157 713.135254,161.927109 709.087952,161.950943 
	C705.054016,161.974701 701.867737,160.050034 701.510132,156.192276 
	C701.047546,151.202927 701.447083,146.047501 702.220154,141.079483 
	C702.468811,139.481461 703.864746,135.958878 707.390015,138.673401 
z"/>
<path fill="#B94B9C" opacity="1.000000" stroke="none" 
	d="
M680.211792,211.417969 
	C679.985046,206.306442 679.410156,201.505280 680.047119,196.870682 
	C680.352539,194.648483 682.950867,192.741440 684.510681,190.691666 
	C684.940002,190.964447 685.369324,191.237228 685.798645,191.509995 
	C685.798645,195.275650 685.674011,199.048218 685.882324,202.802322 
	C685.937500,203.796814 687.017517,204.734406 687.626953,205.698120 
	C688.212646,204.696930 689.244629,203.721191 689.303406,202.689941 
	C689.510620,199.056580 689.384094,195.404175 689.384094,191.645538 
	C689.857666,191.609665 690.364075,191.433319 690.776978,191.560547 
	C697.725037,193.701401 697.387573,211.138809 692.346863,214.546692 
	C688.381348,217.227600 683.769897,216.310028 680.211792,211.417969 
z"/>
<path fill="#B7479A" opacity="1.000000" stroke="none" 
	d="
M624.803711,147.601685 
	C625.309998,151.359268 626.035400,154.814423 625.710327,158.167786 
	C625.577209,159.540833 623.305481,161.471405 621.766907,161.731812 
	C620.175537,162.001144 616.919556,160.760544 616.776306,159.817993 
	C616.158997,155.756653 615.349365,151.173691 616.674377,147.531815 
	C617.861816,144.268112 621.799561,144.564728 624.803711,147.601685 
z"/>
<path fill="#B7479A" opacity="1.000000" stroke="none" 
	d="
M737.147461,202.134659 
	C737.587036,205.775452 738.233765,209.101059 737.828674,212.293182 
	C737.649780,213.703018 735.205750,215.988403 734.023010,215.852325 
	C731.921265,215.610489 729.011353,214.296616 728.198730,212.592361 
	C726.372559,208.762619 726.127563,204.242538 729.489014,200.965622 
	C731.763367,198.748535 734.693542,199.138824 737.147461,202.134659 
z"/>
<path fill="#B8499B" opacity="1.000000" stroke="none" 
	d="
M802.503174,159.335861 
	C797.984192,162.718658 794.487244,162.735138 792.301086,159.704880 
	C789.858154,156.318802 790.715332,148.549957 793.766296,146.424973 
	C797.133850,144.079498 802.151489,145.396362 802.975098,149.371277 
	C803.610291,152.437256 802.865906,155.789078 802.503174,159.335861 
z"/>
<path fill="#B94B9C" opacity="1.000000" stroke="none" 
	d="
M888.493042,150.786530 
	C889.360046,147.051041 891.279175,144.990570 894.886292,145.405838 
	C898.740234,145.849579 899.303772,148.988480 899.618774,152.033463 
	C899.769653,153.491440 899.564514,155.016571 899.322449,156.478500 
	C898.826172,159.474777 897.685791,161.999893 894.032715,161.921265 
	C890.307373,161.841064 888.812073,159.409393 888.409607,156.130676 
	C888.209717,154.502411 888.383667,152.828232 888.493042,150.786530 
z"/>
<path fill="#B7479A" opacity="1.000000" stroke="none" 
	d="
M779.978882,213.709595 
	C774.863647,217.505142 771.163574,216.131851 770.243530,210.385345 
	C769.933960,208.452072 769.490601,206.021500 770.353516,204.546738 
	C771.508362,202.572891 773.664368,200.464905 775.770630,199.940063 
	C778.767090,199.193375 780.811340,201.542404 780.915100,204.579987 
	C781.014587,207.490921 780.452209,210.424469 779.978882,213.709595 
z"/>
</svg>