<?xml version="1.0" encoding="utf-8"?>
<!-- Generator: Adobe Illustrator 24.3.0, SVG Export Plug-In . SVG Version: 6.00 Build 0)  -->
<svg version="1.1" id="Layer_1" xmlns="http://www.w3.org/2000/svg" xmlns:xlink="http://www.w3.org/1999/xlink" x="0px" y="0px"
	 viewBox="0 0 460 356" style="enable-background:new 0 0 460 356;" xml:space="preserve">
<style type="text/css">
	.st0{fill:#B74398;}
	.st1{fill:#FCF7FB;}
	.st2{fill:#FCF6FA;}
	.st3{fill:#FBF4F9;}
	.st4{fill:#F9F1F7;}
	.st5{fill:#F8EEF5;}
	.st6{fill:#F4E3EF;}
	.st7{fill:none;}
	.st8{fill:#B74398;stroke:#B74398;stroke-miterlimit:10;}
	.st9{font-family:'AcadMtavr';}
	.st10{font-size:19px;}
</style>
<path class="st0" d="M71.1,222.4c0.3-2.5,0-5,0.9-7c3.6-7.8-0.1-18.4-6.1-24.1c-4.5-4.3-9.8-6.6-15.9-7.4c-2.8-0.4-5.3,0.6-7.8,1.5
	c-6.4,2.4-13.7,0.2-17.7-5.3c-3.9-5.3-3-9,0.3-14.5c2-3.3,7.4-4.5,12-3.2c3.9,1.2,7,3.5,9.4,6.8c3.6,4.9,7.5,9.4,13.4,11.4
	c3.1,1,6.4,1.7,9.6,1.6c7.4-0.1,10.3-5.2,9.9-11.6c-0.5-7.3-4.6-12.6-10.3-16.8c-4.1-3.1-8.7-4.9-13.9-4.9c-4.3,0-8,1.6-10.9,4.8
	c-3.4,3.8-7.6,4.1-12,2.3c-4.7-1.8-8.7-4.7-9.2-10c-0.7-7.1,2.5-11.9,10.6-10.3c3.2,0.6,6.2,2.4,9.1,4.1c5,2.9,10.1,4.8,15.9,3.8
	c8.4-1.4,7.8-8,5.2-12.6c-0.7-1.2-1.5-2.4-2.2-3.6c-1.4-2.4-0.8-4.8,0.2-7.1c0.8-1.7,2.4-2.1,4.2-2c4.6,0.2,10.8,4.8,12.3,9.2
	c1,2.8-0.5,6-3.3,7.1c-0.3,0.1-0.7,0.2-1.1,0.4c-5.1,1.9-5.9,3.2-4.8,8.5c1.7,8.5,12.9,18.1,21.4,18.5c7.1,0.4,8.6-4.5,7.4-9.8
	c-1-4.2-3.3-7.8-6.5-10.8c-1.7-1.6-3.6-3.1-5.3-4.8c-2.8-2.8-3.2-5.8-1.6-8.4c1-1.6,2.3-2.1,4-1.8c5.3,1.1,8.9,4.3,10.8,9.4
	c0.3,0.8,0.4,1.9,0.1,2.6c-1.7,4.7,0.1,8.6,2.6,12.4c3.4,5.2,8.1,8.9,14.3,10.4c0.7,0.2,1.6,0.4,2.2,0.1c3.5-1.7,6.4-0.3,8.7,2.1
	c1.6,1.6,2.9,3.8,3.9,5.9c0.9,1.8,1.4,4.1-0.5,5.6c-1.9,1.5-4.4,1.8-6.5,0.6c-1.8-1-3.5-2.5-4.9-4.2c-3-3.6-5.9-7.3-10.4-9.3
	c-0.6-0.3-1.2-0.6-1.9-0.8c-7.8-2-11.2,1.9-9.6,9.9c1.8,9.1,7.3,15.9,16.6,18.8c4,1.3,6.4,0.1,8.1-3.7c0.1-0.2,0.2-0.4,0.3-0.6
	c2-4.6,6.5-5.9,10.2-2.4c2.1,2,3.6,4.8,5,7.5c1,2,1.1,4.4-0.6,6.1c-1.8,1.9-4.3,1.5-6.5,1.1c-1.5-0.3-2.8-1.3-4.1-2.1
	c-6.9-4.5-12.6-1.7-13.1,6.6c-0.3,4.7,0.7,9.1,3.3,13.2c1.7,2.6,2.8,5.8,3.4,8.8c0.7,3.1-0.2,6.4-3.2,8c-3.3,1.8-7,2.6-10.6,0.3
	c-4.6-2.9-7.4-8.9-6.3-14.2c0.3-1.5,1.2-3.1,2.2-4.2c7.1-7.6,8-14.7,2.4-23.5c-3.9-6.1-9.2-10.4-16.6-11.3
	c-7.8-0.9-12.4,3.4-12.2,11.3c0.3,8,4.1,14.1,10.1,19.2c2.2,1.8,4.4,3.6,6.3,5.7c2.7,3,3.2,6.7,2.7,10.7c-0.8,5.9-11,10.7-16.8,6.6
	C74.2,230.5,71.8,227.2,71.1,222.4z"/>
<path class="st0" d="M162.5,174.9c0,2.1,0,3.9,0,5.8c0,5.7,4.2,9.4,9.9,8.8c5.5-0.6,8-3.3,8-8.8c0-7.8,0-15.6,0-23.6
	c2.1,0,4.1,0,6.2,0c0.1,0.3,0.2,0.8,0.2,1.2c0,8.3,0.1,16.7-0.2,25c-0.2,6.8-4.1,11.3-10.8,12.6c-6.5,1.2-12.6,0.6-16.9-5.1
	c-1.4-1.8-2.5-4.3-2.6-6.5c-0.3-9-0.1-18-0.1-27.2c2,0,4,0,6.2,0C162.5,162.9,162.5,168.8,162.5,174.9z"/>
<path class="st0" d="M214.8,163.8c-2.8,0-5.3-0.1-7.8,0.1c-5.1,0.3-8.4,4-8.2,9.2c7,0,13.9,0,21.2,0c0,2.1,0.1,4-0.1,5.9
	c0,0.4-1.2,1-1.9,1c-5.6,0.1-11.2,0.2-16.8,0c-2.2-0.1-2.8,0.7-2.7,2.8c0.2,4.5,0,8.9,0,13.5c-2.2,0-4.2,0-6.2,0
	c-0.1-0.1-0.3-0.3-0.3-0.4c0.2-9.1-0.2-18.2,0.7-27.2c0.7-6.9,5.4-10.6,12.3-11.6c1.2-0.2,2.4-0.2,3.6-0.2c3.6,0,7.3,0,11.1,0
	c0,2.3,0,4.4,0,6.9C218.2,163.8,216.6,163.8,214.8,163.8z"/>
<path class="st0" d="M247.4,163.8c-2.8,0-5.3-0.1-7.8,0c-4.8,0.1-7.1,2-8.3,6.6c-1.1,4.4-1.1,8.9,0.1,13.3c1.2,4,3.7,5.9,7.9,5.9
	c4,0.1,8.1,0,12.1,0c0.8,0,1.6,0,2.5,0c0,2.4,0,4.5,0,7.2c-6.2-0.3-12.3-0.2-18.3-1.1c-5.3-0.7-8.6-4.5-10.1-9.6
	c-1.9-6.5-2-13,0.2-19.3c1.7-5.2,5.3-8.9,10.9-9.3c5.7-0.4,11.6-0.1,17.5-0.1c0,1.9,0,4.1,0,6.4
	C251.8,163.8,249.7,163.8,247.4,163.8z"/>
<path class="st1" d="M48.6,216.6c-7-3.6-10.4-10.2-8.2-16.5c0.6-1.7,1.8-3.2,3-4.6c-4.2,11,6.7,22.7,18.6,18.6
	C59.4,217.8,54.4,218.8,48.6,216.6z"/>
<path class="st2" d="M52.8,158.7c-0.9,9.2,4.6,15.5,14.1,16.1c0.4,0,0.9,0.1,1.3,0.1c0,0.2,0.1,0.4,0.1,0.6c-1.3,0.3-2.7,0.8-4,0.8
	c-5.9,0.1-11.8-4.3-13.4-9.9c-0.8-2.8-0.7-5.5,1.8-7.7C52.8,158.8,52.8,158.7,52.8,158.7z"/>
<path class="st3" d="M98.3,205.6c-1,2.1-3,2.1-4.9,2.1c-7.4-0.1-13.8-9.7-11.1-16.6c0.3-0.7,0.8-1.3,1.4-2.4
	c-0.3,11.5,5.7,18.4,14.3,17C98.3,205.6,98.3,205.6,98.3,205.6z"/>
<path class="st4" d="M41.2,131.8c4,4.6,8.9,6.6,14.5,6.1c0,0.2,0.1,0.4,0.1,0.6c-1.6,0.2-3.2,0.8-4.7,0.7c-6-0.5-10.5-3.6-13.1-9
	c-1.2-2.6-0.9-4.3,1-6.3C38.4,127,39.4,129.5,41.2,131.8z"/>
<path class="st4" d="M119.2,202.8c-1.6,8.4,3.5,15.5,11.8,16.5c-2.5,1.9-5.5,1.5-8.6-1.2c-4.3-3.7-6.9-11.7-3.6-15.4
	C119.1,202.7,119.2,202.8,119.2,202.8z"/>
<path class="st5" d="M88,156.9c-8.1-0.5-14.6-8.5-11.7-14.4c0.8,8.3,5.5,12.5,13.5,13.8C89.2,156.6,88.7,156.7,88,156.9z"/>
<path class="st5" d="M101.7,172.1c0.3-1.4,0.6-2.6,0.9-3.9c0.2,0,0.4,0,0.6,0.1c-1.1,8.3,3.9,12.3,10.9,15.3
	C108.1,184.2,103.1,179.4,101.7,172.1z"/>
<path class="st6" d="M106.3,151.3c0.7,0.8,1.4,1.5,2.2,2.4c-3.8-1.1-6.4-6.6-5.3-9.5C104.2,146.3,105.2,148.7,106.3,151.3z"/>
<path class="st2" d="M52.8,158.8c0.1-0.1,0.1-0.2,0.2-0.3C53,158.6,53,158.7,52.8,158.8C52.8,158.7,52.8,158.8,52.8,158.8z"/>
<path class="st5" d="M90.6,155.8C90.6,155.9,90.6,155.8,90.6,155.8z"/>
<path class="st4" d="M119,202.6c0.1-0.2,0.2-0.2,0.3-0.3c0,0.1,0,0.2,0,0.4C119.2,202.8,119.1,202.7,119,202.6z"/>
<path class="st3" d="M98.4,205.6c0,0,0.1,0.1,0.1,0.1S98.4,205.7,98.4,205.6C98.3,205.6,98.3,205.6,98.4,205.6z"/>
<rect x="259.8" y="157.1" class="st7" width="181.6" height="40"/>
<text transform="matrix(1 0 0 1 259.7578 169.8862)"><tspan x="0" y="0" class="st8 st9 st10">multisagadaxdo </tspan><tspan x="0" y="22.8" class="st8 st9 st10">sistemebi</tspan></text>
</svg>
