<svg id="b4b87112-4a68-4e6e-b932-db0fc4a50aa0" data-name="Layer 1" xmlns="http://www.w3.org/2000/svg" viewBox="0 0 142.65 41.66">
  <g>
    <ellipse cx="20.75" cy="20.83" rx="20.75" ry="20.83" fill="#100066"/>
    <ellipse cx="20.75" cy="20.87" rx="20.41" ry="20.49" fill="#fff"/>
    <ellipse cx="20.83" cy="20.83" rx="16.56" ry="16.62" fill="#100066"/>
    <ellipse cx="20.83" cy="20.83" rx="16.18" ry="16.24" fill="#fff"/>
    <g>
      <path d="M159,134.11l2.23-.2,0,.58-2.23.2Z" transform="translate(-157.8 -112.48)" fill="#100066"/>
      <path d="M160.64,135.74l-1.39.26-.1-.55,2.21-.41.09.49-1.1,1.43,1.32-.24.1.55-2.21.4-.08-.43Z" transform="translate(-157.8 -112.48)" fill="#100066"/>
      <path d="M159.91,138.94l1.75-.53-.21-.71.4-.12.6,2-.4.12-.22-.72-1.75.53Z" transform="translate(-157.8 -112.48)" fill="#100066"/>
      <path d="M160.49,140.74l2.08-.86.57,1.4-.38.15-.36-.87-.42.18.34.83-.39.16-.34-.83-.49.2.37.9-.39.16Z" transform="translate(-157.8 -112.48)" fill="#100066"/>
      <path d="M161.37,142.8l2-1.08.4.73a1.15,1.15,0,0,1,.19.67.61.61,0,0,1-.33.43.57.57,0,0,1-.33.07.8.8,0,0,1-.34-.16.41.41,0,0,1,0,.19.77.77,0,0,1-.11.19l-.5.68L162,144l.43-.56a.5.5,0,0,0,.11-.24.56.56,0,0,0-.07-.25l0,0,0,0-.8.44Zm1.56.09a.43.43,0,0,0,.17.18.27.27,0,0,0,.21,0,.26.26,0,0,0,.14-.17.42.42,0,0,0,0-.23l-.13-.24-.47.26Z" transform="translate(-157.8 -112.48)" fill="#100066"/>
      <path d="M164.08,144.59l-1.13.85-.33-.44,1.79-1.36.29.39-.34,1.78,1.07-.81.34.44L164,146.8l-.26-.35Z" transform="translate(-157.8 -112.48)" fill="#100066"/>
      <path d="M164.35,147.24l2.25-1,.47.45-.9,2.24-.43-.41.18-.43-.71-.66-.43.19Zm1.25,0,.48.45.35-.84Z" transform="translate(-157.8 -112.48)" fill="#100066"/>
      <path d="M166.91,149.48,168,148l-.61-.42.24-.35,1.7,1.2-.24.34-.61-.43-1,1.51Z" transform="translate(-157.8 -112.48)" fill="#100066"/>
      <path d="M168.53,150.52l1.07-2,.51.28-1.07,2Z" transform="translate(-157.8 -112.48)" fill="#100066"/>
      <path d="M170.05,150.09a1.5,1.5,0,0,1,.25-.4,1.14,1.14,0,0,1,.39-.25,1,1,0,0,1,.45-.08,1.37,1.37,0,0,1,.47.1,1.62,1.62,0,0,1,.43.25,1.41,1.41,0,0,1,.27.37,1.22,1.22,0,0,1,.1.45,1.11,1.11,0,0,1-.08.47,1.33,1.33,0,0,1-.26.39,1,1,0,0,1-.38.26,1.19,1.19,0,0,1-.45.08,1.37,1.37,0,0,1-.48-.1,1.73,1.73,0,0,1-.42-.25,1.41,1.41,0,0,1-.27-.37,1,1,0,0,1-.1-.45A1.11,1.11,0,0,1,170.05,150.09Zm.54.22a.65.65,0,0,0,0,.53.6.6,0,0,0,.35.35.62.62,0,0,0,.5,0,.76.76,0,0,0,.37-.93.59.59,0,0,0-.36-.35.58.58,0,0,0-.5,0A.7.7,0,0,0,170.59,150.31Z" transform="translate(-157.8 -112.48)" fill="#100066"/>
      <path d="M173.46,151l-.31,1.38-.54-.12.5-2.2.48.11.87,1.58.3-1.31.54.12-.5,2.2-.43-.1Z" transform="translate(-157.8 -112.48)" fill="#100066"/>
      <path d="M175.29,152.83l1.21-2.13.64.06.64,2.34-.6-.06-.11-.46-1-.1-.23.42Zm1-.72.66.07-.22-.88Z" transform="translate(-157.8 -112.48)" fill="#100066"/>
      <path d="M178.23,153.1l0-2.25h.56l0,1.82h1v.44Z" transform="translate(-157.8 -112.48)" fill="#100066"/>
      <path d="M181.49,153l-.37-2.23.84-.14a1.88,1.88,0,0,1,.56,0,1.15,1.15,0,0,1,.39.11,1.07,1.07,0,0,1,.57.81,1,1,0,0,1,0,.56,1.13,1.13,0,0,1-.32.47.79.79,0,0,1-.29.18,2.33,2.33,0,0,1-.5.13Zm.26-1.87.22,1.32.42-.07a.59.59,0,0,0,.43-.26.66.66,0,0,0,.1-.5.68.68,0,0,0-.26-.45.64.64,0,0,0-.49-.11Z" transform="translate(-157.8 -112.48)" fill="#100066"/>
      <path d="M184.35,152.45l-.68-2.15,1.43-.46.13.4-.9.29.14.43.86-.27.12.4-.85.27.16.51.92-.29.13.4Z" transform="translate(-157.8 -112.48)" fill="#100066"/>
      <path d="M187.17,151.41l-1.9-1.6.53-.26,1.07.93,0-1.44.54-.26v2.52Z" transform="translate(-157.8 -112.48)" fill="#100066"/>
      <path d="M188.81,150.51l-1.26-1.87,1.24-.84.24.34-.78.53.26.38.74-.5.23.34-.74.51.3.44.8-.54.24.35Z" transform="translate(-157.8 -112.48)" fill="#100066"/>
      <path d="M190.63,149.21l-1.48-1.7.42-.37,1.2,1.37.73-.64.28.32Z" transform="translate(-157.8 -112.48)" fill="#100066"/>
      <path d="M191.23,147.19a1,1,0,0,1-.29-.37,1.16,1.16,0,0,1-.12-.45,1.12,1.12,0,0,1,.08-.45,1.49,1.49,0,0,1,.64-.73,1.08,1.08,0,0,1,.43-.13,1,1,0,0,1,.46.05,1.23,1.23,0,0,1,.41.24,1.28,1.28,0,0,1,.29.37,1.35,1.35,0,0,1,.11.45,1.16,1.16,0,0,1-.08.45,1.17,1.17,0,0,1-.26.42,1.33,1.33,0,0,1-.37.31,1.12,1.12,0,0,1-.44.13,1,1,0,0,1-.46,0A1.19,1.19,0,0,1,191.23,147.19Zm.38-.43a.72.72,0,0,0,.49.19.65.65,0,0,0,.61-.7.66.66,0,0,0-.26-.46.69.69,0,0,0-.49-.2.61.61,0,0,0-.45.22.63.63,0,0,0-.16.48A.75.75,0,0,0,191.61,146.76Z" transform="translate(-157.8 -112.48)" fill="#100066"/>
      <path d="M194.07,145.52l-1.86-1.25.46-.69a1.15,1.15,0,0,1,.51-.47.58.58,0,0,1,.54.1.62.62,0,0,1,.31.48,1.3,1.3,0,0,1-.25.69l-.12.18.73.49Zm-.63-1.42a.36.36,0,0,0,.08-.24.28.28,0,0,0-.32-.21.3.3,0,0,0-.18.16l-.15.22.42.29Z" transform="translate(-157.8 -112.48)" fill="#100066"/>
      <path d="M195.38,143.52l-2-1,.23-.44,1.13-.24-.48-1,.22-.45,2,1-.25.49L195,141.2l.43,1-1,.22,1.24.63Z" transform="translate(-157.8 -112.48)" fill="#100066"/>
      <path d="M196.76,140.63l-2.1-.8.52-1.41.39.15-.33.88.43.16.32-.84.39.15-.32.84.5.19.34-.91.4.15Z" transform="translate(-157.8 -112.48)" fill="#100066"/>
      <path d="M196.29,137.65l1.37.35-.14.54-2.17-.56.12-.48,1.6-.83-1.3-.34.14-.54,2.17.56-.11.43Z" transform="translate(-157.8 -112.48)" fill="#100066"/>
      <path d="M198.28,135l-1.82-.14-.06.74-.42,0,.17-2.08.41,0-.06.75,1.82.14Z" transform="translate(-157.8 -112.48)" fill="#100066"/>
    </g>
    <g>
      <path d="M161.47,123.65l1.15.58a1,1,0,0,1,.53.59,1.12,1.12,0,0,1-.11.82,1.14,1.14,0,0,1-.59.58,1,1,0,0,1-.78-.08l-1.15-.58.25-.51,1.13.57a.61.61,0,0,0,.42.07.44.44,0,0,0,.3-.27.5.5,0,0,0,0-.39.6.6,0,0,0-.31-.3l-1.13-.57Z" transform="translate(-157.8 -112.48)" fill="#100066"/>
      <path d="M162.88,123l1.15.82-.32.45-1.83-1.3.28-.41,1.79-.2-1.09-.78.32-.45,1.83,1.3-.25.36Z" transform="translate(-157.8 -112.48)" fill="#100066"/>
      <path d="M165.36,122.07l-1.67-1.5.38-.44,1.68,1.5Z" transform="translate(-157.8 -112.48)" fill="#100066"/>
      <path d="M166.49,120.87l-1.24-1.34-.55.51-.28-.31,1.52-1.42.28.31-.54.5,1.24,1.35Z" transform="translate(-157.8 -112.48)" fill="#100066"/>
      <path d="M167.71,119.79,166.38,118l1.21-.89.25.33-.76.56.27.37.72-.53.25.34-.72.53.31.43.78-.57.25.34Z" transform="translate(-157.8 -112.48)" fill="#100066"/>
      <path d="M169.27,118.65l-1.08-2,.74-.41a1.89,1.89,0,0,1,.52-.22.9.9,0,0,1,.4,0,.93.93,0,0,1,.47.18,1.17,1.17,0,0,1,.34.39,1,1,0,0,1,.15.54,1.11,1.11,0,0,1-.15.55.93.93,0,0,1-.22.27,2.12,2.12,0,0,1-.43.28Zm-.37-1.85.64,1.18.37-.2a.59.59,0,0,0,.32-.39.66.66,0,0,0-.07-.51.67.67,0,0,0-.39-.34.63.63,0,0,0-.5.06Z" transform="translate(-157.8 -112.48)" fill="#100066"/>
      <path d="M172.37,116.92l-.15-.47a2.54,2.54,0,0,0,.47.07.94.94,0,0,0,.34,0,.55.55,0,0,0,.22-.13.15.15,0,0,0,0-.17.18.18,0,0,0-.09-.1.76.76,0,0,0-.27,0,2,2,0,0,1-.74-.12.63.63,0,0,1-.31-.38A.58.58,0,0,1,172,115a1,1,0,0,1,.53-.36,1.59,1.59,0,0,1,.38-.07,1.8,1.8,0,0,1,.4,0l.14.44-.43,0a1,1,0,0,0-.33,0,.45.45,0,0,0-.22.12.13.13,0,0,0,0,.15s.05.08.11.1a.8.8,0,0,0,.26,0h.1a3.73,3.73,0,0,1,.5,0,.63.63,0,0,1,.28.15.75.75,0,0,1,.18.3.57.57,0,0,1-.08.54,1.08,1.08,0,0,1-.56.37,1.46,1.46,0,0,1-.4.07A1.43,1.43,0,0,1,172.37,116.92Z" transform="translate(-157.8 -112.48)" fill="#100066"/>
      <path d="M174.91,116.38l-.35-1.8-.73.14-.08-.41,2-.4.08.41-.73.14.35,1.8Z" transform="translate(-157.8 -112.48)" fill="#100066"/>
      <path d="M176.05,116.13l.81-2.32.65,0,1,2.19-.59,0-.19-.42-1,.07-.15.45Zm.88-.89.66,0-.38-.83Z" transform="translate(-157.8 -112.48)" fill="#100066"/>
      <path d="M179.11,116l.09-1.83-.74,0,0-.42,2.07.1,0,.42-.74,0L179.7,116Z" transform="translate(-157.8 -112.48)" fill="#100066"/>
      <path d="M180.73,116.11l.37-2.22,1.48.25-.07.41-.92-.16-.08.46.89.14-.07.42-.89-.15-.08.53.95.16-.07.42Z" transform="translate(-157.8 -112.48)" fill="#100066"/>
      <path d="M182.65,116.28l.14-.49a2,2,0,0,0,.35.33.84.84,0,0,0,.31.16.57.57,0,0,0,.25,0,.18.18,0,0,0,.13-.12.17.17,0,0,0,0-.14.74.74,0,0,0-.2-.18,1.79,1.79,0,0,1-.54-.52.57.57,0,0,1,0-.48.59.59,0,0,1,.35-.39,1,1,0,0,1,.64,0,1.84,1.84,0,0,1,.36.15,2.43,2.43,0,0,1,.32.24l-.12.44a3.34,3.34,0,0,0-.35-.27,1.05,1.05,0,0,0-.3-.15.76.76,0,0,0-.25,0,.14.14,0,0,0-.11.11s0,.09,0,.15a.83.83,0,0,0,.19.17l.08.07a2.19,2.19,0,0,1,.39.32.55.55,0,0,1,.15.28.79.79,0,0,1,0,.34.6.6,0,0,1-.36.41,1.06,1.06,0,0,1-.68,0,1.53,1.53,0,0,1-.37-.16A1.59,1.59,0,0,1,182.65,116.28Z" transform="translate(-157.8 -112.48)" fill="#100066"/>
      <path d="M185.22,117.27l1.88-1.58.58.29-.22,2.41-.53-.27,0-.46-.87-.44-.35.32Zm1.21-.32.59.3.1-.91Z" transform="translate(-157.8 -112.48)" fill="#100066"/>
      <path d="M189.4,119.42a1.86,1.86,0,0,1-.48-.06,1.53,1.53,0,0,1-.46-.23,1.31,1.31,0,0,1-.36-.34,1.14,1.14,0,0,1-.18-.41.9.9,0,0,1,0-.46,1.07,1.07,0,0,1,.19-.44,1.05,1.05,0,0,1,.76-.5,1.3,1.3,0,0,1,.95.26,1.64,1.64,0,0,1,.31.28,1.66,1.66,0,0,1,.26.36l-.28.41a1.92,1.92,0,0,0-.25-.38,1.75,1.75,0,0,0-.28-.27.84.84,0,0,0-.55-.15.7.7,0,0,0-.45.32.65.65,0,0,0,.17,1l.15.08.16.05.16-.24-.25-.18.24-.34.73.5Z" transform="translate(-157.8 -112.48)" fill="#100066"/>
      <path d="M189.58,119.92l1.5-1.69,1.12,1-.28.31-.7-.62-.3.34.67.6-.28.31-.67-.59-.35.4.72.64-.28.32Z" transform="translate(-157.8 -112.48)" fill="#100066"/>
      <path d="M192.45,120.7l-1.06.93-.37-.42,1.7-1.48.33.38-.23,1.79,1-.88.37.43-1.7,1.47-.29-.34Z" transform="translate(-157.8 -112.48)" fill="#100066"/>
      <path d="M194,124.87a2,2,0,0,1-.37-.26,1.6,1.6,0,0,1-.28-.35,1.48,1.48,0,0,1-.2-.45,1.36,1.36,0,0,1,0-.45,1.28,1.28,0,0,1,.19-.43,1.16,1.16,0,0,1,.34-.32,1,1,0,0,1,.9-.16,1.34,1.34,0,0,1,.77.6,1.76,1.76,0,0,1,.17.37,1.3,1.3,0,0,1,.09.4l-.44.28a1.32,1.32,0,0,0,0-.41,1,1,0,0,0-.15-.35.75.75,0,0,0-.44-.36.72.72,0,0,0-.54.11.66.66,0,0,0-.32.43.65.65,0,0,0,.11.53,1.27,1.27,0,0,0,.27.3,1.74,1.74,0,0,0,.4.23Z" transform="translate(-157.8 -112.48)" fill="#100066"/>
      <path d="M194.24,125.84l.92-.43.75-1.32.28.61-.45.76.87.15.28.6-1.49-.29-.92.43Z" transform="translate(-157.8 -112.48)" fill="#100066"/>
    </g>
    <rect x="11.46" y="26.77" width="18.88" height="3.05" fill="#100066"/>
    <rect x="11.46" y="9.52" width="18.88" height="5.48" fill="#100066"/>
    <polygon points="13.49 28.4 14.08 27.97 13.35 27.97 13.12 27.24 12.88 27.97 12.15 27.97 12.73 28.41 12.5 29.13 13.1 28.69 13.73 29.17 13.49 28.4" fill="#fff"/>
    <polygon points="2.96 17.37 3.4 16.79 2.71 17 2.27 16.36 2.25 17.13 1.56 17.34 2.24 17.59 2.22 18.35 2.67 17.76 3.41 18.04 2.96 17.37" fill="#100066"/>
    <polygon points="38.54 17.36 38.12 16.76 38.81 16.99 39.26 16.37 39.26 17.14 39.94 17.37 39.25 17.61 39.25 18.36 38.82 17.75 38.07 18.01 38.54 17.36" fill="#100066"/>
    <polygon points="16.08 28.4 16.67 27.97 15.94 27.97 15.71 27.24 15.47 27.97 14.74 27.97 15.32 28.41 15.09 29.13 15.69 28.69 16.32 29.17 16.08 28.4" fill="#fff"/>
    <polygon points="18.64 28.4 19.23 27.97 18.5 27.97 18.27 27.24 18.03 27.97 17.31 27.97 17.89 28.41 17.65 29.13 18.25 28.69 18.88 29.17 18.64 28.4" fill="#fff"/>
    <polygon points="21.23 28.4 21.82 27.97 21.09 27.97 20.86 27.24 20.62 27.97 19.9 27.97 20.48 28.41 20.24 29.13 20.84 28.69 21.47 29.17 21.23 28.4" fill="#fff"/>
    <polygon points="23.91 28.4 24.5 27.97 23.77 27.97 23.54 27.24 23.3 27.97 22.58 27.97 23.16 28.41 22.92 29.13 23.52 28.69 24.15 29.17 23.91 28.4" fill="#fff"/>
    <polygon points="26.49 28.4 27.08 27.97 26.35 27.97 26.11 27.24 25.88 27.97 25.15 27.97 25.73 28.41 25.5 29.13 26.1 28.69 26.73 29.17 26.49 28.4" fill="#fff"/>
    <polygon points="29.14 28.4 29.73 27.97 29 27.97 28.77 27.24 28.53 27.97 27.81 27.97 28.39 28.41 28.15 29.13 28.75 28.69 29.38 29.17 29.14 28.4" fill="#fff"/>
    <g>
      <path d="M177.55,142.61v4.54a3.11,3.11,0,0,1,1.13,1s0-.46,1.06-1v-4.53Z" transform="translate(-157.8 -112.48)" fill="#d30000"/>
      <path d="M171.57,142.61v2.8a6.63,6.63,0,0,0,2.19.71v-3.51Z" transform="translate(-157.8 -112.48)" fill="#d30000"/>
      <path d="M180.51,142.61v4.22a15,15,0,0,1,2.19-.55v-3.67Z" transform="translate(-157.8 -112.48)" fill="#d30000"/>
      <path d="M174.53,142.61v3.6a9.75,9.75,0,0,1,2.25.57v-4.17Z" transform="translate(-157.8 -112.48)" fill="#d30000"/>
      <path d="M188.14,142.61h-1.67v2.32A3.91,3.91,0,0,0,188.14,142.61Z" transform="translate(-157.8 -112.48)" fill="#d30000"/>
      <path d="M183.47,142.61v3.53a8.3,8.3,0,0,0,2.23-.75v-2.78Z" transform="translate(-157.8 -112.48)" fill="#d30000"/>
      <path d="M169.26,142.61c-.14.17.28,1.34,1.54,2.3v-2.3Z" transform="translate(-157.8 -112.48)" fill="#d30000"/>
    </g>
    <path d="M174.32,123.11V125a1.36,1.36,0,0,1-.4,1,1.57,1.57,0,0,1-1.11.38,1.54,1.54,0,0,1-1.11-.38,1.36,1.36,0,0,1-.4-1v-1.84h.8v1.81a.84.84,0,0,0,.18.58.8.8,0,0,0,1.06,0,.84.84,0,0,0,.18-.58v-1.81Z" transform="translate(-157.8 -112.48)" fill="#fff"/>
    <path d="M174.93,126.06v-.71a3.32,3.32,0,0,0,.61.32,1.34,1.34,0,0,0,.48.08.68.68,0,0,0,.35-.07.24.24,0,0,0,.12-.21.25.25,0,0,0-.07-.19,1.3,1.3,0,0,0-.35-.16,2.73,2.73,0,0,1-.94-.49.88.88,0,0,1-.26-.64.8.8,0,0,1,.33-.67,1.43,1.43,0,0,1,.87-.26,2.13,2.13,0,0,1,.55.07,2.9,2.9,0,0,1,.54.19V124a3.6,3.6,0,0,0-.58-.24,1.65,1.65,0,0,0-.46-.08.77.77,0,0,0-.35.07.21.21,0,0,0-.12.19.23.23,0,0,0,.11.19,1.32,1.32,0,0,0,.32.17l.14,0a3.92,3.92,0,0,1,.65.29.92.92,0,0,1,.32.33,1,1,0,0,1,.1.47.83.83,0,0,1-.33.7,1.49,1.49,0,0,1-.93.26,2.18,2.18,0,0,1-.57-.08A1.93,1.93,0,0,1,174.93,126.06Z" transform="translate(-157.8 -112.48)" fill="#fff"/>
    <path d="M177.37,126.32l1.39-3.21h.92l1.24,3.21h-.85l-.22-.62h-1.38l-.25.62Zm1.33-1.17h.94l-.44-1.23Z" transform="translate(-157.8 -112.48)" fill="#fff"/>
    <path d="M181.34,126.32v-3.21h.82v3.21Z" transform="translate(-157.8 -112.48)" fill="#fff"/>
    <path d="M182.86,126.32v-3.21h1.2a3.14,3.14,0,0,1,.79.08,1.54,1.54,0,0,1,.53.26,1.61,1.61,0,0,1,.46.55,1.69,1.69,0,0,1,.16.72,1.63,1.63,0,0,1-.75,1.36,1.46,1.46,0,0,1-.45.18,3.47,3.47,0,0,1-.74.06Zm.8-2.56v1.91h.59a.87.87,0,0,0,.67-.27.94.94,0,0,0,.25-.68,1,1,0,0,0-.25-.69.87.87,0,0,0-.67-.27Z" transform="translate(-157.8 -112.48)" fill="#fff"/>
    <path d="M175.33,130.9a.34.34,0,0,0,.18-.07C175.57,130.77,175.49,131,175.33,130.9Z" transform="translate(-157.8 -112.48)"/>
    <path d="M175.85,131l.38-.38S176,131.05,175.85,131Z" transform="translate(-157.8 -112.48)"/>
    <path d="M182.66,133a1.86,1.86,0,0,0,1,0S183,133.39,182.66,133Z" transform="translate(-157.8 -112.48)"/>
    <path d="M174.18,135.23l.22-.12,0,0h.17A.6.6,0,0,1,174.18,135.23Z" transform="translate(-157.8 -112.48)"/>
    <path d="M176,133.51l.28-.22S176,133.39,176,133.51Z" transform="translate(-157.8 -112.48)"/>
    <path d="M175,133.54a.23.23,0,0,0,.16,0c.07-.06.48-.49.48-.49A3.25,3.25,0,0,0,175,133.54Z" transform="translate(-157.8 -112.48)"/>
    <path d="M174.08,133.62a4.24,4.24,0,0,1,.48-.43c.05,0,.05.1.05.1Z" transform="translate(-157.8 -112.48)"/>
    <path d="M174,133.2a2.51,2.51,0,0,1,.32-.26h.1A2.07,2.07,0,0,1,174,133.2Z" transform="translate(-157.8 -112.48)"/>
    <path d="M173.78,133.1s.36-.43.47-.45.12,0,.12,0v.07A6.34,6.34,0,0,0,173.78,133.1Z" transform="translate(-157.8 -112.48)"/>
    <path d="M173.4,133.07s.36-.43.54-.46l.05,0v.12Z" transform="translate(-157.8 -112.48)"/>
    <path d="M172.57,133.87s.43-.36.47-.38h-.13S172.54,133.75,172.57,133.87Z" transform="translate(-157.8 -112.48)"/>
    <path d="M172.39,133.72a13.57,13.57,0,0,0-1.12,1.05,2.87,2.87,0,0,0-.69,0c-.09.06-.05,0-.05,0l0-.14a.63.63,0,0,0,.29-.17c.14-.15,1.27-1,1.27-1l-1.07.94s-.07.33.19.1A10.59,10.59,0,0,1,172.39,133.72Z" transform="translate(-157.8 -112.48)"/>
    <path d="M170.27,134.68l.16,0,.26-.18.91-.83S170.52,134.45,170.27,134.68Z" transform="translate(-157.8 -112.48)"/>
    <path d="M169.87,134.68l.19,0,1-.91A7.69,7.69,0,0,0,169.87,134.68Z" transform="translate(-157.8 -112.48)"/>
    <path d="M169.47,134.66l.2,0,.65-.71A4.59,4.59,0,0,0,169.47,134.66Z" transform="translate(-157.8 -112.48)"/>
    <path d="M169.19,134.45l0,.1h.13s.14-.2.26-.41A2.3,2.3,0,0,1,169.19,134.45Z" transform="translate(-157.8 -112.48)"/>
    <path d="M180.43,133.71a2.2,2.2,0,0,0,.47-.31.93.93,0,0,1-.33.37S180.34,133.82,180.43,133.71Z" transform="translate(-157.8 -112.48)"/>
    <path d="M180.3,133.51a2.92,2.92,0,0,0,.37-.16.67.67,0,0,1-.29.26C180.21,133.68,180.3,133.51,180.3,133.51Z" transform="translate(-157.8 -112.48)"/>
    <path d="M180.15,133.39a1.9,1.9,0,0,0,.38-.19c0-.06-.05.06-.05.06S180.31,133.52,180.15,133.39Z" transform="translate(-157.8 -112.48)"/>
    <path d="M178.39,132.17s.09.09.39-.14c0,0-.11.25-.3.23S178.41,132.23,178.39,132.17Z" transform="translate(-157.8 -112.48)"/>
    <path d="M177.63,131.31s.53,0,.66.16.38.36.38.36l0,.07h-.14s0-.19-.14-.06a1.62,1.62,0,0,1-.25.16s.29-.33.12-.39,0,.14-.28.23c0,0,.22-.3.1-.29a.44.44,0,0,0-.21.15l-.09,0s.29-.29,0-.31l-.07,0A.73.73,0,0,0,177.63,131.31Z" transform="translate(-157.8 -112.48)"/>
    <path d="M178.81,134.3l.06-.06.36-.21S178.94,134.4,178.81,134.3Z" transform="translate(-157.8 -112.48)"/>
    <path d="M179,134.52a1.92,1.92,0,0,1,.48-.41S179.24,134.48,179,134.52Z" transform="translate(-157.8 -112.48)"/>
    <path d="M179.21,134.66a1.33,1.33,0,0,1,.47-.33S179.44,134.65,179.21,134.66Z" transform="translate(-157.8 -112.48)"/>
    <path d="M179.46,134.81a1.79,1.79,0,0,1,.39-.36S179.69,134.81,179.46,134.81Z" transform="translate(-157.8 -112.48)"/>
    <path d="M179.68,134.94a1.9,1.9,0,0,0,.6-.42s-.07.3-.16.33,0,.15.16.06a.52.52,0,0,0,.2-.29s.09.28-.1.33,0,.15.16,0-.14.29-.46.4c0,0,.17-.26.07-.26s-.13,0-.13,0V135S179.72,135.07,179.68,134.94Z" transform="translate(-157.8 -112.48)"/>
    <path d="M176.94,133a1.44,1.44,0,0,0,.15-.14s.38,0,.47-.21c0,0-.06.17,0,.17a.77.77,0,0,0,.26-.1s-.15.29,0,.29a.65.65,0,0,0,.32-.16.37.37,0,0,1-.13.22c-.1.06,0,.21.2.06a.89.89,0,0,0-.1.18.93.93,0,0,0-.07.24s-.05,0-.19.05a4.82,4.82,0,0,1-.49.32c-.07,0,.62-.59.49-.61s-.58.37-.58.37.51-.55.39-.58-.35.21-.35.21.29-.45.11-.39-.18.13-.18.13S177.32,132.72,176.94,133Z" transform="translate(-157.8 -112.48)"/>
    <path d="M186.74,131.25l.22-.13S187,131.25,186.74,131.25Z" transform="translate(-157.8 -112.48)"/>
    <path d="M183.55,131.77l.26-.23S183.92,131.7,183.55,131.77Z" transform="translate(-157.8 -112.48)"/>
    <g>
      <path d="M185.8,135a13.45,13.45,0,0,1-1.81-.12,2,2,0,0,1-.43,0v0h-.11s.19-.27.35-.33.27-.39.27-.39a2.67,2.67,0,0,1-.78.58c-.43.19.23-.46.49-.62a.89.89,0,0,0,.35-.42,7.35,7.35,0,0,1-1.1.91c-.37.2-.22-.07-.22-.07a4.5,4.5,0,0,1,.6-.48.37.37,0,0,0,.18-.29s-.63.62-.8.62-.08-.09.18-.26a.77.77,0,0,0,.32-.43,1.63,1.63,0,0,1-.53.43c-.23.07-.1-.16.05-.25a.68.68,0,0,0,.25-.33l-.4.32c-.16.12-.15-.06-.05-.14a1.23,1.23,0,0,0,.2-.29,1.25,1.25,0,0,0-.23.17c-.17.14-.23-.12-.14-.15s.19-.21.13-.15a1.57,1.57,0,0,1-.3.13h0a.06.06,0,0,0-.06,0,2.66,2.66,0,0,0,.17.55,1.53,1.53,0,0,1,.12.58c-.19.47-.41.39-.34.21a.63.63,0,0,0,.18-.19l-.14,0a.42.42,0,0,0,0-.15l.12-.1-.15,0a.93.93,0,0,1-.05-.1l.07-.08H182a2.76,2.76,0,0,1-.2-.36l0-.1a.72.72,0,0,1,.06-.47l-.08,0c-.09,0,0-.12,0-.12l.29-.28a.81.81,0,0,0,.09.31.67.67,0,0,1,.07-.37,1.06,1.06,0,0,0,.14-.29,1.09,1.09,0,0,0-.23-.74c-.26-.26-.36-.33-.4-.46a.5.5,0,0,0,.16.28,1.11,1.11,0,0,1,.19.43l-.11.08.09,0h.06a.53.53,0,0,1,0,.11,4.18,4.18,0,0,1-.41.42.16.16,0,0,1-.23,0c-.05,0,0-.17.15-.27l-.21.14a.08.08,0,0,1-.09,0l0,0a.09.09,0,0,1,0-.13,2.73,2.73,0,0,0,.42-.46,2.31,2.31,0,0,1-.55.37c-.17.05-.19.05-.07-.06a2.12,2.12,0,0,0,.31-.39c-.08.1-.36.39-.56.32s.32-.32.23-.32a1.77,1.77,0,0,0-.39.19c-.34,0,.15-.33.07-.33s-.36.19-.43.13.19-.22.19-.22a.94.94,0,0,0-.29.13c-.14.1-.22-.14-.22-.14-.41.16-.2-.16-.2-.16-.36.13-.42.07-.42.07h0a1.07,1.07,0,0,1-.36-.27l-.06-.07a.64.64,0,0,1,.14-.28,1.83,1.83,0,0,1-.33.13l-.07,0c0-.08.25-.26.25-.26a3.93,3.93,0,0,1-.39.2l-.07,0a2.42,2.42,0,0,1,.23-.28,4.58,4.58,0,0,1-.42.23h-.11a1.3,1.3,0,0,1,.11-.25,1,1,0,0,1-.39.22h-.1c-.16-.08.18-.34.18-.34a4.75,4.75,0,0,1-.47.32h-.11c0-.09.18-.31.1-.22a.61.61,0,0,1-.32.16.16.16,0,0,1,0-.11l.28-.27-.27.1a1.2,1.2,0,0,1,0-.22c-.33.64-.68.73-.93.75,0-.14.15-.13.15-.13a.68.68,0,0,0,.4-.51s-.23.39-.34.41-.05-.19-.05-.19l-.42.45a1.08,1.08,0,0,1-.53,0,1.32,1.32,0,0,0,.27-.29c-.15,0-.28.23-.31.28a.88.88,0,0,1-.43-.26.25.25,0,0,1,.11-.44l.1,0c0,.15.16.33.56.16a.46.46,0,0,0,.3-.55h0a.92.92,0,0,1,.45-.13.49.49,0,0,1,.2.39.33.33,0,0,0,0-.38c.17,0,.31.12.48.15s1.32.2,1.32.2.75-.06.9.12.37.11.69.23l.1,0a.21.21,0,0,1-.06.17s.45-.26.35.13c0,0,.48-.24.27.1,0,0,.42-.26.31.08,0,0,.31-.22.27.07l.24-.08.05,0c.2.06.6.67.6.67,0-.24-.26-.58-.26-.58h.15s0,.09,0,.11.13-.13.21-.07-.06.23-.06.23.29-.29.36-.23-.2.35-.2.35a1.12,1.12,0,0,0,.28-.15c.06,0,.25-.29.37-.19s-.54.58-.54.58.1,0,.33-.14a4.89,4.89,0,0,0,.49-.41s.38-.1.25,0a2.75,2.75,0,0,1-.52.45c-.25.13.24,0,.48-.23s.63-.36.6-.25-.24.22-.24.22a.47.47,0,0,0,.34-.11c.13-.13.58-.26.49-.12s-.18.16-.18.16.27,0,.36-.15.36,0,.21.06.1,0,.2-.1.55-.17.44-.06a2.92,2.92,0,0,1-.25.22.34.34,0,0,0,.29-.09c.1-.11.59-.29.49-.18l-.17.18.2-.1a.58.58,0,0,0,.13-.14c.46,0,.93,0,1.22,0a.22.22,0,0,1-.1.2.76.76,0,0,0,.25-.2h.13c0,.07.05.14,0,.16l-.1.06.13,0v-.24h0v-.2s-4.21.15-4.7.18-1.36-.09-1.61-.09a13.32,13.32,0,0,1-1.88-.52,3,3,0,0,0-1.18-.35,9.75,9.75,0,0,1-1.62-.17c-.11-.06-.78-.24-.92,0a2.84,2.84,0,0,1-1.24.55c-.23,0-.17.37-.17.37-.18.26-1.62.21-1.62.21s-2-.21-2.77-.21a11.28,11.28,0,0,0-1.24.06v.18h.24s0,.08-.06.14-.18.25-.18.25.47-.31.63-.38h.05s0,.08-.07.13a.34.34,0,0,0-.17.25,6.81,6.81,0,0,1,.6-.37h.09s0,.07-.07.12-.18.25-.18.25.38-.25.57-.35h.12s0,.06-.08.1-.18.25-.18.25.34-.23.55-.34h.17a.29.29,0,0,1-.08.08.34.34,0,0,0-.17.25l.5-.32h.17a.22.22,0,0,1-.07.06.34.34,0,0,0-.17.25l.47-.3.75.05.71,0v.14s.34-.28.33,0c0,0,.47-.32.45-.05,0,0,.38-.24.33.08,0,0,.59-.57.37-.05,0,0,.42-.29.23.12,0,0,.61-.3.16.16,0,0,.92-.54.25.17,0,0,1-.63.67-.16,0,0,.71-.46.65-.17l.3-.18.29,0a1.93,1.93,0,0,1,1.76.52,3.23,3.23,0,0,0,1,.52,2.35,2.35,0,0,1,1.16.72c.37.52.32,1.05.52,1.34s.17.6.06.63-.08.08-.11.16l-.1.05a.62.62,0,0,1-.26.13c-.17,0-.17-.11-.05-.12a.8.8,0,0,0,.37-.26c0-.06.15-.07.15-.07a.36.36,0,0,0-.16,0,.55.55,0,0,1-.32.23c-.19,0-.3-.1-.12-.14s.29-.29.29-.29a.4.4,0,0,1-.33.2c-.22,0-.16-.16,0-.19s.24-.24.24-.24a1.24,1.24,0,0,1-.37.19c-.1,0-.28-.11,0-.19a.53.53,0,0,0,.33-.28s-.27.22-.41.22-.12-.12-.12-.12a1.06,1.06,0,0,0,.38-.18c.1-.12.18-.28,0-.18s-.2.09-.11-.14a.69.69,0,0,0,.06-.32c-.05.4-.6.59-.6.59a.3.3,0,0,0,.23,0c.11-.06.08.08,0,.16a.34.34,0,0,1-.15,0h0a2.74,2.74,0,0,0-.69-.46s-.14-.09.06-.22a.51.51,0,0,0,.2-.21,1.45,1.45,0,0,1-.39.21c-.07,0-.2-.07-.06-.13a.35.35,0,0,0,.19-.23.51.51,0,0,1-.26.16c-.19.06-.11-.09-.07-.09s.13-.14.13-.14a.31.31,0,0,1-.19.07c-.13,0-.22-.09-.13-.09s.23-.17.23-.17l-.27.09c-.16,0-.2-.09-.13-.11s.11-.11.11-.11a.8.8,0,0,1-.21.07c-.15,0-.19-.11-.07-.14s.16-.17.17-.19,0,.07-.22.14-.19-.1-.19-.1l.26-.19s.09-.14-.08,0a.68.68,0,0,1-.36.16l-.06.09,0,0,0,0a.39.39,0,0,1,.23.37l1.19,1a2.65,2.65,0,0,1,.66.67.72.72,0,0,1,.09.4.56.56,0,0,1-.18.26,2.29,2.29,0,0,0-.3.33,3.69,3.69,0,0,0,.36-.23c.09-.07.29-.14.2,0s-.43.35-.43.35a.44.44,0,0,0,.39-.16c.17-.2.29-.06.13.09s-.25.24-.37.26.2.07.3,0,.17,0,0,.16l-.14.08a.51.51,0,0,1,.17,0l-.11.1c-.35.26-.78-.63-.84-.78a6.39,6.39,0,0,0-1-.87l-.1-.07c0-.05,0-.1-.09-.11s0-.16.16-.26a.29.29,0,0,0,.12-.27l-.07.11a2.52,2.52,0,0,0-.35.29c0,.05-.23-.12,0-.22s.16-.32.14-.25-.28.25-.33.28-.2-.05,0-.18a1.11,1.11,0,0,0,.28-.3,2.42,2.42,0,0,1-.28.2l-.23.15h0l-.08,0,.29.32-.18.09c.41.15.49.35.87.52a.88.88,0,0,1,.46.46.18.18,0,0,1,.17.15c-.37.43-.26.06-.26.06-.69.63-.34,0-.34,0a.77.77,0,0,1-.25.17,0,0,0,0,0,0,0s-.29.17-.37.12-.06,0,.17-.13.19-.28.19-.28l0,0a.78.78,0,0,1-.29.19c-.16.06-.2-.11-.14-.11a1.46,1.46,0,0,0,.29-.18l.11-.14s-.09,0-.1,0-.27.15-.32.16a.33.33,0,0,1-.16,0l0,0,.06,0a.44.44,0,0,0,.26-.27c0,.07-.24.14-.32.2s-.07,0-.1,0l-.05-.05s0-.06,0-.07a1.18,1.18,0,0,0,.28-.28,3.93,3.93,0,0,1-.36.21c-.09,0-.2-.11-.12-.12s.25-.26.25-.26a.88.88,0,0,1-.35.16c-.13,0,.19-.33.19-.33a1,1,0,0,1-.33.15c-.15,0-.09-.08-.09-.08l.23-.28a2,2,0,0,1-.43.25l-.07,0a.83.83,0,0,1,.17-.19,1.81,1.81,0,0,0,.23-.2c-.17.06-.5-.18-.53-.25s-.22,0-.22,0-.4.33-.52.45a.7.7,0,0,1-.21.14.08.08,0,0,0-.06,0c-.16,0,.7-.71.7-.71-.56.29-.75.68-1,.65s.84-.93.84-.93a18.29,18.29,0,0,0-1.49,1.19c-.3.19-.11-.12-.11-.12s.57-.58.79-.75.17-.2.17-.2a11.34,11.34,0,0,0-1.08.84c-.27.2-.14-.1-.14-.1l1.15-1.06s-1.11.84-1.34,1.07-.16,0-.11,0,.62-.67.62-.67a3.81,3.81,0,0,0-.9.71c-.13.15-.11.1-.14,0s.54-.62.54-.62a4.63,4.63,0,0,0-.82.63c-.2.19-.27.21-.27.11a4.36,4.36,0,0,1,.6-.74,5.77,5.77,0,0,0-1,.9.47.47,0,0,1-.16.12h0c-.07,0-.1-.09.06-.25.32-.3,1.1-1.09,1.1-1.09a9.72,9.72,0,0,0-1.13.87,5,5,0,0,0-.45.43c-.06,0-.27.07,0-.2s1.08-1,1.08-1a16.42,16.42,0,0,0-1.43,1.16s-.17.25-.26.09a.79.79,0,0,1,.18-.22c.08-.06.59-.57.59-.57a3.15,3.15,0,0,0-.9.71,2.33,2.33,0,0,1-.24.19l-.19,0c-.2.06-2,.09-2,.09v.29c.32-.06,4.27-.29,4.27-.29-.06.17.12.35.12.35.28.78.89.43.89.43.06.78,1,.67,1,.67a.85.85,0,0,0,1.12.49,1,1,0,0,0,1.47.29,1,1,0,0,0,1.16.06c.2-.09.14-.5.14-.5.58.35.95-.37.95-.37.67.29.84-.55.84-.55a1.1,1.1,0,0,0,.69-.52,1.26,1.26,0,0,0,.55-.29c.95-.06,5.74.37,5.74.37v-.2A7.42,7.42,0,0,0,185.8,135Zm-10.4-4.65c.14-.06.36-.15.6-.27.11.18,0,.36-.36.43S175.38,130.38,175.4,130.32Zm6.27,2.74c-.19,0,0-.19.28-.45.12-.09.17-.11.19-.09a.37.37,0,0,1-.07.27l0,0S181.85,133.09,181.67,133.06Zm-7.75,2.6c-.11,0-.15-.16-.17-.3a.63.63,0,0,1,.21.1,1.45,1.45,0,0,1,.2.15A.25.25,0,0,1,173.92,135.66Zm.71-.43a.56.56,0,0,0-.22.13v.08l-.1.05c-.18,0-.12,0-.35-.16s.27-.33.27-.33a.94.94,0,0,0-.34.11.18.18,0,0,1-.15,0s0-.07,0-.09V135l.23-.13-.22.05a1.09,1.09,0,0,1,.05-.17l.34-.12a.53.53,0,0,1,.51.14.44.44,0,0,1,.15.26Zm1.66-.35a.19.19,0,0,0,0-.16c.11,0,.15,0,.16,0A1,1,0,0,0,176.29,134.88Zm.11-.3a.37.37,0,0,1-.2,0h0a2.46,2.46,0,0,1,.75-.59c.15-.05,0,.17,0,.17S176.52,134.51,176.4,134.58Zm.67-.18-.14.1-.2.06c.07-.11.23-.35.36-.4S177.14,134.35,177.07,134.4Zm4.44,1c-.08,0-.18.1-.28,0a.18.18,0,0,1,.06-.05l.22-.13a.17.17,0,0,1,.13,0C181.6,135.27,181.56,135.38,181.51,135.4Z" transform="translate(-157.8 -112.48)"/>
      <path d="M177.5,130.46l0,0Z" transform="translate(-157.8 -112.48)"/>
      <path d="M180.7,136.05h-.07S180.64,136.06,180.7,136.05Z" transform="translate(-157.8 -112.48)"/>
      <path d="M180.18,133.14s0,0,0,0Z" transform="translate(-157.8 -112.48)"/>
      <polygon points="22.39 20.66 22.38 20.67 22.38 20.67 22.39 20.66"/>
      <path d="M181.8,132.35a.34.34,0,0,0-.16.12C181.74,132.41,181.83,132.35,181.8,132.35Z" transform="translate(-157.8 -112.48)"/>
    </g>
    <path d="M184.15,134l.53-.39C184.75,133.55,184.41,134,184.15,134Z" transform="translate(-157.8 -112.48)"/>
    <path d="M185,133.71l-1.2,1h.65a4,4,0,0,0,.81-.88,4.35,4.35,0,0,1-.88.68c-.19,0-.24.06,0-.16A3.33,3.33,0,0,0,185,133.71Z" transform="translate(-157.8 -112.48)"/>
    <path d="M185.89,133.68a10.45,10.45,0,0,1-1.22,1.07s.51.15.64,0,.77-.58.93-.91a12.78,12.78,0,0,1-1.11.84c-.12,0-.12-.09.07-.22S185.93,133.77,185.89,133.68Z" transform="translate(-157.8 -112.48)"/>
    <path d="M185.57,134.77s.61-.5.71-.61-.06.16-.06.16S185.83,134.78,185.57,134.77Z" transform="translate(-157.8 -112.48)"/>
    <path d="M186.42,134.17s0-.17.25-.32C186.67,133.85,186.53,134.13,186.42,134.17Z" transform="translate(-157.8 -112.48)"/>
    <path d="M186,134.79a5,5,0,0,0,1-.85S186.38,134.91,186,134.79Z" transform="translate(-157.8 -112.48)"/>
    <path d="M186.4,134.81a7.24,7.24,0,0,0,1-.8S186.71,135,186.4,134.81Z" transform="translate(-157.8 -112.48)"/>
    <path d="M186.84,134.84a4.33,4.33,0,0,0,.88-.68S187.26,135,186.84,134.84Z" transform="translate(-157.8 -112.48)"/>
    <path d="M187.32,134.88a8.71,8.71,0,0,0,.79-.65S187.59,135,187.32,134.88Z" transform="translate(-157.8 -112.48)"/>
    <path d="M187.75,135a3.59,3.59,0,0,0,.38-.3C188.2,134.56,188.18,135,187.75,135Z" transform="translate(-157.8 -112.48)"/>
    <path d="M178.54,136l0,0,.22-.1s-.12.15.11.17a1.86,1.86,0,0,0,.83-.45c.13-.12.18.1.07.15s-.35.34-.56.39.12.07.38-.15.52-.27.29,0a1.2,1.2,0,0,1-.43.32s.26,0,.35-.13.36-.25.21,0-.27.21-.27.21a.23.23,0,0,0,.22,0c.07-.07.17-.14.18-.07a.43.43,0,0,1-.26.36.53.53,0,0,1-.59,0,5.51,5.51,0,0,0-.62-.43A.39.39,0,0,1,178.54,136Z" transform="translate(-157.8 -112.48)" fill="#fff"/>
    <path d="M177.9,136.92a1.75,1.75,0,0,1,.25-.65c.16-.17.42-.1.4,0s-.45.31-.45.31a.18.18,0,0,0,.23,0c.13-.11.48-.34.39-.12s-.46.36-.46.36a.83.83,0,0,0,.45-.17c.11-.15.22-.19.23-.09s-.46.39-.46.39.33,0,.36-.1.33-.32.23-.07-.26.24-.26.24.2,0,.26-.1.13,0,.1.1a.77.77,0,0,1-.29.28s-.27.09-.37,0S177.9,136.92,177.9,136.92Z" transform="translate(-157.8 -112.48)" fill="#fff"/>
    <path d="M177.54,135.49s0-.17.09-.16a.3.3,0,0,1,.14.06s.39.27.33.59a1.41,1.41,0,0,1-.27.59,1.24,1.24,0,0,1-.07.32,2.61,2.61,0,0,1-.41.23,1.33,1.33,0,0,1,.31,0c.05,0,.23.07.11.11s-.69.2-.82-.14c0,0,.43-.06.52-.25a.72.72,0,0,1-.4.12c-.25,0-.25-.12-.15-.13a1.43,1.43,0,0,0,.59-.22,1.78,1.78,0,0,1-.46.07c-.07,0-.22-.11,0-.14s.43-.08.5-.19.54-.44.29-.68S177.54,135.49,177.54,135.49Z" transform="translate(-157.8 -112.48)" fill="#fff"/>
    <path d="M177.41,135.71l.06-.1s.06-.06.14,0,.16.17.12.23-.2.06-.2.06l.1.07s-.07.17-.12.17-.29,0-.27-.11a.54.54,0,0,1,.26-.28c.08,0,0,0,0,0Z" transform="translate(-157.8 -112.48)" fill="#fff"/>
    <path d="M177.12,136.31s0-.13.1-.1S177.5,136.37,177.12,136.31Z" transform="translate(-157.8 -112.48)" fill="#fff"/>
    <path d="M176.1,135.49a.18.18,0,0,0,.2-.07,2.37,2.37,0,0,0,.2-.39s.22-.31.45-.19.45.32.33.5-.23.57-.59.44-.26,0-.26,0l-.48.13s-.07.12,0,.13.11,0,.26-.07a2.78,2.78,0,0,1,.36,0h0a3.53,3.53,0,0,0-.44.16.88.88,0,0,1-.26.09s-.08.13.14.06a1.22,1.22,0,0,1,.32-.07,1.38,1.38,0,0,0,.39-.12,1.59,1.59,0,0,1-.3.17,1.7,1.7,0,0,0-.35.18s0,0,.16,0a1,1,0,0,0,.33-.14.39.39,0,0,1-.39.26.65.65,0,0,1-.43-.21.15.15,0,0,0,0,.25.59.59,0,0,0,.92,0c.09-.16,1.11-1.19.74-1.61,0,0-.44-.48-.88-.13A2,2,0,0,0,176.1,135.49Z" transform="translate(-157.8 -112.48)" fill="#fff"/>
    <path d="M176.17,135.72s0-.09,0-.09.17-.13.17-.13S176.46,135.72,176.17,135.72Z" transform="translate(-157.8 -112.48)" fill="#fff"/>
    <path d="M177,135.53l-.06,0-.07,0a1,1,0,0,1,.24-.13h.06s0-.15,0-.2l-.06,0h-.06l-.06.06,0,.05h-.12l0-.05.13,0,.09-.05s-.13-.12-.19-.11-.1,0-.14.05l-.12.16s-.1.2-.06.29a1,1,0,0,0,.38.24C177,135.71,177.07,135.56,177,135.53Z" transform="translate(-157.8 -112.48)" fill="#fff"/>
    <path d="M175.1,134.91s0,.09.21,0a.36.36,0,0,1,.41.1,1.16,1.16,0,0,1,.22.46c0,.16.33-.37.1-.56s-.4-.35-.75-.17Z" transform="translate(-157.8 -112.48)" fill="#fff"/>
    <path d="M175,135.32s0-.12.12-.25.26-.17.33-.12.46.29.4.52-.6.19-.62.14A1.54,1.54,0,0,0,175,135.32Z" transform="translate(-157.8 -112.48)" fill="#fff"/>
    <path d="M174.79,135.45s.18-.09.14,0a.39.39,0,0,1-.16.2.52.52,0,0,0,.19,0s.2-.13.19,0-.22.26-.22.26a.33.33,0,0,0,.2,0c.12,0,.35-.25.39-.22s.15,0,0,.09l-.21.2s.16,0,.21-.07a1.12,1.12,0,0,1,.25-.2s.16,0,.08.07-.38.51-.71.51a.72.72,0,0,1-.59-.47C174.6,135.74,174.73,135.46,174.79,135.45Z" transform="translate(-157.8 -112.48)" fill="#fff"/>
    <path d="M175.39,135.53l.09-.08s.1-.13.1-.18.07.06.06.12S175.39,135.53,175.39,135.53Z" transform="translate(-157.8 -112.48)"/>
  </g>
  <path d="M207.74,120.82v11c0,4.16,2.55,5.92,6,5.92,3.81,0,6.26-1.81,6.26-5.92v-11h3.36v10.83c0,5.7-4.16,8-9.74,8-5.26,0-9.23-2.18-9.23-7.93V120.82Z" transform="translate(-157.8 -112.48)" stroke="#FFF" fill="#FFF" stroke-miterlimit="10" stroke-width="2"/>
  <path d="M228.94,136.6a11.75,11.75,0,0,0,5.19,1.23c3,0,4.69-1.31,4.69-3.21,0-1.75-1.2-2.75-4.22-3.73-3.66-1.09-5.92-2.68-5.92-5.33,0-2.92,2.89-5.1,7.25-5.1a11.87,11.87,0,0,1,4.95.92l-.8,2a10.36,10.36,0,0,0-4.25-.89c-3.06,0-4.23,1.53-4.23,2.82,0,1.75,1.37,2.62,4.46,3.62,3.79,1.23,5.72,2.76,5.72,5.52s-2.56,5.41-7.85,5.41a13.37,13.37,0,0,1-5.72-1.2Z" transform="translate(-157.8 -112.48)" stroke="#FFF" fill="#FFF" stroke-miterlimit="10" stroke-width="2"/>
  <path d="M267.9,139.73h-3.35l-2.73-5.46H250.88l-2.57,5.46h-3.37l9.9-19.47H258Zm-7.07-7.51-4.05-8.3a6.85,6.85,0,0,1-.4-1.3h-.07a6.07,6.07,0,0,1-.41,1.3l-4,8.3Z" transform="translate(-157.8 -112.48)" stroke="#FFF" fill="#FFF" stroke-miterlimit="10" stroke-width="2"/>
  <path d="M274.07,121.16v18.57h-2.48V121.16Z" transform="translate(-157.8 -112.48)" stroke="#FFF" fill="#FFF" stroke-miterlimit="10" stroke-width="2"/>
  <path d="M281.35,121.28a48.43,48.43,0,0,1,6-.38c4.09,0,7,.8,8.93,2.32a7.93,7.93,0,0,1,3.11,6.68,9,9,0,0,1-3.17,7.24c-2.06,1.75-5.47,2.69-9.75,2.69-2,0-3.73-.09-5.17-.23Zm2.85,16.47a21.23,21.23,0,0,0,2.88.14c6.08,0,9.38-2.87,9.38-7.9,0-4.4-2.91-7.19-8.93-7.19a18.76,18.76,0,0,0-3.33.25Z" transform="translate(-157.8 -112.48)" stroke="#FFF" fill="#FFF" stroke-miterlimit="10" stroke-width="2"/>
  <g>
    <path d="M213.17,148.71c0,1-.56,1.56-1.67,1.56a2,2,0,0,1-.73-.12,1.49,1.49,0,0,1-.53-.33,1.39,1.39,0,0,1-.32-.48,1.61,1.61,0,0,1-.1-.58v-.22a1,1,0,0,1,0-.23,2.72,2.72,0,0,1,.11-.25,2,2,0,0,1,.17-.27c.06-.09.13-.17.2-.26l.68.29a2.57,2.57,0,0,0-.22.44.8.8,0,0,0-.07.28v.23a1.18,1.18,0,0,0,0,.34.62.62,0,0,0,.13.24.49.49,0,0,0,.24.15,1.27,1.27,0,0,0,.37.05,1.11,1.11,0,0,0,.34-.05.57.57,0,0,0,.24-.14.7.7,0,0,0,.15-.27,1.54,1.54,0,0,0,0-.4v-.36a1.15,1.15,0,0,0-.06-.37,2,2,0,0,0-.17-.32,1.62,1.62,0,0,0-.25-.28l-.27-.26-.31-.3a2.08,2.08,0,0,1-.27-.32,1.24,1.24,0,0,1-.19-.36,1.29,1.29,0,0,1-.08-.45v-.54h.87v.54a.87.87,0,0,0,.05.28,1,1,0,0,0,.16.25,2.25,2.25,0,0,0,.21.24l.25.24h0c.12.1.24.22.35.33a2.76,2.76,0,0,1,.31.37,2.18,2.18,0,0,1,.22.43,1.46,1.46,0,0,1,.08.52Z" fill="#FFF" transform="translate(-157.8 -112.48)"/>
    <path d="M217.23,148.83a1.46,1.46,0,0,1-.12.6,1.17,1.17,0,0,1-.34.45,1.46,1.46,0,0,1-.52.29,2.09,2.09,0,0,1-.67.1,2.13,2.13,0,0,1-.74-.12,1.55,1.55,0,0,1-.53-.31,1.39,1.39,0,0,1-.32-.48,1.53,1.53,0,0,1-.12-.6v-.67a1.31,1.31,0,0,1,.12-.53,1.43,1.43,0,0,1,.32-.49,1.66,1.66,0,0,1,.53-.36,1.91,1.91,0,0,1,.74-.14,2.87,2.87,0,0,1,.39,0,1.38,1.38,0,0,1,.4.17v-.54a.24.24,0,0,0-.07-.16.59.59,0,0,0-.17-.13.82.82,0,0,0-.25-.07l-.27,0a1.26,1.26,0,0,0-.5.08c-.11,0-.17.11-.17.19v.26H214v-.26a.62.62,0,0,1,.13-.38,1.25,1.25,0,0,1,.36-.32,1.88,1.88,0,0,1,.5-.21,2,2,0,0,1,.59-.08,2.09,2.09,0,0,1,.61.08,1.73,1.73,0,0,1,.52.22,1.29,1.29,0,0,1,.35.35.83.83,0,0,1,.14.46Zm-.9-.75a1,1,0,0,0-.06-.36.63.63,0,0,0-.16-.25.72.72,0,0,0-.24-.14,1.06,1.06,0,0,0-.31,0,.74.74,0,0,0-.34.07.79.79,0,0,0-.25.19.93.93,0,0,0-.15.26.92.92,0,0,0,0,.28v.67a.88.88,0,0,0,.06.33.72.72,0,0,0,.16.25.76.76,0,0,0,.26.16.9.9,0,0,0,.34.06.71.71,0,0,0,.55-.21.82.82,0,0,0,.19-.59Z" fill="#FFF" transform="translate(-157.8 -112.48)"/>
    <path d="M221.41,149a1.15,1.15,0,0,1-.14.57,1.24,1.24,0,0,1-.37.39,1.69,1.69,0,0,1-.53.22,2.67,2.67,0,0,1-.64.07,2.09,2.09,0,0,1-.67-.1,1.67,1.67,0,0,1-.53-.28,1.24,1.24,0,0,1-.35-.41,1.19,1.19,0,0,1-.13-.53,1.83,1.83,0,0,1,0-.35.82.82,0,0,1,.07-.28.79.79,0,0,1,.14-.23,1.7,1.7,0,0,1,.23-.24l.67.23a1.62,1.62,0,0,0-.13.19,1.07,1.07,0,0,0-.07.19.73.73,0,0,0,0,.22,2.44,2.44,0,0,0,0,.28.55.55,0,0,0,.19.44,1.2,1.2,0,0,0,1.16,0,.46.46,0,0,0,.21-.4v-2.66a.44.44,0,0,0-.17-.35.75.75,0,0,0-.47-.14,1,1,0,0,0-.51.13.42.42,0,0,0-.19.37,1,1,0,0,0,0,.17.68.68,0,0,0,.06.21l-.7.22-.11-.14-.07-.13a.58.58,0,0,1-.05-.14,1.09,1.09,0,0,1,0-.19,1.15,1.15,0,0,1,.11-.5,1.05,1.05,0,0,1,.31-.39,1.62,1.62,0,0,1,.47-.25,2.47,2.47,0,0,1,.63-.08,2.53,2.53,0,0,1,.63.07,1.55,1.55,0,0,1,.5.24,1.12,1.12,0,0,1,.34.38,1.08,1.08,0,0,1,.12.52Z" fill="#FFF" transform="translate(-157.8 -112.48)"/>
    <path d="M227.79,148.59a.85.85,0,0,1-.07.33,1.41,1.41,0,0,1-.18.37,2,2,0,0,1-.29.37,1.85,1.85,0,0,1-.37.31,1.88,1.88,0,0,1-.45.22,1.54,1.54,0,0,1-.52.09v-.73a.72.72,0,0,0,.38-.1,1.19,1.19,0,0,0,.31-.23,1.21,1.21,0,0,0,.21-.31.8.8,0,0,0,.07-.31v-.48a1,1,0,0,0-.07-.43.91.91,0,0,0-.18-.27.76.76,0,0,0-.23-.13l-.22,0a.75.75,0,0,0-.24,0,.59.59,0,0,0-.23.13.74.74,0,0,0-.17.24,1,1,0,0,0-.07.37v.88h-.9V148a.82.82,0,0,0-.07-.37.61.61,0,0,0-.17-.24.5.5,0,0,0-.22-.13.66.66,0,0,0-.23,0,1.09,1.09,0,0,0-.26,0,.76.76,0,0,0-.23.13.88.88,0,0,0-.16.27,1.27,1.27,0,0,0-.06.43v.49a.73.73,0,0,0,.07.31,1.25,1.25,0,0,0,.19.3,1.5,1.5,0,0,0,.31.24.91.91,0,0,0,.41.09v.72a2,2,0,0,1-1-.31,1.89,1.89,0,0,1-.37-.32,1.72,1.72,0,0,1-.26-.36,1.66,1.66,0,0,1-.16-.37,1.12,1.12,0,0,1,0-.34v-.45a3.61,3.61,0,0,1,.07-.73,2.55,2.55,0,0,1,.25-.7,2.35,2.35,0,0,1,.49-.62,2.75,2.75,0,0,1,.77-.49,4.87,4.87,0,0,1,1.11-.33,8.28,8.28,0,0,1,1.5-.12v.72a6.23,6.23,0,0,0-1.76.21,2.59,2.59,0,0,0-1.09.56l.24-.05a1.66,1.66,0,0,1,.32,0,1.16,1.16,0,0,1,.32.08,1.27,1.27,0,0,1,.29.18,1,1,0,0,1,.25.28,1.2,1.2,0,0,1,.27-.28,1.22,1.22,0,0,1,.29-.17.91.91,0,0,1,.31-.09,1.33,1.33,0,0,1,.28,0,2.33,2.33,0,0,1,.59.08,1.36,1.36,0,0,1,.52.27,1.31,1.31,0,0,1,.36.47,1.76,1.76,0,0,1,.14.73Z" fill="#FFF" transform="translate(-157.8 -112.48)"/>
    <path d="M232,148.2a3.91,3.91,0,0,1-.06.68,2.11,2.11,0,0,1-.2.63,1.51,1.51,0,0,1-.41.5,1.58,1.58,0,0,1-.68.3l-.09-.76c.18,0,.31-.12.4-.35a2.54,2.54,0,0,0,.14-1v-1.16a3.89,3.89,0,0,0,0-.51,1,1,0,0,0-.12-.38.76.76,0,0,0-.23-.24.81.81,0,0,0-.37-.08.83.83,0,0,0-.41.09.56.56,0,0,0-.24.24,1.21,1.21,0,0,0-.13.38,4.17,4.17,0,0,0,0,.52v1.14c0,.21,0,.4,0,.56a2.35,2.35,0,0,0,.06.42.7.7,0,0,0,.12.26.27.27,0,0,0,.2.09v.75a1.46,1.46,0,0,1-.51-.16,1.41,1.41,0,0,1-.35-.27,1.38,1.38,0,0,1-.23-.36,2,2,0,0,1-.13-.42,3.15,3.15,0,0,1,0-.43c0-.15,0-.3,0-.44v-1.13a3.55,3.55,0,0,1,0-.46,2.11,2.11,0,0,1,.1-.45,1.92,1.92,0,0,1,.19-.41,1.24,1.24,0,0,1,.31-.34,1.35,1.35,0,0,1,.45-.22,1.82,1.82,0,0,1,.6-.08,2.07,2.07,0,0,1,.86.15,1.38,1.38,0,0,1,.52.43,1.56,1.56,0,0,1,.24.61,3.57,3.57,0,0,1,.07.74Z" fill="#FFF" transform="translate(-157.8 -112.48)"/>
    <path d="M236.06,148.84a1.46,1.46,0,0,1-.11.55,1.39,1.39,0,0,1-.33.46,1.61,1.61,0,0,1-.53.31,2.2,2.2,0,0,1-.71.11,2.17,2.17,0,0,1-.69-.11,1.79,1.79,0,0,1-.53-.3,1.27,1.27,0,0,1-.34-.4.86.86,0,0,1-.11-.43v-.27a.75.75,0,0,1,0-.26.88.88,0,0,1,.1-.22,1.08,1.08,0,0,1,.16-.2,1.4,1.4,0,0,1,.2-.16l.61.41-.11.11a.52.52,0,0,0-.06.13.5.5,0,0,0,0,.13s0,.08,0,.11V149a.54.54,0,0,0,.05.21.53.53,0,0,0,.15.19.69.69,0,0,0,.24.14,1.11,1.11,0,0,0,.34.05,1.27,1.27,0,0,0,.37-.05.7.7,0,0,0,.24-.15.65.65,0,0,0,.13-.23.86.86,0,0,0,0-.28v-.32a1,1,0,0,0,0-.3A.84.84,0,0,0,235,148a.66.66,0,0,0-.19-.18.42.42,0,0,0-.24-.07h-.68V147h.64a.58.58,0,0,0,.19,0,.48.48,0,0,0,.16-.08.69.69,0,0,0,.11-.13.58.58,0,0,0,0-.19v-.22a.32.32,0,0,0-.06-.18.78.78,0,0,0-.16-.15.9.9,0,0,0-.22-.11,1,1,0,0,0-.24,0v-.72a1.37,1.37,0,0,1,.34,0,1.65,1.65,0,0,1,.36.11,2.27,2.27,0,0,1,.34.19,1.61,1.61,0,0,1,.28.24,1,1,0,0,1,.19.29.72.72,0,0,1,.07.33v.13a1,1,0,0,1-.12.52,1.17,1.17,0,0,1-.35.35,1.05,1.05,0,0,1,.31.21,1.07,1.07,0,0,1,.19.28,1.68,1.68,0,0,1,.09.32c0,.12,0,.25,0,.38Z" fill="#FFF" transform="translate(-157.8 -112.48)"/>
    <path d="M240.15,149a1.14,1.14,0,0,1-.13.57,1.52,1.52,0,0,1-.37.39,1.86,1.86,0,0,1-.54.22,2.59,2.59,0,0,1-.63.07,2.15,2.15,0,0,1-.68-.1,1.78,1.78,0,0,1-.53-.28,1.37,1.37,0,0,1-.35-.41,1.18,1.18,0,0,1-.12-.53,3.49,3.49,0,0,1,0-.35,1.15,1.15,0,0,1,.07-.28,1.14,1.14,0,0,1,.15-.23,1.6,1.6,0,0,1,.22-.24l.67.23a1.45,1.45,0,0,0-.12.19,1.08,1.08,0,0,0-.08.19c0,.06,0,.14,0,.22V149a.52.52,0,0,0,.19.44.93.93,0,0,0,.59.15,1,1,0,0,0,.57-.15.46.46,0,0,0,.21-.4v-2.66a.42.42,0,0,0-.18-.35.73.73,0,0,0-.47-.14.92.92,0,0,0-.5.13.42.42,0,0,0-.19.37v.17a.74.74,0,0,0,.07.21l-.7.22-.12-.14-.07-.13a.57.57,0,0,1,0-.14,1,1,0,0,1,0-.19,1.15,1.15,0,0,1,.11-.5,1.3,1.3,0,0,1,.31-.39,1.55,1.55,0,0,1,.48-.25,2.33,2.33,0,0,1,.62-.08,2.48,2.48,0,0,1,.63.07,1.6,1.6,0,0,1,.51.24,1.1,1.1,0,0,1,.33.38,1.08,1.08,0,0,1,.12.52Z" fill="#FFF" transform="translate(-157.8 -112.48)"/>
    <path d="M248.06,147.1a1.24,1.24,0,0,1-.05.31,3.3,3.3,0,0,1-.13.37,3.47,3.47,0,0,1-.21.37,2.42,2.42,0,0,1-.27.36,3.22,3.22,0,0,1-.32.32,2.41,2.41,0,0,1-.36.23l-.6-.48a2,2,0,0,0,.42-.35,2.47,2.47,0,0,0,.33-.41,1.66,1.66,0,0,0,.2-.4,1.07,1.07,0,0,0,.08-.36v-.39a1.16,1.16,0,0,0-.05-.34.83.83,0,0,0-.12-.25.9.9,0,0,0-.19-.15.59.59,0,0,0-.23-.05.68.68,0,0,0-.31.06.38.38,0,0,0-.2.15.54.54,0,0,0-.09.22,1.27,1.27,0,0,0,0,.28v.94h-.86v-.94a2.46,2.46,0,0,0,0-.28.69.69,0,0,0-.08-.23.4.4,0,0,0-.17-.17.51.51,0,0,0-.27-.06.5.5,0,0,0-.26.06.44.44,0,0,0-.16.17.43.43,0,0,0-.09.23,1.09,1.09,0,0,0,0,.26v1h-.87v-1a2.28,2.28,0,0,0,0-.26.57.57,0,0,0-.07-.22.45.45,0,0,0-.18-.15.77.77,0,0,0-.34-.06.54.54,0,0,0-.27.07.61.61,0,0,0-.19.2.77.77,0,0,0-.1.28,1.34,1.34,0,0,0,0,.35v.43a1.51,1.51,0,0,0,.13.63,2.08,2.08,0,0,0,.37.54,2.94,2.94,0,0,0,.58.44,4.23,4.23,0,0,0,.75.32,6,6,0,0,0,.88.21,6.15,6.15,0,0,0,1,.07h.72v.79h-.7a7.28,7.28,0,0,1-1.37-.12,5.88,5.88,0,0,1-1.14-.33,4.27,4.27,0,0,1-.9-.49,3.49,3.49,0,0,1-.65-.62,2.58,2.58,0,0,1-.4-.7,2.38,2.38,0,0,1-.15-.73v-.46a2.18,2.18,0,0,1,.09-.63,1.38,1.38,0,0,1,.27-.51,1.32,1.32,0,0,1,.46-.34,1.76,1.76,0,0,1,.68-.12,1.66,1.66,0,0,1,.32,0,.94.94,0,0,1,.28.1,1.77,1.77,0,0,1,.24.17,1.86,1.86,0,0,1,.22.25,1.39,1.39,0,0,1,.4-.43,1,1,0,0,1,.56-.15,1,1,0,0,1,.55.15,1.55,1.55,0,0,1,.43.42,1.56,1.56,0,0,1,.49-.41,1.23,1.23,0,0,1,.55-.13,1.87,1.87,0,0,1,.59.09,1.43,1.43,0,0,1,.48.29,1.45,1.45,0,0,1,.32.47,1.54,1.54,0,0,1,.12.63Z" fill="#FFF" transform="translate(-157.8 -112.48)"/>
    <path d="M252.23,148.2a5.2,5.2,0,0,1-.06.68,2.11,2.11,0,0,1-.2.63,1.51,1.51,0,0,1-.41.5,1.57,1.57,0,0,1-.69.3l-.08-.76c.18,0,.31-.12.4-.35a2.75,2.75,0,0,0,.14-1v-1.16a3.89,3.89,0,0,0,0-.51,1.55,1.55,0,0,0-.12-.38.76.76,0,0,0-.23-.24.81.81,0,0,0-.37-.08.83.83,0,0,0-.41.09.56.56,0,0,0-.24.24,1.21,1.21,0,0,0-.13.38,4.17,4.17,0,0,0,0,.52v1.14c0,.21,0,.4,0,.56a2.35,2.35,0,0,0,.06.42.7.7,0,0,0,.12.26.25.25,0,0,0,.2.09v.75a1.46,1.46,0,0,1-.51-.16,1.41,1.41,0,0,1-.35-.27,1.38,1.38,0,0,1-.23-.36,2,2,0,0,1-.13-.42,2.1,2.1,0,0,1-.05-.43c0-.15,0-.3,0-.44v-1.13a3.55,3.55,0,0,1,0-.46,2.11,2.11,0,0,1,.1-.45,1.92,1.92,0,0,1,.19-.41,1.24,1.24,0,0,1,.31-.34,1.35,1.35,0,0,1,.45-.22,1.82,1.82,0,0,1,.6-.08,2.11,2.11,0,0,1,.86.15,1.28,1.28,0,0,1,.51.43,1.44,1.44,0,0,1,.25.61,4.42,4.42,0,0,1,.07.74Z" fill="#FFF" transform="translate(-157.8 -112.48)"/>
    <path d="M254.72,145.13h.9v1.67a1.47,1.47,0,0,1,.42-.18,1.63,1.63,0,0,1,.36-.05,2.37,2.37,0,0,1,.75.11,1.4,1.4,0,0,1,.52.3,1.21,1.21,0,0,1,.31.46,1.64,1.64,0,0,1,.1.6v.85a1.27,1.27,0,0,1-.1.5,1.31,1.31,0,0,1-.31.44,1.58,1.58,0,0,1-.52.32,2.11,2.11,0,0,1-.75.12,1.92,1.92,0,0,1-.69-.12,1.63,1.63,0,0,1-.53-.32,1.41,1.41,0,0,1-.34-.44,1.15,1.15,0,0,1-.12-.5Zm.9,3.66a.75.75,0,0,0,.21.56.91.91,0,0,0,1.14,0,.75.75,0,0,0,.21-.56v-.66a.93.93,0,0,0-.2-.63.78.78,0,0,0-.58-.21,1,1,0,0,0-.32,0,.58.58,0,0,0-.25.15.53.53,0,0,0-.15.25,1.08,1.08,0,0,0-.06.38Z" fill="#FFF" transform="translate(-157.8 -112.48)"/>
    <path d="M262.14,148.71q0,1.56-1.68,1.56a2,2,0,0,1-.73-.12,1.45,1.45,0,0,1-.52-.33,1.27,1.27,0,0,1-.32-.48,1.62,1.62,0,0,1-.11-.58v-.22a.66.66,0,0,1,0-.23.91.91,0,0,1,.11-.25,1.91,1.91,0,0,1,.16-.27c.06-.09.13-.17.2-.26l.69.29a2,2,0,0,0-.22.44.87.87,0,0,0-.08.28v.23a1.67,1.67,0,0,0,0,.34.62.62,0,0,0,.13.24.61.61,0,0,0,.24.15,1.27,1.27,0,0,0,.37.05,1.23,1.23,0,0,0,.35-.05.72.72,0,0,0,.24-.14.69.69,0,0,0,.14-.27,1.5,1.5,0,0,0,.05-.4v-.36a1.16,1.16,0,0,0-.07-.37,1.41,1.41,0,0,0-.17-.32,2.09,2.09,0,0,0-.24-.28,3.45,3.45,0,0,0-.28-.26l-.31-.3a2.08,2.08,0,0,1-.27-.32,1.55,1.55,0,0,1-.19-.36,1.29,1.29,0,0,1-.07-.45v-.54h.86v.54a.67.67,0,0,0,.06.28,1.28,1.28,0,0,0,.15.25,2.4,2.4,0,0,0,.22.24l.25.24h0l.34.33a2.17,2.17,0,0,1,.31.37,1.75,1.75,0,0,1,.22.43,1.46,1.46,0,0,1,.09.52Z" fill="#FFF" transform="translate(-157.8 -112.48)"/>
    <path d="M269.88,147.1a1.2,1.2,0,0,1,0,.31,3.3,3.3,0,0,1-.13.37,3.47,3.47,0,0,1-.21.37,2.42,2.42,0,0,1-.27.36,3.22,3.22,0,0,1-.32.32,2.41,2.41,0,0,1-.36.23l-.61-.48a2.06,2.06,0,0,0,.43-.35,2.47,2.47,0,0,0,.33-.41,2.13,2.13,0,0,0,.2-.4,1,1,0,0,0,.07-.36v-.39a1.18,1.18,0,0,0,0-.34.66.66,0,0,0-.31-.4.59.59,0,0,0-.23-.05.76.76,0,0,0-.32.06.4.4,0,0,0-.19.15.43.43,0,0,0-.09.22,1.27,1.27,0,0,0,0,.28v.94h-.86v-.94a2.46,2.46,0,0,0,0-.28,1,1,0,0,0-.08-.23.46.46,0,0,0-.17-.17.54.54,0,0,0-.27-.06.5.5,0,0,0-.26.06.46.46,0,0,0-.17.17.69.69,0,0,0-.09.23,2.11,2.11,0,0,0,0,.26v1H265v-1a2.28,2.28,0,0,0,0-.26.57.57,0,0,0-.07-.22.45.45,0,0,0-.18-.15.8.8,0,0,0-.34-.06.54.54,0,0,0-.27.07.61.61,0,0,0-.19.2.78.78,0,0,0-.11.28,2,2,0,0,0,0,.35v.43a1.51,1.51,0,0,0,.13.63,1.86,1.86,0,0,0,.37.54,2.94,2.94,0,0,0,.58.44,4.23,4.23,0,0,0,.75.32,5.67,5.67,0,0,0,.88.21,6.15,6.15,0,0,0,1,.07h.72v.79h-.7a7.2,7.2,0,0,1-1.37-.12,5.88,5.88,0,0,1-1.14-.33,4.27,4.27,0,0,1-.9-.49,3.21,3.21,0,0,1-.65-.62,2.35,2.35,0,0,1-.4-.7,2.38,2.38,0,0,1-.15-.73v-.46a2.18,2.18,0,0,1,.09-.63,1.14,1.14,0,0,1,.27-.51,1.23,1.23,0,0,1,.46-.34,1.76,1.76,0,0,1,.68-.12,1.66,1.66,0,0,1,.32,0,.79.79,0,0,1,.27.1,1.38,1.38,0,0,1,.25.17,1.86,1.86,0,0,1,.22.25,1.28,1.28,0,0,1,.4-.43,1,1,0,0,1,.56-.15,1,1,0,0,1,.55.15.46.46,0,0,0,.92,0,1.23,1.23,0,0,1,.55-.13,1.87,1.87,0,0,1,.59.09,1.66,1.66,0,0,1,.48.29,1.45,1.45,0,0,1,.32.47,1.73,1.73,0,0,1,.11.63Z" fill="#FFF" transform="translate(-157.8 -112.48)"/>
    <path d="M270.7,145.13h.9v1.67a1.47,1.47,0,0,1,.42-.18,1.63,1.63,0,0,1,.36-.05,2.35,2.35,0,0,1,.74.11,1.36,1.36,0,0,1,.53.3,1.21,1.21,0,0,1,.31.46,1.89,1.89,0,0,1,.1.6v.85a1.48,1.48,0,0,1-.1.5,1.31,1.31,0,0,1-.31.44,1.53,1.53,0,0,1-.53.32,2.09,2.09,0,0,1-.74.12,1.94,1.94,0,0,1-.7-.12,1.69,1.69,0,0,1-.52-.32,1.41,1.41,0,0,1-.34-.44,1.15,1.15,0,0,1-.12-.5Zm.9,3.66a.75.75,0,0,0,.21.56.77.77,0,0,0,.57.2.81.81,0,0,0,.57-.2.75.75,0,0,0,.21-.56v-.66a.93.93,0,0,0-.2-.63.78.78,0,0,0-.58-.21,1.15,1.15,0,0,0-.33,0,.61.61,0,0,0-.24.15.63.63,0,0,0-.16.25,1.4,1.4,0,0,0,0,.38Z" fill="#FFF" transform="translate(-157.8 -112.48)"/>
    <path d="M278.23,148.2a3.91,3.91,0,0,1-.06.68,2.11,2.11,0,0,1-.2.63,1.51,1.51,0,0,1-.41.5,1.58,1.58,0,0,1-.68.3l-.09-.76c.18,0,.31-.12.4-.35a2.54,2.54,0,0,0,.14-1v-1.16a3.89,3.89,0,0,0,0-.51,1,1,0,0,0-.12-.38.76.76,0,0,0-.23-.24.81.81,0,0,0-.37-.08.83.83,0,0,0-.41.09.56.56,0,0,0-.24.24,1.21,1.21,0,0,0-.13.38,4.17,4.17,0,0,0,0,.52v1.14c0,.21,0,.4,0,.56a2.35,2.35,0,0,0,.06.42.7.7,0,0,0,.12.26.27.27,0,0,0,.2.09v.75a1.46,1.46,0,0,1-.51-.16,1.41,1.41,0,0,1-.35-.27,1.38,1.38,0,0,1-.23-.36,2,2,0,0,1-.13-.42,3.15,3.15,0,0,1-.05-.43c0-.15,0-.3,0-.44v-1.13a3.55,3.55,0,0,1,0-.46,2.11,2.11,0,0,1,.1-.45,1.92,1.92,0,0,1,.19-.41,1.24,1.24,0,0,1,.31-.34,1.35,1.35,0,0,1,.45-.22,1.82,1.82,0,0,1,.6-.08,2.07,2.07,0,0,1,.86.15,1.28,1.28,0,0,1,.51.43,1.44,1.44,0,0,1,.25.61,4.42,4.42,0,0,1,.07.74Z" fill="#FFF" transform="translate(-157.8 -112.48)"/>
    <path d="M282.52,148.68a1.61,1.61,0,0,1-.12.63,1.5,1.5,0,0,1-.35.51,1.59,1.59,0,0,1-.53.33,1.87,1.87,0,0,1-.68.12,2,2,0,0,1-.67-.1,1.26,1.26,0,0,1-.53-.3,1.36,1.36,0,0,1-.35-.51,1.94,1.94,0,0,1-.12-.72v-3.51h.9v3.51a1.67,1.67,0,0,0,.05.42.7.7,0,0,0,.17.28.54.54,0,0,0,.24.16,1.06,1.06,0,0,0,.31.05.71.71,0,0,0,.34-.07.64.64,0,0,0,.25-.18.89.89,0,0,0,.15-.29,1.52,1.52,0,0,0,.05-.38v-.18a1,1,0,0,0-.09-.42,1.32,1.32,0,0,0-.25-.38l-.16-.18-.13-.18a1.07,1.07,0,0,1-.09-.19.48.48,0,0,1,0-.2.86.86,0,0,1,0-.16,1.54,1.54,0,0,1,.05-.17,1.5,1.5,0,0,1,.09-.18,1.37,1.37,0,0,1,.15-.21l.93.22-.07.08-.07.07-.06.06s0,0,0,0l-.11.13a.21.21,0,0,0,0,.12.36.36,0,0,0,.1.23,2.84,2.84,0,0,0,.24.26h0a1.9,1.9,0,0,1,.32.44,1.22,1.22,0,0,1,.12.56Z" fill="#FFF" transform="translate(-157.8 -112.48)"/>
    <path d="M287.05,148.72a1.31,1.31,0,0,1-.12.53,1.48,1.48,0,0,1-.34.5,2,2,0,0,1-.6.37,2.26,2.26,0,0,1-.87.15,2,2,0,0,1-.56-.07,2.22,2.22,0,0,1-.47-.2,1.77,1.77,0,0,1-.37-.27,1.68,1.68,0,0,1-.27-.34,1.35,1.35,0,0,1-.17-.34,1.05,1.05,0,0,1-.06-.33v-.37a1.39,1.39,0,0,1,.12-.57,1.46,1.46,0,0,1,.35-.51,2.13,2.13,0,0,1,.59-.37,2.6,2.6,0,0,1,.85-.18c.05-.08.1-.16.14-.24l.15-.25a.61.61,0,0,0-.05-.12.64.64,0,0,0-.1-.13l-.15-.09a.47.47,0,0,0-.17,0,1,1,0,0,0-.4.07.22.22,0,0,0-.12.19v.31h-.85v-.31a.72.72,0,0,1,.12-.4,1.1,1.1,0,0,1,.3-.31,2,2,0,0,1,.44-.2,1.7,1.7,0,0,1,.51-.07,1.73,1.73,0,0,1,.58.08,1.09,1.09,0,0,1,.41.23,1.15,1.15,0,0,1,.25.37,1.53,1.53,0,0,1,.08.49l-.29.54a1.86,1.86,0,0,1,.39.21,1.75,1.75,0,0,1,.35.32,1.66,1.66,0,0,1,.25.41,1.36,1.36,0,0,1,.09.51Zm-.91-.44a.72.72,0,0,0-.05-.28.74.74,0,0,0-.16-.27.8.8,0,0,0-.26-.21.87.87,0,0,0-.37-.08h-.24a.94.94,0,0,0-.39.07.72.72,0,0,0-.48.48.92.92,0,0,0-.07.38v.3a.7.7,0,0,0,.07.31.88.88,0,0,0,.18.29,1,1,0,0,0,.78.29,1.45,1.45,0,0,0,.44-.07.73.73,0,0,0,.31-.18.84.84,0,0,0,.18-.28,1,1,0,0,0,.06-.36Z" fill="#FFF" transform="translate(-157.8 -112.48)"/>
    <path d="M291.12,148.71q0,1.56-1.68,1.56a2,2,0,0,1-.73-.12,1.45,1.45,0,0,1-.52-.33,1.39,1.39,0,0,1-.32-.48,1.62,1.62,0,0,1-.11-.58v-.22a1,1,0,0,1,0-.23,1.36,1.36,0,0,1,.11-.25c0-.09.1-.18.16-.27l.21-.26.68.29a2.57,2.57,0,0,0-.22.44.87.87,0,0,0-.08.28v.23a1.16,1.16,0,0,0,0,.34.51.51,0,0,0,.13.24.49.49,0,0,0,.24.15,1.2,1.2,0,0,0,.36.05,1.18,1.18,0,0,0,.35-.05.57.57,0,0,0,.24-.14.69.69,0,0,0,.14-.27,1.5,1.5,0,0,0,.05-.4v-.36a.94.94,0,0,0-.07-.37,1.41,1.41,0,0,0-.17-.32,2.09,2.09,0,0,0-.24-.28,3.45,3.45,0,0,0-.28-.26l-.31-.3a2.08,2.08,0,0,1-.27-.32,1.55,1.55,0,0,1-.19-.36,1.57,1.57,0,0,1-.07-.45v-.54h.86v.54a.67.67,0,0,0,.06.28,1.28,1.28,0,0,0,.15.25l.22.24.25.24h0c.12.1.23.22.35.33a2.69,2.69,0,0,1,.3.37,1.78,1.78,0,0,1,.23.43,1.72,1.72,0,0,1,.08.52Z" fill="#FFF" transform="translate(-157.8 -112.48)"/>
    <path d="M295.29,148.81a1.54,1.54,0,0,1-.11.61,1.2,1.2,0,0,1-.32.45,1.48,1.48,0,0,1-.52.3,2.61,2.61,0,0,1-.72.1,2,2,0,0,1-.67-.1,1.74,1.74,0,0,1-.54-.29,1.33,1.33,0,0,1-.47-1.08v-2.6a1.21,1.21,0,0,1,.08-.45.85.85,0,0,1,.23-.32,1,1,0,0,1,.34-.18,1.16,1.16,0,0,1,.42-.07,1.87,1.87,0,0,1,.34,0l.32.06h0l.25,0,.23,0a1.46,1.46,0,0,0,.43-.08l.61-.22v.68a1.94,1.94,0,0,1-.3.14,1.48,1.48,0,0,1-.27.1,1.19,1.19,0,0,1-.26,0,1,1,0,0,1-.25,0,1.37,1.37,0,0,1-.29,0l-.26,0-.23,0a.82.82,0,0,0-.22,0,.27.27,0,0,0-.25.08.35.35,0,0,0-.07.23v.6a1.34,1.34,0,0,1,.42-.2,2,2,0,0,1,.4-.05,1.81,1.81,0,0,1,.72.13,1.63,1.63,0,0,1,.53.32,1.36,1.36,0,0,1,.32.47,1.24,1.24,0,0,1,.11.54Zm-.89-.76a.94.94,0,0,0,0-.3.65.65,0,0,0-.15-.24.61.61,0,0,0-.24-.17,1.16,1.16,0,0,0-.34-.05h-.24a.58.58,0,0,0-.25.09.53.53,0,0,0-.21.23.89.89,0,0,0-.08.44v.74a.88.88,0,0,0,0,.29.61.61,0,0,0,.15.24.6.6,0,0,0,.24.16.9.9,0,0,0,.34.06.79.79,0,0,0,.59-.2.82.82,0,0,0,.2-.58Z" fill="#FFF" transform="translate(-157.8 -112.48)"/>
  </g>
</svg>
