<?xml version="1.0" encoding="utf-8"?>
<!-- Generator: Adobe Illustrator 24.3.0, SVG Export Plug-In . SVG Version: 6.00 Build 0)  -->
<svg version="1.1" id="Layer_1" xmlns="http://www.w3.org/2000/svg" xmlns:xlink="http://www.w3.org/1999/xlink" x="0px" y="0px"
	 viewBox="0 0 160 36" style="enable-background:new 0 0 160 36;" xml:space="preserve">
<style type="text/css">
	.st0{clip-path:url(#SVGID_2_);}
	.st1{fill:#fff;}
	.st2{fill:#FFFFFF;}
	.st3{fill:none}
	.st4{font-family:'AcadMtavr';}
	.st5{font-size:27px;}
	.st5{fill:#fff}
</style>
<g>
	<g>
		<defs>
			<rect id="SVGID_1_"  x="0" y="0.5" width="160" height="35"/>
		</defs>
		<clipPath id="SVGID_2_">
			<use xlink:href="#SVGID_1_"  style="overflow:visible;"/>
		</clipPath>
		<g class="st0">
			<path class="st1" d="M17.8,20.6c0.1,1.2-0.3,2.3-1.2,3.1c-3.8,3.5-8.2,6.4-13,8.3c-0.4,0.2-0.9,0.3-1.4,0.4
				c-0.6,0.1-1.1-0.2-1.2-0.8c0-0.1,0-0.2,0-0.3c0-0.2,0.1-0.4,0.1-0.7C2.3,27,6.7,19.1,8.5,15.8c2.3-4.1,8.4-13.9,9.3-15
				c0.1-0.1,0.3-0.2,0.4-0.1c0.1,0.1,0.3,0.2,0.1,0.7c-0.8,2.9-2,9.3-0.8,17.9C17.7,19.8,17.7,20.2,17.8,20.6"/>
			<path class="st1" d="M19.2,24.8c0.9-0.7,2.2-0.9,3.3-0.5c5,1.5,9.6,3.9,13.7,7.1c0.4,0.3,0.7,0.6,1,1c0.4,0.4,0.4,1.1-0.1,1.5
				C37,34,37,34,36.9,34.1c-0.2,0.1-0.4,0.2-0.7,0.2c-3.8,0.7-12.8,0.9-16.6,0.9c-4.7,0-16.2-0.3-17.6-0.6c-0.2,0-0.3-0.1-0.3-0.3
				c0-0.2,0-0.3,0.6-0.5c2.9-0.8,9-2.9,15.9-8.3C18.6,25.3,18.9,25,19.2,24.8"/>
			<path class="st1" d="M22.1,21.4C21,21,20.3,20,20,18.9c-1.2-5.1-1.4-10.3-0.7-15.4c0.1-0.5,0.2-0.9,0.4-1.4
				c0.2-0.5,0.8-0.8,1.3-0.7c0.1,0,0.2,0.1,0.3,0.1c0.2,0.1,0.3,0.3,0.5,0.4c2.5,2.9,7.2,10.6,9.1,13.9c2.4,4,7.8,14.2,8.3,15.6
				c0.1,0.1,0,0.3-0.1,0.4c-0.1,0.1-0.3,0.1-0.7-0.2c-2.1-2.1-7-6.3-15.1-9.6C22.9,21.8,22.5,21.6,22.1,21.4"/>
			<path class="st1" d="M17.4,19.9c0.2,1.6,0.2,2.5-1.1,3.9c-2.6,2.4-5.4,4.5-8.5,6.2c-1.6,1-3.3,1.8-5.1,2.5
				c-1.1,0.4-2.1,0.6-2.6-0.2c-0.2-0.5-0.2-1,0-1.5c1.2-3.4,4.8-9.6,7.2-13.7l0.7-1.3c3.6-6.2,8.4-13.8,9.3-15
				c0.1-0.2,0.4-0.4,0.6-0.3c0.1,0.1,0.2,0.3,0.2,0.5c0,0-0.1,0.3-0.1,0.3C16.5,7.6,16.7,13.7,17.4,19.9"/>
			<path class="st1" d="M22.7,21.8c-1.5-0.7-2.3-1-2.8-2.9C19,15.5,18.6,12,18.7,8.5c0-1.9,0.1-3.8,0.4-5.6c0.2-1.2,0.5-2.1,1.5-2.1
				c0.5,0,1,0.3,1.3,0.7c2.3,2.8,5.9,9,8.3,13c0.2,0.4,0.5,0.8,0.7,1.3c3.6,6.2,7.8,14.1,8.3,15.5c0.1,0.2,0.1,0.5-0.1,0.7
				c-0.2,0.1-0.4,0-0.5-0.1l-0.2-0.2C33.7,27.2,28.3,24.3,22.7,21.8L22.7,21.8z"/>
			<path class="st1" d="M18.4,25.4c1.3-1,2.1-1.5,3.9-1c3.4,1,6.6,2.4,9.6,4.2c1.6,0.9,3.2,2,4.7,3.2c0.9,0.8,1.6,1.5,1.1,2.4
				c-0.3,0.4-0.8,0.7-1.3,0.7c-3.5,0.6-10.8,0.7-15.5,0.7h-1.5c-7.2,0-16.1-0.3-17.6-0.5c-0.2,0-0.5-0.1-0.5-0.4
				c0-0.2,0.2-0.3,0.3-0.4l0.3-0.1C8.2,32.3,13.5,29.1,18.4,25.4"/>
		
		</g>
	</g>
</g>
<rect x="43.4" y="15.7"  class="st3" width="120.6" height="19.8"/>
<text  transform="matrix(1 0 0 1 43.3731 33.9639)" class="st4 st5">Tibisi</text>
</svg>
